<?xml version="1.0" encoding="utf-8"?>
<!-- Generator: Adobe Illustrator 16.0.0, SVG Export Plug-In . SVG Version: 6.00 Build 0)  -->
<!DOCTYPE svg PUBLIC "-//W3C//DTD SVG 1.1//EN" "http://www.w3.org/Graphics/SVG/1.1/DTD/svg11.dtd">
<svg version="1.1" id="Layer_1" xmlns="http://www.w3.org/2000/svg" xmlns:xlink="http://www.w3.org/1999/xlink" x="0px" y="0px"
	 width="21.265px" height="21.26px" viewBox="-754.978 54.683 21.265 21.26" enable-background="new -754.978 54.683 21.265 21.26"
	 xml:space="preserve">
<g>
	<path fill="#F1A42B" d="M-746.216,71.127l-8.762-0.001V56.161h8.761c0.75,0,1.413,0.337,1.87,0.859
		c0.459-0.522,1.123-0.859,1.871-0.859h8.761v14.965l-8.761,0.001c-0.746,0-1.414,0.325-1.871,0.844
		C-744.804,71.452-745.47,71.127-746.216,71.127z M-744.97,58.655c0-0.688-0.559-1.248-1.247-1.248h-7.515V69.88l7.517-0.001
		c0.452,0.001,0.879,0.123,1.245,0.334V58.655z M-743.722,70.213c0.365-0.211,0.791-0.333,1.246-0.333h7.515V57.407h-7.515
		c-0.688,0-1.248,0.56-1.248,1.248L-743.722,70.213z"/>
	<path fill="#F1A42B" d="M-746.216,72.372c0.745,0,1.411,0.326,1.87,0.844c0.455-0.518,1.123-0.843,1.869-0.843h8.763l-1.248,1.245
		l-7.515,0.002c-0.746,0-1.414,0.326-1.869,0.844c-0.459-0.518-1.125-0.844-1.87-0.844l-7.515-0.002l-1.248-1.245L-746.216,72.372z"
		/>
	<rect x="-752.482" y="59.901" fill="#F1A42B" width="6.269" height="1.248"/>
	<rect x="-752.482" y="62.396" fill="#F1A42B" width="6.269" height="1.248"/>
	<rect x="-752.482" y="64.89" fill="#F1A42B" width="6.269" height="1.248"/>
</g>
</svg>
