<?xml version="1.0" encoding="utf-8"?>
<!-- Generator: Adobe Illustrator 16.0.0, SVG Export Plug-In . SVG Version: 6.00 Build 0)  -->
<!DOCTYPE svg PUBLIC "-//W3C//DTD SVG 1.1//EN" "http://www.w3.org/Graphics/SVG/1.1/DTD/svg11.dtd">
<svg version="1.1" id="Layer_1" xmlns="http://www.w3.org/2000/svg" xmlns:xlink="http://www.w3.org/1999/xlink" x="0px" y="0px"
	 width="21.26px" height="21.26px" viewBox="-754.975 348.521 21.26 21.26" enable-background="new -754.975 348.521 21.26 21.26"
	 xml:space="preserve">
<g>
	<path fill="#FB7E3A" d="M-745.671,360.605l-4.668,9.176h1.399l4.721-9.285l-2.346-3.332c-0.375-0.51-0.604-1.135-0.604-1.813
		c0.004-1.701,1.383-3.08,3.084-3.082c0.028,0,0.056,0.008,0.082,0.008v-1.248c-0.026-0.002-0.054-0.01-0.082-0.01
		c-2.394,0.002-4.332,1.938-4.332,4.332c0,0.957,0.319,1.834,0.848,2.551L-745.671,360.605z"/>
	<path fill="#FB7E3A" d="M-737.274,355.589c0.003-0.082,0.019-0.159,0.019-0.241c0-3.771-3.058-6.824-6.824-6.826
		c-3.771,0.002-6.827,3.059-6.827,6.826c0,1.51,0.495,2.896,1.323,4.024l1.011,1.446l-4.558,8.959h1.399l4.609-9.069l-1.455-2.072
		c-0.678-0.922-1.082-2.059-1.084-3.288c0.006-3.08,2.498-5.572,5.578-5.578c3.08,0.006,5.574,2.498,5.578,5.578
		c0,0.149-0.026,0.299-0.039,0.444l-0.002,0.002l0.002,0.004l1.301,2.935h-1.545l-0.621,4.086h-2.131l-0.635,1.248h3.836
		l0.623-4.086h1.782l0.374-0.521L-737.274,355.589z"/>
</g>
</svg>
