<?xml version="1.0" encoding="utf-8"?>
<!-- Generator: Adobe Illustrator 16.0.0, SVG Export Plug-In . SVG Version: 6.00 Build 0)  -->
<!DOCTYPE svg PUBLIC "-//W3C//DTD SVG 1.1//EN" "http://www.w3.org/Graphics/SVG/1.1/DTD/svg11.dtd">
<svg version="1.1" id="Layer_1" xmlns="http://www.w3.org/2000/svg" xmlns:xlink="http://www.w3.org/1999/xlink" x="0px" y="0px"
	 width="21.26px" height="21.256px" viewBox="-754.975 422.847 21.26 21.256"
	 enable-background="new -754.975 422.847 21.26 21.256" xml:space="preserve">
<g>
	<path fill="#BE5190" d="M-743.724,428.458v4.395h-1.247v-4.395c0-0.346,0.279-0.625,0.624-0.625
		C-744.002,427.833-743.724,428.113-743.724,428.458z"/>
	<path fill="#BE5190" d="M-741.229,428.458v4.395h-1.247v-4.395c0-1.033-0.837-1.871-1.87-1.871c-1.032,0-1.87,0.838-1.87,1.871
		v4.395h-1.246v-4.395c0-1.723,1.396-3.119,3.116-3.119C-742.625,425.339-741.228,426.736-741.229,428.458z"/>
	<path fill="#BE5190" d="M-738.734,428.458v4.395h-1.247v-4.395c0-2.412-1.954-4.365-4.365-4.365c-2.409,0-4.364,1.953-4.364,4.365
		v4.395h-1.246v-4.395c0-3.102,2.513-5.611,5.61-5.611C-741.247,422.847-738.734,425.359-738.734,428.458L-738.734,428.458z"/>
	<path fill="#BE5190" d="M-738.734,438.494v-4.396h-1.247v4.396c0,2.41-1.954,4.365-4.365,4.365c-2.409,0-4.364-1.955-4.364-4.365
		v-4.396h-1.246v4.396c0,3.1,2.513,5.608,5.61,5.608C-741.247,444.105-738.734,441.591-738.734,438.494L-738.734,438.494z"/>
</g>
</svg>
