<?xml version="1.0" encoding="utf-8"?>
<!-- Generator: Adobe Illustrator 16.0.0, SVG Export Plug-In . SVG Version: 6.00 Build 0)  -->
<!DOCTYPE svg PUBLIC "-//W3C//DTD SVG 1.1//EN" "http://www.w3.org/Graphics/SVG/1.1/DTD/svg11.dtd">
<svg version="1.1" id="Layer_1" xmlns="http://www.w3.org/2000/svg" xmlns:xlink="http://www.w3.org/1999/xlink" x="0px" y="0px"
	 width="21.247px" height="21.261px" viewBox="-754.97 464.308 21.247 21.261"
	 enable-background="new -754.97 464.308 21.247 21.261" xml:space="preserve">
<g>
	<g>
		<path fill="#71A860" d="M-739.808,475.355l-1.1-0.636c-0.682,0.865-1.674,1.463-2.816,1.627v1.273
			C-742.117,477.443-740.719,476.591-739.808,475.355z"/>
		<path fill="#71A860" d="M-736.552,477.236c-1.573,2.348-4.184,3.936-7.174,4.131v1.246c3.451-0.197,6.459-2.033,8.253-4.754
			L-736.552,477.236z"/>
		<path fill="#71A860" d="M-737.635,476.609l-1.087-0.629c-1.134,1.604-2.936,2.704-5.003,2.895v1.246
			C-741.194,479.927-738.989,478.587-737.635,476.609z"/>
	</g>
	<g>
		<path fill="#71A860" d="M-739.183,469.755l-1.101,0.633c0.409,1.025,0.431,2.183,0.001,3.254l1.103,0.638
			C-738.53,472.798-738.568,471.162-739.183,469.755z"/>
		<path fill="#71A860" d="M-735.927,467.875c1.244,2.537,1.314,5.59-0.01,8.275l1.08,0.62c1.553-3.088,1.467-6.606,0.009-9.52
			L-735.927,467.875z"/>
		<path fill="#71A860" d="M-737.011,468.5l-1.087,0.627c0.823,1.785,0.875,3.896,0.002,5.777l1.079,0.623
			C-735.917,473.242-735.975,470.662-737.011,468.5z"/>
	</g>
	<g>
		<path fill="#71A860" d="M-749.508,474.275l1.1-0.638c-0.406-1.021-0.43-2.18,0-3.254l-1.104-0.635
			C-750.16,471.232-750.122,472.869-749.508,474.275z"/>
		<path fill="#71A860" d="M-752.766,476.154c-1.244-2.533-1.313-5.593,0.013-8.275l-1.081-0.621
			c-1.554,3.086-1.469,6.609-0.011,9.521L-752.766,476.154z"/>
		<path fill="#71A860" d="M-751.682,475.529l1.087-0.625c-0.822-1.787-0.875-3.896-0.003-5.777l-1.079-0.625
			C-752.772,470.787-752.716,473.367-751.682,475.529z"/>
	</g>
	<g>
		<path fill="#71A860" d="M-744.969,477.615l-0.001-1.271c-1.09-0.16-2.104-0.717-2.816-1.627l-1.104,0.642
			C-747.932,476.658-746.494,477.445-744.969,477.615z"/>
		<path fill="#71A860" d="M-744.972,481.376c-2.816-0.189-5.498-1.656-7.163-4.148l-1.077,0.628c1.896,2.887,4.99,4.573,8.24,4.77
			V481.376z"/>
		<path fill="#71A860" d="M-744.971,480.125l0.003-1.254c-1.959-0.185-3.813-1.191-5.008-2.891l-1.08,0.62
			C-749.623,478.699-747.357,479.939-744.971,480.125z"/>
	</g>
</g>
</svg>
