<?xml version="1.0" encoding="utf-8"?>
<!-- Generator: Adobe Illustrator 16.0.0, SVG Export Plug-In . SVG Version: 6.00 Build 0)  -->
<!DOCTYPE svg PUBLIC "-//W3C//DTD SVG 1.1//EN" "http://www.w3.org/Graphics/SVG/1.1/DTD/svg11.dtd">
<svg version="1.1" id="Layer_1" xmlns="http://www.w3.org/2000/svg" xmlns:xlink="http://www.w3.org/1999/xlink" x="0px" y="0px"
	 width="21.258px" height="21.26px" viewBox="-754.974 96.135 21.258 21.26" enable-background="new -754.974 96.135 21.258 21.26"
	 xml:space="preserve">
<g>
	<polygon fill="#DC4E28" points="-746.318,112.406 -750.053,104.218 -751.242,104.219 -754.974,112.407 -753.604,112.407 
		-750.646,105.917 -747.687,112.406 	"/>
	<polygon fill="#DC4E28" points="-733.717,112.406 -737.449,104.218 -738.641,104.219 -742.373,112.407 -741.003,112.407 
		-738.044,105.917 -735.083,112.406 	"/>
	<polygon fill="#DC4E28" points="-746.318,116.147 -754.974,116.147 -753.728,117.395 -747.563,117.395 	"/>
	<polygon fill="#DC4E28" points="-733.717,116.147 -742.373,116.147 -741.125,117.395 -734.962,117.395 	"/>
	<rect x="-754.974" y="113.653" fill="#DC4E28" width="8.656" height="1.246"/>
	<path fill="#DC4E28" d="M-750.671,102.971h12.651l-0.565-1.246h-11.521L-750.671,102.971z"/>
	<rect x="-742.373" y="113.653" fill="#DC4E28" width="8.656" height="1.246"/>
	<polygon fill="#DC4E28" points="-742.373,96.135 -746.318,96.135 -746.318,97.381 -744.969,97.381 -744.969,100.479 
		-743.723,100.479 -743.723,97.381 -742.373,97.381 	"/>
</g>
</svg>
