<?xml version="1.0" encoding="utf-8"?>
<!-- Generator: Adobe Illustrator 16.0.0, SVG Export Plug-In . SVG Version: 6.00 Build 0)  -->
<!DOCTYPE svg PUBLIC "-//W3C//DTD SVG 1.1//EN" "http://www.w3.org/Graphics/SVG/1.1/DTD/svg11.dtd">
<svg version="1.1" id="Layer_1" xmlns="http://www.w3.org/2000/svg" xmlns:xlink="http://www.w3.org/1999/xlink" x="0px" y="0px"
	 width="21.26px" height="21.36px" viewBox="-755.598 494.62 21.26 21.36" enable-background="new -755.598 494.62 21.26 21.36"
	 xml:space="preserve">
<g>
	<g>
		<g>
			<rect x="-745.577" y="502.967" fill="#1E64C8" width="1.21" height="7.856"/>
			<rect x="-747.998" y="502.967" fill="#1E64C8" width="1.21" height="7.856"/>
			<rect x="-750.419" y="502.967" fill="#1E64C8" width="1.21" height="7.856"/>
			<rect x="-752.84" y="502.967" fill="#1E64C8" width="1.21" height="7.856"/>
			<rect x="-743.157" y="502.967" fill="#1E64C8" width="1.21" height="7.856"/>
			<rect x="-740.736" y="502.967" fill="#1E64C8" width="1.21" height="7.856"/>
			<rect x="-738.316" y="502.967" fill="#1E64C8" width="1.21" height="7.856"/>
			<rect x="-754.079" y="512.035" fill="#1E64C8" width="18.213" height="1.211"/>
			<polygon fill="#1E64C8" points="-737.105,501.757 -752.84,501.757 -754.05,500.546 -735.895,500.546 			"/>
			<rect x="-755.289" y="514.456" fill="#1E64C8" width="20.634" height="1.211"/>
		</g>
	</g>
	<polygon fill="#1E64C8" points="-734.656,498.588 -744.972,494.935 -755.289,498.588 -755.289,499.874 -744.972,496.22 
		-734.656,499.874 	"/>
</g>
</svg>
