<?xml version="1.0" encoding="utf-8"?>
<!-- Generator: Adobe Illustrator 16.0.0, SVG Export Plug-In . SVG Version: 6.00 Build 0)  -->
<!DOCTYPE svg PUBLIC "-//W3C//DTD SVG 1.1//EN" "http://www.w3.org/Graphics/SVG/1.1/DTD/svg11.dtd">
<svg version="1.1" id="Layer_1" xmlns="http://www.w3.org/2000/svg" xmlns:xlink="http://www.w3.org/1999/xlink" x="0px" y="0px"
	 width="21.261px" height="21.261px" viewBox="-754.977 386.382 21.261 21.261"
	 enable-background="new -754.977 386.382 21.261 21.261" xml:space="preserve">
<g>
	<path fill="#27ABAD" d="M-743.018,397.011c0,0.73-0.595,1.324-1.326,1.324c-0.73,0-1.323-0.594-1.323-1.324
		c0-0.731,0.593-1.325,1.323-1.325C-743.613,395.686-743.018,396.279-743.018,397.011z M-744.345,394.438
		c-1.422,0-2.571,1.151-2.571,2.571c0,1.423,1.149,2.572,2.571,2.572c1.421,0,2.572-1.149,2.572-2.572
		C-741.771,395.591-742.925,394.438-744.345,394.438z"/>
	<path fill="#27ABAD" d="M-737.64,390.111c0,0.731-0.592,1.326-1.323,1.326s-1.325-0.595-1.325-1.326
		c0-0.729,0.594-1.324,1.325-1.324C-738.23,388.787-737.64,389.382-737.64,390.111z M-738.963,387.541
		c-1.42,0-2.572,1.15-2.572,2.57c0,1.422,1.151,2.574,2.572,2.574s2.571-1.152,2.571-2.574
		C-736.391,388.693-737.542,387.541-738.963,387.541z"/>
	<path fill="#27ABAD" d="M-744.345,387.628c0.289,0,0.572,0.019,0.854,0.043l0.113-1.239c-0.319-0.029-0.643-0.05-0.971-0.05
		c-5.87,0-10.629,4.759-10.629,10.629c0,5.869,4.758,10.632,10.629,10.632s10.632-4.761,10.632-10.632
		c0-1.229-0.222-2.405-0.604-3.506l-1.176,0.41c0.339,0.974,0.533,2.01,0.533,3.096c0,5.183-4.201,9.384-9.385,9.384
		c-5.182,0-9.383-4.201-9.383-9.384C-753.727,391.828-749.526,387.628-744.345,387.628z"/>
	<path fill="#27ABAD" d="M-744.345,390.123c0.212,0,0.421,0.016,0.628,0.031l0.112-1.242c-0.244-0.02-0.49-0.037-0.74-0.037
		c-4.492,0-8.137,3.646-8.137,8.139c0,4.49,3.645,8.135,8.137,8.135s8.137-3.645,8.137-8.135c0-0.941-0.168-1.846-0.463-2.686
		l-1.178,0.41c0.25,0.713,0.393,1.475,0.393,2.271c0,3.806-3.084,6.89-6.889,6.89s-6.889-3.084-6.889-6.89
		C-751.232,393.207-748.148,390.123-744.345,390.123z"/>
</g>
</svg>
