<?xml version="1.0" encoding="utf-8"?>
<!-- Generator: Adobe Illustrator 16.0.0, SVG Export Plug-In . SVG Version: 6.00 Build 0)  -->
<!DOCTYPE svg PUBLIC "-//W3C//DTD SVG 1.1//EN" "http://www.w3.org/Graphics/SVG/1.1/DTD/svg11.dtd">
<svg version="1.1" id="Layer_1" xmlns="http://www.w3.org/2000/svg" xmlns:xlink="http://www.w3.org/1999/xlink" x="0px" y="0px"
	 width="21.26px" height="21.274px" viewBox="-754.975 137.593 21.26 21.274"
	 enable-background="new -754.975 137.593 21.26 21.274" xml:space="preserve">
<g>
	<polygon fill="#2D8CA8" points="-749.75,158.867 -739.163,158.867 -740.41,157.62 -748.503,157.62 	"/>
	<rect x="-742.646" y="149.522" fill="#2D8CA8" width="6.236" height="1.246"/>
	
		<rect x="-743.062" y="142.993" transform="matrix(0.7067 0.7075 -0.7075 0.7067 -115.2556 567.7596)" fill="#2D8CA8" width="1.248" height="3.739"/>
	
		<rect x="-748.439" y="139.715" transform="matrix(0.7073 0.7069 -0.7069 0.7073 -118.8885 567.8267)" fill="#2D8CA8" width="6.518" height="1.246"/>
	
		<rect x="-750.147" y="141.535" transform="matrix(0.7073 0.707 -0.707 0.7073 -118.1464 569.6336)" fill="#2D8CA8" width="6.517" height="1.247"/>
	<path fill="#2D8CA8" d="M-738.875,152.015c-1.161,1.865-3.225,3.109-5.582,3.109c-3.632,0-6.576-2.943-6.576-6.576
		c0-2.152,1.043-4.053,2.643-5.252l-0.888-0.885c-1.82,1.432-3.002,3.641-3.002,6.137c0,4.322,3.503,7.824,7.823,7.824
		c3.075,0,5.728-1.777,7.007-4.357H-738.875L-738.875,152.015z"/>
	<path fill="#2D8CA8" d="M-742.323,152.015c-0.622,0.383-1.349,0.615-2.133,0.615c-2.255,0-4.082-1.826-4.082-4.082
		c0-1.467,0.788-2.729,1.951-3.447l-0.907-0.906c-1.379,0.963-2.292,2.545-2.292,4.354c0,2.943,2.386,5.33,5.329,5.33
		c1.612,0,3.041-0.73,4.019-1.863L-742.323,152.015L-742.323,152.015z"/>
</g>
</svg>
