<?xml version="1.0" encoding="utf-8"?>
<!-- Generator: Adobe Illustrator 16.0.0, SVG Export Plug-In . SVG Version: 6.00 Build 0)  -->
<!DOCTYPE svg PUBLIC "-//W3C//DTD SVG 1.1//EN" "http://www.w3.org/Graphics/SVG/1.1/DTD/svg11.dtd">
<svg version="1.1" id="logo" xmlns="http://www.w3.org/2000/svg" xmlns:xlink="http://www.w3.org/1999/xlink" x="0px" y="0px"
	 width="119.603px" height="21.585px" viewBox="47.146 40.117 119.603 21.585"
	 enable-background="new 47.146 40.117 119.603 21.585" xml:space="preserve">
<g>
	<g>
		<path fill="#B0CF10" d="M70.163,52.722h4.124v1.059h-2.876v2.699h2.319v1.044h-2.319v2.958h2.876v1.058h-4.124V52.722z"/>
		<path fill="#B0CF10" d="M75.927,52.722h1.438l2.78,7.025c-0.096-0.719-0.178-1.56-0.178-2.347v-4.68h1.194v8.816h-1.438
			l-2.809-7.054c0.108,0.719,0.204,1.573,0.204,2.374v4.68h-1.194v-8.815H75.927z"/>
		<path fill="#B0CF10" d="M85.926,52.722h1.724c1.735,0,2.942,0.446,2.942,2.415c0,1.017-0.406,1.601-0.989,1.926
			c0.731,0.285,1.262,0.896,1.262,2.062c0,1.94-1.193,2.415-2.93,2.415h-2.009V52.722z M87.174,53.753v2.876h0.435
			c0.99,0,1.695-0.096,1.695-1.452c0-1.343-0.705-1.424-1.695-1.424H87.174z M87.174,57.632v2.876h0.72
			c0.989,0,1.682-0.081,1.682-1.424c0-1.355-0.705-1.452-1.682-1.452H87.174z"/>
		<path fill="#B0CF10" d="M92.34,52.722h4.124v1.059h-2.876v2.699h2.32v1.044h-2.32v2.958h2.876v1.058H92.34V52.722z"/>
		<path fill="#B0CF10" d="M98.104,52.722h2.307c2.307,0,2.849,1.233,2.849,4.408c0,3.134-0.556,4.408-2.849,4.408h-2.307V52.722z
			 M99.352,53.753v6.755h0.963c1.274,0,1.656-0.583,1.656-3.377c0-2.795-0.382-3.378-1.656-3.378H99.352z"/>
		<path fill="#B0CF10" d="M104.885,52.722h2.035c1.627,0,2.794,0.609,2.794,2.604c0,1.397-0.679,2.075-1.531,2.388l1.871,3.825
			h-1.425l-1.654-3.595h-0.842v3.595h-1.248V52.722z M106.133,53.78v3.105h0.664c0.979,0,1.629-0.203,1.629-1.561
			c0-1.343-0.65-1.546-1.629-1.546L106.133,53.78L106.133,53.78z"/>
		<path fill="#B0CF10" d="M111.408,61.254v-1.099c0.313,0.189,0.977,0.448,1.804,0.448c1.344,0,1.928-0.543,1.928-2.049v-5.833
			h1.248v5.969c0,1.994-0.938,3.012-3.039,3.012C112.303,61.702,111.639,61.417,111.408,61.254z M111.408,52.722h1.248v5.235h-1.248
			V52.722z"/>
		<path fill="#B0CF10" d="M118.283,52.722h3.988v1.059h-2.74v2.699h2.197v1.044h-2.197v4.016h-1.248V52.722z"/>
		<path fill="#B0CF10" d="M128.645,52.722h1.248v4.002l2.563-4.002h1.396l-2.781,4.3l2.984,4.518h-1.507l-2.657-4.138v4.138h-1.248
			L128.645,52.722L128.645,52.722z"/>
		<path fill="#B0CF10" d="M134.883,58.88v-6.157h1.248v6.213c0,1.303,0.448,1.682,1.357,1.682c0.908,0,1.354-0.379,1.354-1.682
			v-6.213h1.248v6.157c0,2.009-0.84,2.822-2.604,2.822C135.697,61.702,134.883,60.915,134.883,58.88z"/>
		<path fill="#B0CF10" d="M141.99,52.722h1.438l2.78,7.025c-0.096-0.719-0.177-1.56-0.177-2.347v-4.68h1.194v8.816h-1.438
			l-2.808-7.054c0.106,0.719,0.203,1.573,0.203,2.374v4.68h-1.193V52.722L141.99,52.722z"/>
		<path fill="#B0CF10" d="M149.191,52.722h2.306c2.307,0,2.85,1.233,2.85,4.408c0,3.134-0.558,4.408-2.85,4.408h-2.306V52.722z
			 M150.439,53.753v6.755h0.963c1.274,0,1.654-0.583,1.654-3.377c0-2.795-0.379-3.378-1.654-3.378H150.439z"/>
		<path fill="#B0CF10" d="M155.972,52.722h4.124v1.059h-2.876v2.699h2.318v1.044h-2.318v2.958h2.876v1.058h-4.124V52.722z"/>
	</g>
	<g>
		<path fill="#B0CF10" d="M70.163,40.279h3.988v1.059h-2.74v2.699h2.198v1.044h-2.198v4.017h-1.248V40.279z"/>
		<path fill="#B0CF10" d="M76.361,40.279h1.289l2.347,8.817h-1.302l-0.516-1.994h-2.401l-0.502,1.994h-1.262L76.361,40.279z
			 M76.022,46.045h1.938l-0.365-1.466c-0.189-0.731-0.435-1.857-0.583-2.835c-0.163,0.978-0.422,2.104-0.61,2.835L76.022,46.045z"/>
		<path fill="#B0CF10" d="M80.633,44.688c0-3.297,0.72-4.571,2.862-4.571c0.651,0,1.235,0.162,1.521,0.325v1.151
			c-0.325-0.176-0.896-0.353-1.438-0.353c-1.288,0-1.654,0.584-1.654,3.446c0,2.889,0.394,3.459,1.654,3.459
			c0.557,0,1.194-0.19,1.521-0.38v1.151c-0.285,0.163-0.964,0.34-1.573,0.34C81.203,49.273,80.633,47.984,80.633,44.688z"/>
		<path fill="#B0CF10" d="M86.31,46.438V40.28h1.248v6.213c0,1.303,0.446,1.682,1.355,1.682s1.356-0.379,1.356-1.682V40.28h1.248
			v6.158c0,2.008-0.841,2.821-2.604,2.821C87.124,49.26,86.31,48.473,86.31,46.438z"/>
		<path fill="#B0CF10" d="M93.416,40.279h1.248v7.76h2.74v1.059h-3.988V40.279z"/>
		<path fill="#B0CF10" d="M96.97,40.279h5.059v1.059h-1.912v7.76h-1.248v-7.76H96.97V40.279z"/>
		<path fill="#B0CF10" d="M103.072,40.279h4.124v1.059h-2.876v2.699h2.319v1.044h-2.319v2.958h2.876v1.059h-4.124V40.279z"/>
		<path fill="#B0CF10" d="M108.836,40.279h1.248v8.817h-1.248V40.279z"/>
		<path fill="#B0CF10" d="M111.128,40.279h5.06v1.059h-1.912v7.76h-1.248v-7.76h-1.898L111.128,40.279L111.128,40.279z"/>
		<path fill="#B0CF10" d="M119.622,40.279h4.123v1.059h-2.875v2.699h2.319v1.044h-2.319v2.958h2.875v1.059h-4.123V40.279z"/>
		<path fill="#B0CF10" d="M124.843,44.688c0-3.297,0.72-4.571,2.861-4.571c0.652,0,1.235,0.162,1.521,0.325v1.151
			c-0.325-0.176-0.896-0.353-1.438-0.353c-1.289,0-1.654,0.584-1.654,3.446c0,2.889,0.394,3.459,1.654,3.459
			c0.557,0,1.193-0.19,1.521-0.38v1.151c-0.285,0.163-0.964,0.34-1.574,0.34C125.412,49.273,124.843,47.984,124.843,44.688z"/>
		<path fill="#B0CF10" d="M130.228,44.688c0-3.649,0.867-4.571,2.699-4.571c1.885,0,2.713,0.881,2.713,4.571
			c0,3.662-0.869,4.57-2.713,4.57C131.054,49.26,130.228,48.392,130.228,44.688z M134.351,44.688c0-2.769-0.285-3.486-1.424-3.486
			c-1.142,0-1.411,0.719-1.411,3.486c0,2.767,0.271,3.484,1.411,3.484C134.065,48.174,134.351,47.455,134.351,44.688z"/>
		<path fill="#B0CF10" d="M137.265,40.279h1.438l2.78,7.026c-0.094-0.72-0.176-1.561-0.176-2.348v-4.68h1.192v8.816h-1.438
			l-2.81-7.054c0.109,0.719,0.204,1.573,0.204,2.374v4.68h-1.193v-8.815H137.265z"/>
		<path fill="#B0CF10" d="M144.128,44.688c0-3.649,0.867-4.571,2.699-4.571c1.885,0,2.713,0.881,2.713,4.571
			c0,3.662-0.869,4.57-2.713,4.57C144.954,49.26,144.128,48.392,144.128,44.688z M148.251,44.688c0-2.769-0.285-3.486-1.424-3.486
			c-1.141,0-1.411,0.719-1.411,3.486c0,2.767,0.271,3.484,1.411,3.484C147.966,48.174,148.251,47.455,148.251,44.688z"/>
		<path fill="#B0CF10" d="M151.165,40.279h1.615l1.546,4.64l1.561-4.64h1.561v8.817h-1.193V44.51c0-0.977,0.067-1.993,0.148-2.78
			l-1.6,4.748h-0.99l-1.615-4.763c0.082,0.787,0.163,1.818,0.163,2.795v4.586h-1.194L151.165,40.279L151.165,40.279z"/>
		<path fill="#B0CF10" d="M159.411,40.279h1.248v8.817h-1.248V40.279z"/>
		<path fill="#B0CF10" d="M162.625,40.279h4.124v1.059h-2.876v2.699h2.319v1.044h-2.319v2.958h2.876v1.059h-4.124V40.279z"/>
	</g>
	<path fill="#B0CF10" d="M125.668,53.629c0.552-0.002,1.07,0.181,1.31,0.367v-1.125c-0.238-0.146-0.824-0.309-1.418-0.309
		c-1.655,0-2.566,0.94-2.566,2.307c0,1.139,0.482,1.687,1.259,2.355l0.71,0.612c0.586,0.49,0.949,0.867,0.949,1.603
		c0,0.856-0.565,1.196-1.417,1.196c-0.645,0-1.18-0.18-1.488-0.393v1.146c0.271,0.155,0.837,0.315,1.601,0.313
		c1.65-0.004,2.563-0.941,2.563-2.307c0.002-1.138-0.481-1.687-1.259-2.354l-0.709-0.615c-0.588-0.502-0.952-0.864-0.95-1.598
		C124.253,53.969,124.815,53.631,125.668,53.629z"/>
	<polygon fill="#B0CF10" points="64.664,60.291 48.394,60.291 48.394,40.279 47.146,40.279 47.146,61.539 65.911,61.539 	"/>
	<rect x="49.64" y="48.281" fill="#B0CF10" width="1.248" height="10.764"/>
	<rect x="52.134" y="52.258" fill="#B0CF10" width="1.248" height="6.787"/>
	<rect x="54.628" y="48.281" fill="#B0CF10" width="1.248" height="10.764"/>
	<rect x="57.123" y="45.63" fill="#B0CF10" width="1.248" height="13.415"/>
	<rect x="59.618" y="53.584" fill="#B0CF10" width="1.248" height="5.461"/>
</g>
</svg>
