<?xml version="1.0" encoding="utf-8"?>
<!-- Generator: Adobe Illustrator 16.0.0, SVG Export Plug-In . SVG Version: 6.00 Build 0)  -->
<!DOCTYPE svg PUBLIC "-//W3C//DTD SVG 1.1//EN" "http://www.w3.org/Graphics/SVG/1.1/DTD/svg11.dtd">
<svg version="1.1" id="logo" xmlns="http://www.w3.org/2000/svg" xmlns:xlink="http://www.w3.org/1999/xlink" x="0px" y="0px"
	 width="139.282px" height="21.564px" viewBox="47.146 40.118 139.282 21.564"
	 enable-background="new 47.146 40.118 139.282 21.564" xml:space="preserve">
<g>
	<polygon fill="#FF3600" points="55.803,56.551 52.069,48.362 50.879,48.363 47.146,56.552 48.515,56.552 51.474,50.061 
		54.434,56.551 	"/>
	<polygon fill="#FF3600" points="68.405,56.551 64.671,48.362 63.482,48.363 59.748,56.552 61.117,56.552 64.077,50.061 
		67.036,56.551 	"/>
	<polygon fill="#FF3600" points="55.803,60.292 47.146,60.292 48.393,61.539 54.556,61.539 	"/>
	<polygon fill="#FF3600" points="68.405,60.292 59.748,60.292 60.995,61.539 67.158,61.539 	"/>
	<rect x="47.146" y="57.798" fill="#FF3600" width="8.657" height="1.246"/>
	<path fill="#FF3600" d="M51.448,47.115h12.655l-0.568-1.246H52.016L51.448,47.115z"/>
	<rect x="59.748" y="57.798" fill="#FF3600" width="8.657" height="1.246"/>
	<polygon fill="#FF3600" points="59.748,40.279 55.803,40.279 55.803,41.525 57.152,41.525 57.152,44.623 58.398,44.623 
		58.398,41.525 59.748,41.525 	"/>
	<g>
		<path fill="#FF3600" d="M72.628,40.282h3.997v1.06h-2.746v2.706h2.202v1.048h-2.202v4.023h-1.251V40.282z"/>
		<path fill="#FF3600" d="M78.815,40.282h1.292l2.352,8.837h-1.305l-0.517-1.999h-2.406l-0.503,1.999h-1.266L78.815,40.282z
			 M78.476,46.06h1.943l-0.366-1.469c-0.19-0.733-0.436-1.862-0.584-2.841c-0.163,0.979-0.422,2.107-0.612,2.841L78.476,46.06z"/>
		<path fill="#FF3600" d="M83.06,44.7c0-3.304,0.721-4.582,2.869-4.582c0.651,0,1.236,0.164,1.521,0.327V41.6
			c-0.326-0.178-0.896-0.354-1.441-0.354c-1.292,0-1.658,0.585-1.658,3.454c0,2.896,0.395,3.467,1.658,3.467
			c0.559,0,1.196-0.189,1.522-0.381v1.156c-0.285,0.163-0.965,0.34-1.577,0.34C83.63,49.295,83.06,48.004,83.06,44.7z"/>
		<path fill="#FF3600" d="M88.853,46.454v-6.172h1.25v6.227c0,1.306,0.448,1.687,1.359,1.687s1.359-0.381,1.359-1.687v-6.227h1.251
			v6.172c0,2.012-0.843,2.828-2.61,2.828C89.668,49.282,88.853,48.493,88.853,46.454z"/>
		<path fill="#FF3600" d="M95.938,40.282h1.251v7.776h2.746v1.061h-3.997V40.282z"/>
		<path fill="#FF3600" d="M99.461,40.282h5.071v1.06h-1.917v7.777h-1.25v-7.777h-1.903L99.461,40.282L99.461,40.282z"/>
		<path fill="#FF3600" d="M105.54,40.282h4.133v1.06h-2.882v2.706h2.325v1.048h-2.325v2.964h2.882v1.061h-4.133V40.282z"/>
		<path fill="#FF3600" d="M111.278,40.282h1.251v8.837h-1.251V40.282z"/>
		<path fill="#FF3600" d="M113.536,40.282h5.071v1.06h-1.917v7.777h-1.25v-7.777h-1.903L113.536,40.282L113.536,40.282z"/>
		<path fill="#FF3600" d="M72.628,52.682h2.04c1.631,0,2.8,0.611,2.8,2.609c0,1.4-0.68,2.08-1.535,2.394l1.876,3.834H76.38
			l-1.658-3.604h-0.844v3.604h-1.251L72.628,52.682L72.628,52.682z M73.879,53.742v3.114h0.666c0.979,0,1.631-0.204,1.631-1.563
			c0-1.346-0.651-1.55-1.631-1.55L73.879,53.742L73.879,53.742z"/>
		<path fill="#FF3600" d="M79.129,52.682h4.134v1.06H80.38v2.706h2.325v1.047H80.38v2.964h2.883v1.062h-4.134V52.682z"/>
		<path fill="#FF3600" d="M84.324,57.1c0-3.305,0.721-4.582,2.869-4.582c0.652,0,1.237,0.164,1.521,0.326V54
			c-0.325-0.177-0.896-0.354-1.44-0.354c-1.292,0-1.659,0.585-1.659,3.454c0,2.896,0.395,3.467,1.659,3.467
			c0.558,0,1.196-0.19,1.521-0.381v1.155c-0.284,0.163-0.965,0.341-1.576,0.341C84.895,61.695,84.324,60.404,84.324,57.1z"/>
		<path fill="#FF3600" d="M94.128,57.508h-2.691v4.012h-1.251v-8.837h1.251v3.766h2.691v-3.766h1.25v8.837h-1.25V57.508z"/>
		<path fill="#FF3600" d="M96.387,52.682h5.07v1.06h-1.917v7.777h-1.25v-7.777h-1.902L96.387,52.682L96.387,52.682z"/>
		<path fill="#FF3600" d="M105.022,52.682h4.133v1.06h-2.882v2.706h2.325v1.047h-2.325v2.964h2.882v1.062h-4.133V52.682z"/>
		<path fill="#FF3600" d="M110.761,52.682h1.44l2.787,7.042c-0.095-0.722-0.177-1.563-0.177-2.353v-4.689h1.196v8.837h-1.44
			l-2.814-7.07c0.108,0.721,0.204,1.577,0.204,2.379v4.69h-1.195L110.761,52.682L110.761,52.682z"/>
		<path fill="#FF3600" d="M120.159,57.1c0-3.305,0.721-4.582,2.869-4.582c0.652,0,1.237,0.164,1.521,0.326V54
			c-0.325-0.177-0.896-0.354-1.44-0.354c-1.292,0-1.659,0.585-1.659,3.454c0,2.896,0.395,3.467,1.659,3.467
			c0.558,0,1.196-0.19,1.521-0.381v1.155c-0.284,0.163-0.965,0.341-1.576,0.341C120.729,61.695,120.159,60.404,120.159,57.1z"/>
		<path fill="#FF3600" d="M126.02,52.682h2.04c1.631,0,2.8,0.611,2.8,2.609c0,1.4-0.68,2.08-1.536,2.394l1.876,3.834h-1.427
			l-1.659-3.604h-0.843v3.604h-1.251V52.682L126.02,52.682z M127.271,53.742v3.114h0.666c0.979,0,1.631-0.204,1.631-1.563
			c0-1.346-0.652-1.55-1.631-1.55L127.271,53.742L127.271,53.742z"/>
		<path fill="#FF3600" d="M132.521,52.682h1.251v8.837h-1.251V52.682z"/>
		<path fill="#FF3600" d="M135.703,52.682h1.618l1.55,4.648l1.563-4.648h1.563v8.837H140.8v-4.596c0-0.979,0.068-1.999,0.15-2.786
			l-1.604,4.758h-0.992l-1.618-4.772c0.082,0.789,0.163,1.822,0.163,2.801v4.596h-1.196V52.682L135.703,52.682z"/>
		<path fill="#FF3600" d="M143.931,52.682h1.251v8.837h-1.251V52.682z"/>
		<path fill="#FF3600" d="M147.113,52.682h1.441l2.786,7.042c-0.095-0.722-0.177-1.563-0.177-2.353v-4.689h1.197v8.837h-1.441
			l-2.813-7.07c0.107,0.721,0.204,1.577,0.204,2.379v4.69h-1.196L147.113,52.682L147.113,52.682z"/>
		<path fill="#FF3600" d="M153.953,57.1c0-3.657,0.87-4.582,2.706-4.582c1.89,0,2.719,0.884,2.719,4.582
			c0,3.671-0.87,4.582-2.719,4.582C154.782,61.682,153.953,60.812,153.953,57.1z M158.086,57.1c0-2.773-0.285-3.494-1.427-3.494
			s-1.414,0.721-1.414,3.494c0,2.772,0.272,3.493,1.414,3.493S158.086,59.874,158.086,57.1z"/>
		<path fill="#FF3600" d="M160.971,52.682h1.251v7.775h2.745v1.062h-3.996V52.682L160.971,52.682z"/>
		<path fill="#FF3600" d="M165.377,57.1c0-3.657,0.87-4.582,2.706-4.582c1.891,0,2.719,0.884,2.719,4.582
			c0,3.671-0.869,4.582-2.719,4.582C166.207,61.682,165.377,60.812,165.377,57.1z M169.51,57.1c0-2.773-0.284-3.494-1.427-3.494
			c-1.142,0-1.414,0.721-1.414,3.494c0,2.772,0.272,3.493,1.414,3.493C169.225,60.594,169.51,59.874,169.51,57.1z"/>
		<path fill="#FF3600" d="M172.123,57.1c0-3.48,0.924-4.582,3.223-4.582c0.651,0,1.346,0.177,1.645,0.354v1.156
			c-0.326-0.19-0.952-0.395-1.55-0.395c-1.468,0-2.026,0.543-2.026,3.468c0,2.896,0.396,3.493,1.672,3.493
			c0.395,0,0.722-0.055,0.965-0.122v-2.95h-1.305v-1.062h2.557v4.772c-0.259,0.163-1.293,0.449-2.202,0.449
			C172.708,61.682,172.123,60.431,172.123,57.1z"/>
		<path fill="#FF3600" d="M179.113,52.682h1.251v8.837h-1.251V52.682z"/>
		<path fill="#FF3600" d="M182.295,52.682h4.134v1.06h-2.883v2.706h2.325v1.047h-2.325v2.964h2.883v1.062h-4.134V52.682z"/>
	</g>
</g>
</svg>
