<?xml version="1.0" encoding="utf-8"?>
<!-- Generator: Adobe Illustrator 16.0.0, SVG Export Plug-In . SVG Version: 6.00 Build 0)  -->
<!DOCTYPE svg PUBLIC "-//W3C//DTD SVG 1.1//EN" "http://www.w3.org/Graphics/SVG/1.1/DTD/svg11.dtd">
<svg version="1.1" id="logo" xmlns="http://www.w3.org/2000/svg" xmlns:xlink="http://www.w3.org/1999/xlink" x="0px" y="0px"
	 width="145.34px" height="21.583px" viewBox="47.152 40.118 145.34 21.583" enable-background="new 47.152 40.118 145.34 21.583"
	 xml:space="preserve">
<g>
	<g>
		<path fill="#4AAB27" d="M77.529,57.13c0-3.648,0.868-4.57,2.699-4.57c1.886,0,2.713,0.881,2.713,4.57
			c0,3.662-0.868,4.571-2.713,4.571C78.356,61.702,77.529,60.833,77.529,57.13z M81.653,57.13c0-2.768-0.285-3.485-1.425-3.485
			c-1.141,0-1.411,0.719-1.411,3.485c0,2.768,0.271,3.485,1.411,3.485C81.368,60.615,81.653,59.897,81.653,57.13z"/>
		<path fill="#4AAB27" d="M84.296,57.13c0-3.297,0.72-4.57,2.862-4.57c0.651,0,1.235,0.162,1.521,0.324v1.152
			c-0.325-0.176-0.896-0.353-1.438-0.353c-1.288,0-1.654,0.584-1.654,3.445c0,2.89,0.394,3.459,1.654,3.459
			c0.557,0,1.194-0.189,1.52-0.38v1.152c-0.284,0.163-0.963,0.34-1.572,0.34C84.866,61.715,84.296,60.426,84.296,57.13z"/>
		<path fill="#4AAB27" d="M90.183,52.721h1.248v8.816h-1.248V52.721z"/>
		<path fill="#4AAB27" d="M94.753,52.721h1.289l2.347,8.816h-1.303l-0.516-1.994h-2.401l-0.502,1.994h-1.262L94.753,52.721z
			 M94.413,58.487h1.939l-0.365-1.466c-0.19-0.732-0.435-1.858-0.584-2.835c-0.162,0.977-0.42,2.103-0.609,2.835L94.413,58.487z"/>
		<path fill="#4AAB27" d="M99.363,52.721h1.248v7.76h2.74v1.058h-3.988V52.721z"/>
		<path fill="#4AAB27" d="M104.544,52.721h4.124v1.059h-2.876v2.699h2.32v1.044h-2.32v2.958h2.876v1.058h-4.124V52.721z"/>
		<path fill="#4AAB27" d="M112.212,52.721h1.248l0.72,4.341c0.123,0.705,0.271,2.089,0.354,3.146
			c0.081-1.059,0.23-2.429,0.354-3.146l0.731-4.341h1.275l0.731,4.341c0.122,0.705,0.258,2.075,0.339,3.12
			c0.082-1.045,0.244-2.415,0.367-3.12l0.719-4.341h1.207l-1.682,8.816h-1.289l-0.719-4.341c-0.109-0.651-0.258-1.886-0.34-2.903
			c-0.081,1.019-0.218,2.252-0.325,2.903l-0.733,4.341h-1.273L112.212,52.721z"/>
		<path fill="#4AAB27" d="M121.476,52.721h4.123v1.059h-2.875v2.699h2.318v1.044h-2.318v2.958h2.875v1.058h-4.123V52.721z"/>
		<path fill="#4AAB27" d="M126.329,52.721h5.06v1.059h-1.912v7.759h-1.248V53.78h-1.898L126.329,52.721L126.329,52.721z"/>
		<path fill="#4AAB27" d="M132.433,52.721h4.123v1.059h-2.875v2.699h2.317v1.044h-2.317v2.958h2.875v1.058h-4.123V52.721z"/>
		<path fill="#4AAB27" d="M138.196,52.721h1.438l2.781,7.025c-0.096-0.719-0.178-1.56-0.178-2.347v-4.681h1.195v8.817h-1.439
			l-2.807-7.054c0.106,0.719,0.203,1.573,0.203,2.374v4.68h-1.193V52.721L138.196,52.721z"/>
		<path fill="#4AAB27" d="M150.185,57.13c0-3.297,0.719-4.57,2.86-4.57c0.652,0,1.234,0.162,1.521,0.324v1.152
			c-0.326-0.176-0.896-0.353-1.438-0.353c-1.289,0-1.653,0.584-1.653,3.445c0,2.89,0.393,3.459,1.653,3.459
			c0.558,0,1.193-0.189,1.521-0.38v1.152c-0.285,0.163-0.963,0.34-1.574,0.34C150.753,61.715,150.185,60.426,150.185,57.13z"/>
		<path fill="#4AAB27" d="M159.862,57.537h-2.687v4.002h-1.247v-8.816h1.247v3.758h2.687v-3.758h1.248v8.816h-1.248V57.537z"/>
		<path fill="#4AAB27" d="M164.433,52.721h1.289l2.348,8.816h-1.303l-0.517-1.994h-2.399l-0.502,1.994h-1.263L164.433,52.721z
			 M164.095,58.487h1.938l-0.367-1.466c-0.188-0.732-0.434-1.858-0.582-2.835c-0.164,0.977-0.422,2.103-0.61,2.835L164.095,58.487z"
			/>
		<path fill="#4AAB27" d="M169.044,52.721h2.115c1.67,0,2.66,0.704,2.66,2.808c0,2.049-1.031,2.809-2.66,2.809h-0.867v3.201h-1.248
			V52.721z M170.292,53.78v3.513h0.732c0.977,0,1.506-0.353,1.506-1.764c0-1.41-0.529-1.749-1.506-1.749H170.292z"/>
		<path fill="#4AAB27" d="M175.269,52.721h2.114c1.671,0,2.66,0.704,2.66,2.808c0,2.049-1.03,2.809-2.66,2.809h-0.866v3.201h-1.248
			V52.721z M176.517,53.78v3.513h0.731c0.978,0,1.506-0.353,1.506-1.764c0-1.41-0.528-1.749-1.506-1.749H176.517z"/>
		<path fill="#4AAB27" d="M181.493,52.721h4.123v1.059h-2.875v2.699h2.32v1.044h-2.32v2.958h2.875v1.058h-4.123V52.721z"/>
		<path fill="#4AAB27" d="M187.257,52.721h1.438l2.78,7.025c-0.096-0.719-0.177-1.56-0.177-2.347v-4.681h1.193v8.817h-1.438
			l-2.809-7.054c0.108,0.719,0.203,1.573,0.203,2.374v4.68h-1.193L187.257,52.721L187.257,52.721z"/>
	</g>
	<g>
		<path fill="#4AAB27" d="M72.657,40.28h3.988v1.059h-2.74v2.698h2.198v1.045h-2.198v4.017h-1.248V40.28z"/>
		<path fill="#4AAB27" d="M78.855,40.28h1.289l2.347,8.817h-1.302l-0.517-1.994h-2.4l-0.502,1.994h-1.263L78.855,40.28z
			 M78.517,46.044h1.938L80.09,44.58c-0.188-0.731-0.434-1.857-0.583-2.835c-0.162,0.978-0.421,2.104-0.609,2.835L78.517,46.044z"/>
		<path fill="#4AAB27" d="M83.127,44.689c0-3.296,0.72-4.571,2.862-4.571c0.651,0,1.235,0.162,1.52,0.326v1.152
			c-0.324-0.177-0.896-0.354-1.438-0.354c-1.288,0-1.654,0.584-1.654,3.446c0,2.889,0.394,3.459,1.654,3.459
			c0.557,0,1.194-0.191,1.52-0.381v1.151c-0.284,0.164-0.963,0.34-1.572,0.34C83.697,49.273,83.127,47.984,83.127,44.689z"/>
		<path fill="#4AAB27" d="M88.804,46.437V40.28h1.248v6.212c0,1.303,0.446,1.682,1.355,1.682s1.356-0.379,1.356-1.682V40.28h1.248
			v6.157c0,2.008-0.842,2.821-2.604,2.821C89.618,49.259,88.804,48.472,88.804,46.437z"/>
		<path fill="#4AAB27" d="M95.91,40.28h1.248v7.759h2.74v1.06H95.91V40.28z"/>
		<path fill="#4AAB27" d="M99.464,40.28h5.06v1.059h-1.912v7.76h-1.248v-7.76h-1.898L99.464,40.28L99.464,40.28z"/>
		<path fill="#4AAB27" d="M105.566,40.28h4.124v1.059h-2.876v2.698h2.318v1.045h-2.318v2.957h2.876v1.06h-4.124V40.28z"/>
		<path fill="#4AAB27" d="M111.33,40.28h1.248v8.817h-1.248V40.28z"/>
		<path fill="#4AAB27" d="M113.622,40.28h5.06v1.059h-1.912v7.76h-1.248v-7.76h-1.898L113.622,40.28L113.622,40.28z"/>
		<path fill="#4AAB27" d="M122.116,40.28h2.115c1.669,0,2.659,0.705,2.659,2.809c0,2.049-1.03,2.809-2.659,2.809h-0.867v3.201
			h-1.248V40.28z M123.364,41.338v3.514h0.732c0.977,0,1.506-0.354,1.506-1.764c0-1.41-0.529-1.75-1.506-1.75H123.364z"/>
		<path fill="#4AAB27" d="M128.001,44.689c0-3.649,0.869-4.571,2.699-4.571c1.887,0,2.713,0.881,2.713,4.571
			c0,3.662-0.867,4.569-2.713,4.569C128.829,49.259,128.001,48.392,128.001,44.689z M132.125,44.689
			c0-2.768-0.284-3.485-1.425-3.485c-1.139,0-1.41,0.719-1.41,3.485c0,2.766,0.271,3.483,1.41,3.483
			C131.841,48.173,132.125,47.455,132.125,44.689z"/>
		<path fill="#4AAB27" d="M135.04,40.28h1.248v7.759h2.74v1.06h-3.988V40.28z"/>
		<path fill="#4AAB27" d="M140.22,40.28h1.247v8.817h-1.247V40.28z"/>
		<path fill="#4AAB27" d="M142.512,40.28h5.06v1.059h-1.912v7.76h-1.248v-7.76h-1.898L142.512,40.28L142.512,40.28z"/>
		<path fill="#4AAB27" d="M148.614,40.28h1.248v8.817h-1.248V40.28z"/>
		<path fill="#4AAB27" d="M151.829,40.28h4.123v1.059h-2.875v2.698h2.319v1.045h-2.319v2.957h2.875v1.06h-4.123V40.28z"/>
		<path fill="#4AAB27" d="M157.593,40.28h1.248v4.001l2.563-4.001h1.396l-2.78,4.3l2.983,4.519h-1.506l-2.658-4.14v4.14h-1.248
			L157.593,40.28L157.593,40.28z"/>
		<path fill="#4AAB27" d="M163.926,40.28h4.124v1.059h-2.876v2.698h2.319v1.045h-2.319v2.957h2.876v1.06h-4.124V40.28z"/>
		<path fill="#4AAB27" d="M172.487,40.28h4.123v1.059h-2.875v2.698h2.319v1.045h-2.319v2.957h2.875v1.06h-4.123V40.28z"/>
		<path fill="#4AAB27" d="M178.251,40.28h1.438l2.781,7.026c-0.097-0.72-0.178-1.562-0.178-2.349V40.28h1.194v8.817h-1.438
			l-2.808-7.055c0.107,0.72,0.203,1.574,0.203,2.374v4.681h-1.193V40.28L178.251,40.28z"/>
	</g>
	<path fill="#4AAB27" d="M74.892,53.628c0.551-0.002,1.069,0.181,1.309,0.367V52.87c-0.238-0.146-0.824-0.309-1.418-0.309
		c-1.655,0-2.566,0.94-2.566,2.307c0,1.139,0.482,1.687,1.26,2.355l0.71,0.612c0.586,0.49,0.948,0.867,0.948,1.603
		c0,0.856-0.565,1.196-1.417,1.196c-0.645,0-1.18-0.18-1.487-0.393v1.146c0.271,0.155,0.837,0.315,1.6,0.313
		c1.651-0.004,2.563-0.941,2.564-2.307c0.001-1.138-0.482-1.687-1.26-2.354l-0.709-0.615c-0.588-0.502-0.951-0.864-0.949-1.598
		C73.477,53.968,74.039,53.63,74.892,53.628z"/>
	<path fill="#4AAB27" d="M147.548,53.628c0.552-0.002,1.07,0.181,1.31,0.367V52.87c-0.238-0.146-0.824-0.309-1.418-0.309
		c-1.656,0-2.566,0.94-2.566,2.307c0,1.139,0.482,1.687,1.258,2.355l0.711,0.612c0.587,0.49,0.949,0.867,0.949,1.603
		c0,0.856-0.565,1.196-1.418,1.196c-0.645,0-1.18-0.18-1.487-0.393v1.146c0.271,0.155,0.838,0.315,1.6,0.313
		c1.652-0.004,2.563-0.941,2.563-2.307c0.002-1.138-0.481-1.687-1.258-2.354l-0.709-0.615c-0.588-0.502-0.953-0.864-0.951-1.598
		C146.133,53.968,146.694,53.63,147.548,53.628z"/>
	<g>
		<path fill="#4AAB27" d="M62.314,54.249l-1.101-0.636c-0.682,0.866-1.674,1.463-2.815,1.627v1.273
			C60.004,56.336,61.403,55.484,62.314,54.249z"/>
		<path fill="#4AAB27" d="M65.571,56.129c-1.575,2.348-4.184,3.935-7.173,4.131v1.247c3.451-0.199,6.459-2.035,8.252-4.755
			L65.571,56.129z"/>
		<path fill="#4AAB27" d="M64.488,55.503l-1.087-0.628c-1.134,1.606-2.937,2.705-5.003,2.892v1.247
			C60.927,58.821,63.132,57.48,64.488,55.503z"/>
	</g>
	<g>
		<path fill="#4AAB27" d="M62.938,48.648l-1.102,0.634c0.409,1.024,0.432,2.182,0.001,3.254l1.104,0.637
			C63.591,51.692,63.553,50.054,62.938,48.648z"/>
		<path fill="#4AAB27" d="M66.195,46.768c1.244,2.537,1.313,5.59-0.01,8.276l1.08,0.623c1.553-3.088,1.467-6.61,0.009-9.522
			L66.195,46.768z"/>
		<path fill="#4AAB27" d="M65.111,47.393l-1.087,0.627c0.823,1.785,0.875,3.895,0.002,5.777l1.079,0.624
			C66.203,52.135,66.146,49.555,65.111,47.393z"/>
	</g>
	<g>
		<path fill="#4AAB27" d="M52.614,53.169l1.099-0.635c-0.405-1.024-0.43-2.181,0-3.255l-1.103-0.635
			C51.961,50.125,51.999,51.762,52.614,53.169z"/>
		<path fill="#4AAB27" d="M49.355,55.047c-1.244-2.534-1.314-5.589,0.011-8.276l-1.081-0.621c-1.552,3.087-1.467,6.61-0.009,9.521
			L49.355,55.047z"/>
		<path fill="#4AAB27" d="M50.44,54.422l1.087-0.625c-0.824-1.786-0.875-3.896-0.003-5.778l-1.079-0.625
			C49.348,49.68,49.406,52.26,50.44,54.422z"/>
	</g>
	<g>
		<path fill="#4AAB27" d="M57.153,56.508l-0.001-1.269c-1.09-0.16-2.104-0.718-2.818-1.628l-1.102,0.639
			C54.189,55.551,55.627,56.338,57.153,56.508z"/>
		<path fill="#4AAB27" d="M57.15,60.27c-2.818-0.19-5.498-1.656-7.163-4.148l-1.079,0.626c1.898,2.888,4.992,4.575,8.242,4.77V60.27
			z"/>
		<path fill="#4AAB27" d="M57.151,59.018l0.003-1.254c-1.959-0.181-3.813-1.191-5.008-2.888l-1.08,0.621
			C52.498,57.592,54.763,58.833,57.151,59.018z"/>
	</g>
</g>
</svg>
