<?xml version="1.0" encoding="utf-8"?>
<!-- Generator: Adobe Illustrator 16.0.0, SVG Export Plug-In . SVG Version: 6.00 Build 0)  -->
<!DOCTYPE svg PUBLIC "-//W3C//DTD SVG 1.1//EN" "http://www.w3.org/Graphics/SVG/1.1/DTD/svg11.dtd">
<svg version="1.1" id="logo" xmlns="http://www.w3.org/2000/svg" xmlns:xlink="http://www.w3.org/1999/xlink" x="0px" y="0px"
	 width="99.67px" height="21.584px" viewBox="47.147 40.118 99.67 21.584" enable-background="new 47.147 40.118 99.67 21.584"
	 xml:space="preserve">
<g>
	<g>
		<path fill="#3FB0BD" d="M66.537,52.721h1.248l0.719,4.342c0.122,0.705,0.271,2.088,0.354,3.146
			c0.082-1.059,0.229-2.428,0.354-3.146l0.732-4.342h1.274l0.732,4.342c0.121,0.705,0.258,2.074,0.338,3.119
			c0.082-1.045,0.244-2.414,0.367-3.119l0.719-4.342h1.207l-1.682,8.817H71.61l-0.719-4.342c-0.108-0.65-0.259-1.885-0.341-2.902
			c-0.079,1.019-0.217,2.252-0.323,2.902l-0.732,4.342H68.22L66.537,52.721z"/>
		<path fill="#3FB0BD" d="M75.8,52.721h4.124v1.059h-2.876v2.699h2.32v1.045h-2.32v2.957h2.876v1.059H75.8V52.721z"/>
		<path fill="#3FB0BD" d="M80.654,52.721h5.06v1.059H83.8v7.76h-1.247v-7.76h-1.898V52.721z"/>
		<path fill="#3FB0BD" d="M86.757,52.721h4.123v1.059h-2.875v2.699h2.32v1.045h-2.32v2.957h2.875v1.059h-4.123V52.721z"/>
		<path fill="#3FB0BD" d="M92.521,52.721h1.438l2.781,7.026c-0.096-0.719-0.176-1.561-0.176-2.348v-4.681h1.192v8.818h-1.438
			l-2.81-7.055c0.107,0.719,0.203,1.574,0.203,2.375v4.68H92.52L92.521,52.721L92.521,52.721z"/>
		<path fill="#3FB0BD" d="M104.509,57.131c0-3.297,0.72-4.571,2.861-4.571c0.652,0,1.236,0.162,1.521,0.325v1.152
			c-0.324-0.176-0.896-0.354-1.438-0.354c-1.289,0-1.654,0.584-1.654,3.446c0,2.89,0.394,3.459,1.654,3.459
			c0.557,0,1.193-0.19,1.521-0.381v1.152c-0.285,0.164-0.964,0.34-1.574,0.34C105.079,61.715,104.509,60.426,104.509,57.131z"/>
		<path fill="#3FB0BD" d="M114.188,57.538H111.5v4.002h-1.248v-8.817h1.248v3.758h2.688v-3.758h1.248v8.817h-1.248V57.538z"/>
		<path fill="#3FB0BD" d="M118.757,52.721h1.289l2.349,8.817h-1.304l-0.516-1.994h-2.4l-0.502,1.994h-1.262L118.757,52.721z
			 M118.419,58.487h1.939l-0.367-1.465c-0.188-0.732-0.434-1.859-0.582-2.836c-0.164,0.977-0.422,2.104-0.611,2.836L118.419,58.487z
			"/>
		<path fill="#3FB0BD" d="M123.368,52.721h2.115c1.67,0,2.66,0.704,2.66,2.809c0,2.049-1.031,2.809-2.66,2.809h-0.867v3.201h-1.248
			V52.721z M124.616,53.78v3.514h0.732c0.977,0,1.506-0.354,1.506-1.764s-0.529-1.75-1.506-1.75H124.616z"/>
		<path fill="#3FB0BD" d="M129.593,52.721h2.115c1.67,0,2.66,0.704,2.66,2.809c0,2.049-1.031,2.809-2.66,2.809h-0.867v3.201h-1.248
			V52.721z M130.841,53.78v3.514h0.732c0.977,0,1.506-0.354,1.506-1.764s-0.529-1.75-1.506-1.75H130.841z"/>
		<path fill="#3FB0BD" d="M135.817,52.721h4.123v1.059h-2.875v2.699h2.32v1.045h-2.32v2.957h2.875v1.059h-4.123V52.721z"/>
		<path fill="#3FB0BD" d="M141.581,52.721h1.438l2.78,7.026c-0.096-0.719-0.176-1.561-0.176-2.348v-4.681h1.193v8.818h-1.438
			l-2.809-7.055c0.106,0.719,0.203,1.574,0.203,2.375v4.68h-1.193L141.581,52.721L141.581,52.721z"/>
	</g>
	<g>
		<path fill="#3FB0BD" d="M67.267,40.28h3.987v1.059h-2.739v2.699h2.197v1.045h-2.197v4.017h-1.248V40.28z"/>
		<path fill="#3FB0BD" d="M73.465,40.28h1.289l2.348,8.818h-1.303l-0.516-1.994h-2.401l-0.502,1.994h-1.262L73.465,40.28z
			 M73.126,46.045h1.939l-0.366-1.465c-0.189-0.731-0.434-1.858-0.583-2.836c-0.163,0.978-0.421,2.104-0.61,2.836L73.126,46.045z"/>
		<path fill="#3FB0BD" d="M77.736,44.69c0-3.297,0.719-4.572,2.862-4.572c0.65,0,1.234,0.162,1.52,0.326v1.152
			c-0.325-0.177-0.896-0.354-1.438-0.354c-1.288,0-1.654,0.584-1.654,3.447c0,2.889,0.393,3.459,1.654,3.459
			c0.557,0,1.193-0.191,1.52-0.381v1.151c-0.285,0.164-0.963,0.34-1.573,0.34C78.307,49.274,77.736,47.985,77.736,44.69z"/>
		<path fill="#3FB0BD" d="M83.413,46.438V40.28h1.248v6.213c0,1.303,0.447,1.682,1.356,1.682c0.908,0,1.355-0.379,1.355-1.682V40.28
			h1.248v6.158c0,2.008-0.841,2.821-2.604,2.821C84.228,49.26,83.413,48.473,83.413,46.438z"/>
		<path fill="#3FB0BD" d="M90.52,40.28h1.248v7.76h2.739v1.06H90.52V40.28z"/>
		<path fill="#3FB0BD" d="M94.073,40.28h5.059v1.059H97.22v7.761h-1.248v-7.761h-1.898L94.073,40.28L94.073,40.28z"/>
		<path fill="#3FB0BD" d="M100.176,40.28h4.124v1.059h-2.876v2.699h2.319v1.045h-2.319v2.957h2.876v1.06h-4.124V40.28z"/>
		<path fill="#3FB0BD" d="M105.939,40.28h1.248v8.818h-1.248V40.28z"/>
		<path fill="#3FB0BD" d="M108.231,40.28h5.059v1.059h-1.912v7.761h-1.248v-7.761h-1.897L108.231,40.28L108.231,40.28z"/>
	</g>
	<path fill="#3FB0BD" d="M101.872,53.629c0.551-0.002,1.07,0.179,1.31,0.365v-1.123c-0.238-0.146-0.824-0.311-1.418-0.311
		c-1.654,0-2.566,0.94-2.566,2.307c0,1.139,0.482,1.686,1.26,2.355l0.709,0.612c0.586,0.49,0.949,0.869,0.949,1.603
		c0,0.856-0.566,1.196-1.416,1.196c-0.645,0-1.18-0.178-1.488-0.391v1.143c0.271,0.156,0.836,0.318,1.601,0.316
		c1.649-0.004,2.563-0.943,2.563-2.307c0.001-1.14-0.481-1.687-1.26-2.355l-0.709-0.613c-0.588-0.504-0.951-0.866-0.949-1.6
		C100.458,53.967,101.021,53.631,101.872,53.629z"/>
	<polygon fill="#3FB0BD" points="49.675,61.54 60.263,61.54 59.016,60.293 50.922,60.293 	"/>
	<rect x="56.778" y="52.196" fill="#3FB0BD" width="6.236" height="1.246"/>
	
		<rect x="56.38" y="45.664" transform="matrix(0.7067 0.7075 -0.7075 0.7067 50.3485 -26.389)" fill="#3FB0BD" width="1.248" height="3.739"/>
	
		<rect x="50.994" y="42.403" transform="matrix(0.7072 0.707 -0.707 0.7072 46.3075 -25.7606)" fill="#3FB0BD" width="6.519" height="1.246"/>
	
		<rect x="49.232" y="44.164" transform="matrix(0.7073 0.707 -0.707 0.7073 47.0293 -23.998)" fill="#3FB0BD" width="6.519" height="1.246"/>
	<path fill="#3FB0BD" d="M60.551,54.688c-1.16,1.864-3.224,3.109-5.581,3.109c-3.633,0-6.576-2.943-6.576-6.576
		c0-2.152,1.043-4.053,2.642-5.252l-0.886-0.887c-1.822,1.434-3.002,3.643-3.002,6.139c0,4.32,3.503,7.823,7.824,7.823
		c3.074,0,5.728-1.776,7.006-4.356H60.551z"/>
	<path fill="#3FB0BD" d="M57.103,54.688c-0.623,0.383-1.35,0.614-2.133,0.614c-2.255,0-4.082-1.825-4.082-4.08
		c0-1.468,0.789-2.729,1.95-3.448l-0.906-0.906c-1.379,0.963-2.292,2.545-2.292,4.354c0,2.942,2.386,5.328,5.329,5.328
		c1.612,0,3.04-0.73,4.018-1.862H57.103z"/>
</g>
</svg>
