<?xml version="1.0" encoding="utf-8"?>
<!-- Generator: Adobe Illustrator 16.0.0, SVG Export Plug-In . SVG Version: 6.00 Build 0)  -->
<!DOCTYPE svg PUBLIC "-//W3C//DTD SVG 1.1//EN" "http://www.w3.org/Graphics/SVG/1.1/DTD/svg11.dtd">
<svg version="1.1" id="logo" xmlns="http://www.w3.org/2000/svg" xmlns:xlink="http://www.w3.org/1999/xlink" x="0px" y="0px"
	 width="171.464px" height="21.585px" viewBox="47.146 40.117 171.464 21.585"
	 enable-background="new 47.146 40.117 171.464 21.585" xml:space="preserve">
<g>
	<g>
		<path fill="#F9596A" d="M72.335,57.131c0-3.473,0.922-4.57,3.215-4.57c0.65,0,1.344,0.176,1.642,0.352v1.153
			c-0.324-0.189-0.949-0.395-1.546-0.395c-1.465,0-2.021,0.543-2.021,3.46c0,2.89,0.394,3.485,1.668,3.485
			c0.395,0,0.72-0.054,0.963-0.122v-2.943h-1.303v-1.058h2.551v4.761c-0.258,0.163-1.289,0.448-2.196,0.448
			C72.918,61.702,72.335,60.454,72.335,57.131z"/>
		<path fill="#F9596A" d="M79.347,52.722h4.123v1.059h-2.875v2.699h2.318v1.044h-2.318v2.958h2.875v1.058h-4.123V52.722z"/>
		<path fill="#F9596A" d="M84.404,60.671l3.038-6.891h-2.971v-1.059h4.354v0.882l-3.039,6.878h3.106v1.058h-4.49L84.404,60.671
			L84.404,60.671z"/>
		<path fill="#F9596A" d="M89.952,57.131c0-3.648,0.867-4.57,2.699-4.57c1.885,0,2.713,0.881,2.713,4.57
			c0,3.662-0.869,4.571-2.713,4.571C90.778,61.702,89.952,60.834,89.952,57.131z M94.075,57.131c0-2.768-0.285-3.485-1.424-3.485
			c-1.142,0-1.411,0.719-1.411,3.485c0,2.768,0.271,3.485,1.411,3.485C93.79,60.616,94.075,59.897,94.075,57.131z"/>
		<path fill="#F9596A" d="M96.989,52.722h1.438l2.779,7.025c-0.094-0.719-0.176-1.56-0.176-2.347v-4.68h1.193v8.816h-1.438
			l-2.809-7.054c0.108,0.719,0.204,1.573,0.204,2.374v4.68h-1.194v-8.815H96.989z"/>
		<path fill="#F9596A" d="M104.19,52.722h2.307c2.308,0,2.85,1.233,2.85,4.408c0,3.134-0.557,4.408-2.85,4.408h-2.307V52.722z
			 M105.438,53.753v6.755h0.963c1.274,0,1.656-0.583,1.656-3.377c0-2.795-0.382-3.378-1.656-3.378H105.438z"/>
		<path fill="#F9596A" d="M114.905,57.537h-2.686v4.002h-1.248v-8.816h1.248v3.758h2.686v-3.758h1.248v8.816h-1.248V57.537z"/>
		<path fill="#F9596A" d="M118.118,52.722h4.125v1.059h-2.877v2.699h2.32v1.044h-2.32v2.958h2.877v1.058h-4.125V52.722z"/>
		<path fill="#F9596A" d="M123.882,52.722h1.248v8.816h-1.248V52.722z"/>
		<path fill="#F9596A" d="M127.097,52.722h2.306c2.306,0,2.849,1.233,2.849,4.408c0,3.134-0.557,4.408-2.849,4.408h-2.306V52.722z
			 M128.345,53.753v6.755h0.963c1.274,0,1.653-0.583,1.653-3.377c0-2.795-0.379-3.378-1.653-3.378H128.345z"/>
		<path fill="#F9596A" d="M138.331,52.722h1.248l0.719,4.341c0.122,0.705,0.271,2.089,0.354,3.146
			c0.082-1.059,0.229-2.429,0.354-3.146l0.732-4.341h1.275l0.731,4.341c0.121,0.705,0.258,2.075,0.338,3.12
			c0.082-1.045,0.244-2.415,0.367-3.12l0.719-4.341h1.207l-1.682,8.816h-1.289l-0.719-4.341c-0.108-0.651-0.259-1.886-0.34-2.903
			c-0.08,1.019-0.218,2.252-0.324,2.903l-0.732,4.341h-1.274L138.331,52.722z"/>
		<path fill="#F9596A" d="M147.594,52.722h4.123v1.059h-2.876v2.699h2.32v1.044h-2.32v2.958h2.876v1.058h-4.123V52.722z"/>
		<path fill="#F9596A" d="M152.448,52.722h5.059v1.059h-1.911v7.759h-1.248v-7.76h-1.898L152.448,52.722L152.448,52.722z"/>
		<path fill="#F9596A" d="M158.552,52.722h4.122v1.059H159.8v2.699h2.318v1.044H159.8v2.958h2.875v1.058h-4.122V52.722z"/>
		<path fill="#F9596A" d="M164.315,52.722h1.438l2.781,7.025c-0.096-0.719-0.178-1.56-0.178-2.347v-4.68h1.195v8.816h-1.439
			l-2.807-7.054c0.106,0.719,0.202,1.573,0.202,2.374v4.68h-1.192V52.722L164.315,52.722z"/>
		<path fill="#F9596A" d="M176.304,57.131c0-3.297,0.719-4.57,2.86-4.57c0.652,0,1.234,0.162,1.521,0.324v1.152
			c-0.326-0.176-0.896-0.353-1.438-0.353c-1.289,0-1.654,0.584-1.654,3.445c0,2.89,0.394,3.459,1.654,3.459
			c0.558,0,1.193-0.189,1.521-0.38v1.152c-0.285,0.163-0.963,0.34-1.574,0.34C176.872,61.716,176.304,60.427,176.304,57.131z"/>
		<path fill="#F9596A" d="M185.982,57.537h-2.688v4.002h-1.248v-8.816h1.248v3.758h2.688v-3.758h1.248v8.816h-1.248V57.537z"/>
		<path fill="#F9596A" d="M190.55,52.722h1.289l2.349,8.816h-1.304l-0.516-1.994h-2.399l-0.502,1.994h-1.262L190.55,52.722z
			 M190.212,58.487h1.939l-0.367-1.466c-0.188-0.732-0.434-1.858-0.582-2.835c-0.164,0.977-0.421,2.103-0.611,2.835L190.212,58.487z
			"/>
		<path fill="#F9596A" d="M195.161,52.722h2.116c1.669,0,2.659,0.704,2.659,2.808c0,2.049-1.031,2.809-2.659,2.809h-0.868v3.201
			h-1.248V52.722z M196.409,53.78v3.513h0.732c0.977,0,1.506-0.353,1.506-1.764c0-1.41-0.529-1.749-1.506-1.749H196.409z"/>
		<path fill="#F9596A" d="M201.386,52.722h2.115c1.669,0,2.659,0.704,2.659,2.808c0,2.049-1.031,2.809-2.659,2.809h-0.868v3.201
			h-1.247V52.722z M202.634,53.78v3.513h0.732c0.977,0,1.506-0.353,1.506-1.764c0-1.41-0.529-1.749-1.506-1.749H202.634z"/>
		<path fill="#F9596A" d="M207.61,52.722h4.124v1.059h-2.876v2.699h2.32v1.044h-2.32v2.958h2.876v1.058h-4.124V52.722z"/>
		<path fill="#F9596A" d="M213.374,52.722h1.438l2.78,7.025c-0.095-0.719-0.176-1.56-0.176-2.347v-4.68h1.193v8.816h-1.438
			l-2.809-7.054c0.108,0.719,0.203,1.573,0.203,2.374v4.68h-1.193L213.374,52.722L213.374,52.722z"/>
	</g>
	<g>
		<path fill="#F9596A" d="M72.657,40.279h3.988v1.059h-2.74v2.699h2.198v1.044h-2.198v4.017h-1.248V40.279z"/>
		<path fill="#F9596A" d="M78.855,40.279h1.289l2.347,8.817h-1.302l-0.517-1.994h-2.4l-0.502,1.994h-1.263L78.855,40.279z
			 M78.517,46.045h1.938l-0.366-1.466c-0.188-0.731-0.434-1.857-0.583-2.835c-0.162,0.978-0.421,2.104-0.609,2.835L78.517,46.045z"
			/>
		<path fill="#F9596A" d="M83.127,44.688c0-3.297,0.72-4.571,2.862-4.571c0.651,0,1.235,0.162,1.52,0.325v1.151
			c-0.324-0.176-0.896-0.353-1.438-0.353c-1.288,0-1.654,0.584-1.654,3.446c0,2.889,0.394,3.459,1.654,3.459
			c0.557,0,1.194-0.19,1.52-0.38v1.151c-0.284,0.163-0.963,0.34-1.572,0.34C83.697,49.273,83.127,47.984,83.127,44.688z"/>
		<path fill="#F9596A" d="M88.804,46.438V40.28h1.248v6.213c0,1.303,0.446,1.682,1.355,1.682s1.356-0.379,1.356-1.682V40.28h1.248
			v6.158c0,2.008-0.842,2.821-2.604,2.821C89.618,49.26,88.804,48.473,88.804,46.438z"/>
		<path fill="#F9596A" d="M95.91,40.279h1.248v7.76h2.74v1.059H95.91V40.279z"/>
		<path fill="#F9596A" d="M99.464,40.279h5.06v1.059h-1.912v7.76h-1.248v-7.76h-1.898L99.464,40.279L99.464,40.279z"/>
		<path fill="#F9596A" d="M105.566,40.279h4.124v1.059h-2.876v2.699h2.318v1.044h-2.318v2.958h2.876v1.059h-4.124V40.279z"/>
		<path fill="#F9596A" d="M111.33,40.279h1.248v8.817h-1.248V40.279z"/>
		<path fill="#F9596A" d="M113.622,40.279h5.06v1.059h-1.912v7.76h-1.248v-7.76h-1.898L113.622,40.279L113.622,40.279z"/>
		<path fill="#F9596A" d="M121.776,44.688c0-3.474,0.923-4.571,3.215-4.571c0.651,0,1.344,0.176,1.642,0.352v1.153
			c-0.324-0.188-0.948-0.394-1.546-0.394c-1.465,0-2.021,0.543-2.021,3.46c0,2.889,0.393,3.484,1.668,3.484
			c0.395,0,0.719-0.054,0.963-0.122v-2.942h-1.302V44.05h2.55v4.762c-0.258,0.163-1.288,0.447-2.197,0.447
			C122.36,49.26,121.776,48.012,121.776,44.688z"/>
		<path fill="#F9596A" d="M128.788,40.279h4.124v1.059h-2.876v2.699h2.32v1.044h-2.32v2.958h2.876v1.059h-4.124V40.279z"/>
		<path fill="#F9596A" d="M134.552,40.279h1.438l2.781,7.026c-0.096-0.72-0.176-1.561-0.176-2.348v-4.68h1.192v8.816h-1.438
			l-2.81-7.054c0.108,0.719,0.203,1.573,0.203,2.374v4.68h-1.193v-8.815H134.552z"/>
		<path fill="#F9596A" d="M141.753,40.279h4.124v1.059h-2.876v2.699h2.32v1.044h-2.32v2.958h2.876v1.059h-4.124V40.279z"/>
		<path fill="#F9596A" d="M147.517,40.279h4.124v1.059h-2.876v2.699h2.319v1.044h-2.319v2.958h2.876v1.059h-4.124V40.279z"/>
		<path fill="#F9596A" d="M158.203,40.279h1.248v4.002l2.563-4.002h1.396l-2.78,4.3l2.984,4.519h-1.506l-2.659-4.139v4.139h-1.248
			L158.203,40.279L158.203,40.279z"/>
		<path fill="#F9596A" d="M164.442,46.438V40.28h1.248v6.213c0,1.303,0.447,1.682,1.354,1.682c0.91,0,1.357-0.379,1.357-1.682V40.28
			h1.248v6.158c0,2.008-0.842,2.821-2.605,2.821C165.256,49.26,164.442,48.473,164.442,46.438z"/>
		<path fill="#F9596A" d="M171.548,40.279h1.438l2.78,7.026c-0.095-0.72-0.177-1.561-0.177-2.348v-4.68h1.193v8.816h-1.438
			l-2.81-7.054c0.109,0.719,0.204,1.573,0.204,2.374v4.68h-1.194v-8.815H171.548z"/>
		<path fill="#F9596A" d="M178.749,40.279h2.308c2.307,0,2.849,1.234,2.849,4.409c0,3.133-0.556,4.408-2.849,4.408h-2.308V40.279z
			 M179.997,41.311v6.755h0.963c1.275,0,1.656-0.583,1.656-3.377c0-2.795-0.381-3.378-1.656-3.378H179.997L179.997,41.311z"/>
		<path fill="#F9596A" d="M185.53,40.279h4.124v1.059h-2.876v2.699h2.32v1.044h-2.32v2.958h2.876v1.059h-4.124V40.279z"/>
		<path fill="#F9596A" d="M194.091,40.279h4.125v1.059h-2.877v2.699h2.32v1.044h-2.32v2.958h2.877v1.059h-4.125V40.279z"/>
		<path fill="#F9596A" d="M199.854,40.279h1.438l2.78,7.026c-0.094-0.72-0.176-1.561-0.176-2.348v-4.68h1.192v8.816h-1.438
			l-2.81-7.054c0.109,0.719,0.204,1.573,0.204,2.374v4.68h-1.193v-8.815H199.854z"/>
	</g>
	<path fill="#F9596A" d="M155.228,41.187c0.551-0.002,1.069,0.18,1.309,0.367v-1.125c-0.238-0.146-0.824-0.31-1.418-0.31
		c-1.655,0-2.565,0.941-2.565,2.307c0,1.14,0.481,1.687,1.259,2.355l0.71,0.613c0.586,0.489,0.949,0.867,0.949,1.602
		c0,0.857-0.566,1.197-1.417,1.197c-0.646,0-1.181-0.18-1.488-0.394v1.146c0.271,0.156,0.837,0.316,1.6,0.313
		c1.651-0.004,2.563-0.94,2.564-2.307c0.001-1.137-0.482-1.686-1.259-2.354l-0.709-0.615c-0.589-0.502-0.952-0.865-0.95-1.599
		C153.813,41.526,154.375,41.188,155.228,41.187z"/>
	<path fill="#F9596A" d="M136.095,53.629c0.551-0.002,1.069,0.181,1.309,0.367v-1.125c-0.238-0.146-0.824-0.309-1.418-0.309
		c-1.655,0-2.566,0.94-2.566,2.307c0,1.139,0.482,1.687,1.26,2.355l0.71,0.612c0.586,0.49,0.948,0.867,0.948,1.603
		c0,0.856-0.565,1.196-1.417,1.196c-0.645,0-1.18-0.18-1.487-0.393v1.146c0.271,0.155,0.837,0.315,1.6,0.313
		c1.651-0.004,2.563-0.941,2.564-2.307c0.001-1.138-0.482-1.687-1.26-2.354l-0.709-0.615c-0.588-0.502-0.951-0.864-0.949-1.598
		C134.681,53.969,135.242,53.631,136.095,53.629z"/>
	<path fill="#F9596A" d="M173.667,53.629c0.551-0.002,1.07,0.181,1.31,0.367v-1.125c-0.238-0.146-0.824-0.309-1.418-0.309
		c-1.656,0-2.566,0.94-2.566,2.307c0,1.139,0.482,1.687,1.258,2.355l0.711,0.612c0.586,0.49,0.949,0.867,0.949,1.603
		c0,0.856-0.565,1.196-1.418,1.196c-0.645,0-1.18-0.18-1.488-0.393v1.146c0.271,0.155,0.838,0.315,1.601,0.313
		c1.651-0.004,2.563-0.941,2.563-2.307c0.002-1.138-0.481-1.687-1.258-2.354l-0.709-0.615c-0.588-0.502-0.953-0.864-0.951-1.598
		C172.252,53.969,172.813,53.631,173.667,53.629z"/>
	<g>
		<polygon fill="#F9596A" points="64.582,51.547 64.824,52.795 68.405,52.795 68.405,51.547 		"/>
	</g>
	<g>
		<polygon fill="#F9596A" points="50.224,55.288 47.146,55.288 47.146,56.536 50.466,56.536 		"/>
	</g>
	<g>
		<polygon fill="#F9596A" points="56.826,40.279 53.341,58.26 52.282,52.794 47.146,52.794 47.146,54.042 51.253,54.042 
			52.706,61.539 53.977,61.539 58.097,40.279 		"/>
	</g>
	<g>
		<polygon fill="#F9596A" points="63.795,54.041 61.128,40.279 59.366,40.279 55.246,61.539 56.516,61.539 60.247,42.289 
			62.767,55.289 68.405,55.289 68.405,54.041 		"/>
	</g>
</g>
</svg>
