<?xml version="1.0" encoding="utf-8"?>
<!-- Generator: Adobe Illustrator 16.0.0, SVG Export Plug-In . SVG Version: 6.00 Build 0)  -->
<!DOCTYPE svg PUBLIC "-//W3C//DTD SVG 1.1//EN" "http://www.w3.org/Graphics/SVG/1.1/DTD/svg11.dtd">
<svg version="1.1" id="logo" xmlns="http://www.w3.org/2000/svg" xmlns:xlink="http://www.w3.org/1999/xlink" x="0px" y="0px"
	 width="207.995px" height="21.585px" viewBox="47.145 40.117 207.995 21.585"
	 enable-background="new 47.145 40.117 207.995 21.585" xml:space="preserve">
<g>
	<g>
		<path fill="#6185BD" d="M68.405,52.722h4.124v1.059h-2.876v2.699h2.319v1.043h-2.319v2.959h2.876v1.057h-4.124V52.722z"/>
		<path fill="#6185BD" d="M74.169,52.722h1.438l2.78,7.024c-0.096-0.719-0.178-1.559-0.178-2.346v-4.68h1.194v8.815h-1.438
			l-2.808-7.053c0.108,0.719,0.204,1.572,0.204,2.373v4.68h-1.194L74.169,52.722L74.169,52.722z"/>
		<path fill="#6185BD" d="M85.305,52.722h1.289l2.346,8.815h-1.302l-0.517-1.994h-2.4l-0.502,1.994h-1.263L85.305,52.722z
			 M84.965,58.488h1.939l-0.365-1.467c-0.189-0.732-0.435-1.857-0.584-2.834c-0.162,0.977-0.42,2.102-0.608,2.834L84.965,58.488z"/>
		<path fill="#6185BD" d="M89.915,52.722h2.034c1.629,0,2.795,0.608,2.795,2.604c0,1.398-0.678,2.076-1.533,2.389l1.873,3.824
			h-1.425l-1.655-3.594h-0.841v3.594h-1.248V52.722z M91.163,53.781v3.104h0.665c0.978,0,1.627-0.202,1.627-1.561
			c0-1.342-0.649-1.545-1.627-1.545L91.163,53.781L91.163,53.781z"/>
		<path fill="#6185BD" d="M96.031,57.13c0-3.297,0.719-4.57,2.862-4.57c0.65,0,1.234,0.163,1.52,0.324v1.152
			c-0.325-0.176-0.896-0.352-1.438-0.352c-1.288,0-1.654,0.584-1.654,3.444c0,2.89,0.393,3.459,1.654,3.459
			c0.557,0,1.193-0.188,1.52-0.379v1.152c-0.285,0.162-0.963,0.34-1.573,0.34C96.602,61.716,96.031,60.427,96.031,57.13z"/>
		<path fill="#6185BD" d="M105.852,57.537h-2.687v4.002h-1.248v-8.815h1.248v3.758h2.687v-3.758h1.248v8.815h-1.248V57.537z"/>
		<path fill="#6185BD" d="M109.064,52.722h1.248v8.815h-1.248V52.722z"/>
		<path fill="#6185BD" d="M111.355,52.722h5.061v1.059h-1.913v7.758h-1.248v-7.758h-1.898L111.355,52.722L111.355,52.722z"/>
		<path fill="#6185BD" d="M117.459,52.722h4.124v1.059h-2.876v2.699h2.32v1.043h-2.32v2.959h2.876v1.057h-4.124V52.722z"/>
		<path fill="#6185BD" d="M122.68,57.13c0-3.297,0.719-4.57,2.861-4.57c0.651,0,1.235,0.163,1.521,0.324v1.152
			c-0.325-0.176-0.896-0.352-1.438-0.352c-1.288,0-1.653,0.584-1.653,3.444c0,2.89,0.393,3.459,1.653,3.459
			c0.558,0,1.194-0.188,1.521-0.379v1.152c-0.285,0.162-0.963,0.34-1.573,0.34C123.25,61.716,122.68,60.427,122.68,57.13z"/>
		<path fill="#6185BD" d="M127.656,52.722h5.059v1.059h-1.911v7.758h-1.248v-7.758h-1.898L127.656,52.722L127.656,52.722z"/>
		<path fill="#6185BD" d="M133.664,58.88v-6.157h1.248v6.213c0,1.303,0.447,1.682,1.355,1.682c0.91,0,1.356-0.379,1.356-1.682
			v-6.213h1.248v6.157c0,2.009-0.842,2.822-2.604,2.822C134.478,61.703,133.664,60.916,133.664,58.88z"/>
		<path fill="#6185BD" d="M140.702,58.88v-6.157h1.248v6.213c0,1.303,0.448,1.682,1.356,1.682s1.355-0.379,1.355-1.682v-6.213h1.248
			v6.157c0,2.009-0.841,2.822-2.604,2.822C141.516,61.703,140.702,60.916,140.702,58.88z"/>
		<path fill="#6185BD" d="M147.809,52.722h2.035c1.627,0,2.794,0.608,2.794,2.604c0,1.398-0.68,2.076-1.532,2.389l1.871,3.824
			h-1.424l-1.655-3.594h-0.841v3.594h-1.248V52.722L147.809,52.722z M149.057,53.781v3.104h0.664c0.978,0,1.629-0.202,1.629-1.561
			c0-1.342-0.651-1.545-1.629-1.545L149.057,53.781L149.057,53.781z"/>
	</g>
	<g>
		<path fill="#6185BD" d="M68.405,40.279h3.988v1.059h-2.74v2.699h2.198v1.045h-2.198v4.017h-1.248V40.279z"/>
		<path fill="#6185BD" d="M74.604,40.279h1.289l2.347,8.818h-1.302l-0.517-1.994h-2.4l-0.502,1.994h-1.263L74.604,40.279z
			 M74.265,46.044h1.938l-0.366-1.465c-0.188-0.731-0.434-1.859-0.583-2.836c-0.163,0.977-0.421,2.104-0.609,2.836L74.265,46.044z"
			/>
		<path fill="#6185BD" d="M78.875,44.689c0-3.297,0.72-4.572,2.862-4.572c0.651,0,1.235,0.162,1.52,0.326v1.151
			c-0.324-0.176-0.896-0.354-1.438-0.354c-1.288,0-1.654,0.584-1.654,3.447c0,2.889,0.394,3.459,1.654,3.459
			c0.557,0,1.194-0.191,1.52-0.381v1.151c-0.284,0.164-0.963,0.34-1.572,0.34C79.445,49.273,78.875,47.984,78.875,44.689z"/>
		<path fill="#6185BD" d="M84.552,46.437v-6.158H85.8v6.213c0,1.303,0.447,1.682,1.356,1.682s1.356-0.379,1.356-1.682v-6.213h1.248
			v6.158c0,2.008-0.842,2.821-2.604,2.821C85.366,49.259,84.552,48.472,84.552,46.437z"/>
		<path fill="#6185BD" d="M91.658,40.279h1.248v7.76h2.74v1.06h-3.988V40.279z"/>
		<path fill="#6185BD" d="M95.212,40.279h5.06v1.059h-1.912v7.761H97.11v-7.761h-1.898V40.279z"/>
		<path fill="#6185BD" d="M101.314,40.279h4.124v1.059h-2.876v2.699h2.318v1.045h-2.318v2.957h2.876v1.06h-4.124V40.279z"/>
		<path fill="#6185BD" d="M107.078,40.279h1.248v8.818h-1.248V40.279z"/>
		<path fill="#6185BD" d="M109.37,40.279h5.06v1.059h-1.912v7.761h-1.248v-7.761h-1.898L109.37,40.279L109.37,40.279z"/>
		<path fill="#6185BD" d="M117.864,40.279h1.248v8.818h-1.248V40.279z"/>
		<path fill="#6185BD" d="M121.077,40.279h1.438l2.779,7.027c-0.094-0.72-0.176-1.562-0.176-2.349v-4.68h1.193v8.818h-1.438
			l-2.809-7.056c0.108,0.719,0.204,1.574,0.204,2.375v4.681h-1.194v-8.817H121.077z"/>
		<path fill="#6185BD" d="M127.94,44.689c0-3.474,0.922-4.572,3.215-4.572c0.65,0,1.342,0.176,1.641,0.353v1.153
			c-0.324-0.188-0.948-0.395-1.547-0.395c-1.465,0-2.021,0.543-2.021,3.461c0,2.889,0.394,3.483,1.669,3.483
			c0.393,0,0.719-0.053,0.963-0.121v-2.942h-1.303v-1.06h2.551v4.763c-0.258,0.162-1.289,0.446-2.197,0.446
			C128.522,49.259,127.94,48.01,127.94,44.689z"/>
		<path fill="#6185BD" d="M134.951,40.279h4.124v1.059h-2.876v2.699h2.319v1.045h-2.319v2.957h2.876v1.06h-4.124V40.279z"/>
		<path fill="#6185BD" d="M140.715,40.279h1.438l2.78,7.027c-0.096-0.72-0.178-1.562-0.178-2.349v-4.68h1.194v8.818h-1.438
			l-2.809-7.056c0.108,0.719,0.204,1.574,0.204,2.375v4.681h-1.194L140.715,40.279L140.715,40.279z"/>
		<path fill="#6185BD" d="M147.916,40.279h1.248v8.818h-1.248V40.279z"/>
		<path fill="#6185BD" d="M151.13,40.279h4.124v1.059h-2.876v2.699h2.32v1.045h-2.32v2.957h2.876v1.06h-4.124V40.279z"/>
		<path fill="#6185BD" d="M156.758,46.437v-6.158h1.248v6.213c0,1.303,0.448,1.682,1.356,1.682c0.909,0,1.355-0.379,1.355-1.682
			v-6.213h1.248v6.158c0,2.008-0.841,2.821-2.604,2.821C157.571,49.259,156.758,48.472,156.758,46.437z"/>
		<path fill="#6185BD" d="M163.864,40.279h2.035c1.627,0,2.794,0.611,2.794,2.604c0,1.396-0.679,2.074-1.532,2.388l1.871,3.826
			h-1.424l-1.655-3.597h-0.841v3.597h-1.248V40.279L163.864,40.279z M165.112,41.337v3.107h0.664c0.978,0,1.629-0.205,1.629-1.562
			c0-1.344-0.651-1.547-1.629-1.547L165.112,41.337L165.112,41.337z"/>
		<path fill="#6185BD" d="M174.861,40.279h1.248l0.719,4.342c0.122,0.705,0.271,2.088,0.354,3.146
			c0.082-1.06,0.229-2.429,0.354-3.146l0.732-4.342h1.274l0.732,4.342c0.121,0.705,0.258,2.074,0.338,3.119
			c0.082-1.045,0.244-2.414,0.367-3.119l0.719-4.342h1.207l-1.682,8.818h-1.289l-0.72-4.343c-0.107-0.649-0.258-1.885-0.34-2.901
			c-0.08,1.018-0.217,2.252-0.324,2.901l-0.731,4.343h-1.275L174.861,40.279z"/>
		<path fill="#6185BD" d="M184.124,40.279h4.124v1.059h-2.876v2.699h2.32v1.045h-2.32v2.957h2.876v1.06h-4.124V40.279z"/>
		<path fill="#6185BD" d="M188.978,40.279h5.06v1.059h-1.913v7.761h-1.248v-7.761h-1.897L188.978,40.279L188.978,40.279z"/>
		<path fill="#6185BD" d="M195.081,40.279h4.123v1.059h-2.875v2.699h2.319v1.045h-2.319v2.957h2.875v1.06h-4.123V40.279z"/>
		<path fill="#6185BD" d="M200.845,40.279h1.438l2.781,7.027c-0.096-0.72-0.177-1.562-0.177-2.349v-4.68h1.193v8.818h-1.438
			l-2.809-7.056c0.107,0.719,0.203,1.574,0.203,2.375v4.681h-1.192V40.279L200.845,40.279z"/>
		<path fill="#6185BD" d="M212.833,44.689c0-3.297,0.719-4.572,2.861-4.572c0.652,0,1.235,0.162,1.52,0.326v1.151
			c-0.324-0.176-0.895-0.354-1.438-0.354c-1.289,0-1.654,0.584-1.654,3.447c0,2.889,0.394,3.459,1.654,3.459
			c0.557,0,1.193-0.191,1.52-0.381v1.151c-0.284,0.164-0.963,0.34-1.573,0.34C213.402,49.273,212.833,47.984,212.833,44.689z"/>
		<path fill="#6185BD" d="M222.512,45.094h-2.688v4.003h-1.248v-8.818h1.248v3.758h2.688v-3.758h1.247v8.818h-1.247V45.094z"/>
		<path fill="#6185BD" d="M227.08,40.279h1.289l2.348,8.818h-1.303l-0.516-1.994h-2.4l-0.502,1.994h-1.262L227.08,40.279z
			 M226.742,46.044h1.939l-0.367-1.465c-0.189-0.731-0.435-1.859-0.582-2.836c-0.164,0.977-0.421,2.104-0.611,2.836L226.742,46.044z
			"/>
		<path fill="#6185BD" d="M231.691,40.279h2.116c1.669,0,2.658,0.705,2.658,2.809c0,2.05-1.03,2.81-2.658,2.81h-0.868v3.201h-1.248
			V40.279z M232.939,41.337v3.515h0.731c0.978,0,1.506-0.354,1.506-1.765s-0.528-1.75-1.506-1.75H232.939z"/>
		<path fill="#6185BD" d="M237.916,40.279h2.116c1.669,0,2.659,0.705,2.659,2.809c0,2.05-1.031,2.81-2.659,2.81h-0.868v3.201h-1.248
			V40.279z M239.164,41.337v3.515h0.732c0.977,0,1.506-0.354,1.506-1.765s-0.529-1.75-1.506-1.75H239.164z"/>
		<path fill="#6185BD" d="M244.141,40.279h4.124v1.059h-2.876v2.699h2.319v1.045h-2.319v2.957h2.876v1.06h-4.124V40.279z"/>
		<path fill="#6185BD" d="M249.904,40.279h1.438l2.781,7.027c-0.095-0.72-0.176-1.562-0.176-2.349v-4.68h1.193v8.818h-1.438
			l-2.809-7.056c0.107,0.719,0.203,1.574,0.203,2.375v4.681h-1.193L249.904,40.279L249.904,40.279z"/>
	</g>
	<path fill="#6185BD" d="M172.625,41.187c0.551-0.002,1.07,0.178,1.31,0.364v-1.122c-0.238-0.146-0.824-0.312-1.418-0.312
		c-1.655,0-2.566,0.941-2.566,2.307c0,1.14,0.482,1.687,1.259,2.355l0.71,0.613c0.586,0.489,0.949,0.869,0.949,1.602
		c0,0.857-0.565,1.197-1.417,1.197c-0.645,0-1.18-0.178-1.488-0.392v1.144c0.271,0.156,0.837,0.318,1.601,0.315
		c1.65-0.004,2.563-0.942,2.563-2.307c0.002-1.139-0.481-1.686-1.259-2.354l-0.709-0.613c-0.588-0.504-0.952-0.867-0.95-1.601
		C171.21,41.525,171.772,41.189,172.625,41.187z"/>
	<path fill="#6185BD" d="M210.196,41.187c0.551-0.002,1.07,0.178,1.309,0.364v-1.122c-0.237-0.146-0.823-0.312-1.418-0.312
		c-1.654,0-2.565,0.941-2.565,2.307c0,1.14,0.481,1.687,1.259,2.355l0.71,0.613c0.586,0.489,0.949,0.869,0.949,1.602
		c0,0.857-0.566,1.197-1.417,1.197c-0.646,0-1.181-0.178-1.488-0.392v1.144c0.271,0.156,0.837,0.318,1.6,0.315
		c1.651-0.004,2.563-0.942,2.564-2.307c0.001-1.139-0.482-1.686-1.259-2.354l-0.709-0.613c-0.588-0.504-0.952-0.867-0.95-1.601
		C208.782,41.525,209.344,41.189,210.196,41.187z"/>
	<rect x="47.145" y="57.854" fill="#6185BD" width="1.247" height="3.685"/>
	<rect x="49.639" y="53.318" fill="#6185BD" width="1.247" height="8.221"/>
	<rect x="52.133" y="48.783" fill="#6185BD" width="1.248" height="12.756"/>
	<polygon fill="#6185BD" points="55.472,40.279 54.628,40.279 54.628,61.539 55.876,61.539 55.876,42.45 62.903,49.477 
		62.903,61.539 64.151,61.539 64.151,48.959 	"/>
</g>
</svg>
