<?xml version="1.0" encoding="utf-8"?>
<!-- Generator: Adobe Illustrator 16.0.0, SVG Export Plug-In . SVG Version: 6.00 Build 0)  -->
<!DOCTYPE svg PUBLIC "-//W3C//DTD SVG 1.1//EN" "http://www.w3.org/Graphics/SVG/1.1/DTD/svg11.dtd">
<svg version="1.1" id="logo" xmlns="http://www.w3.org/2000/svg" xmlns:xlink="http://www.w3.org/1999/xlink" x="0px" y="0px"
	 width="145.1px" height="21.587px" viewBox="0 0 145.1 21.587" enable-background="new 0 0 145.1 21.587" xml:space="preserve">
<g>
	<g>
		<path fill="#E054A7" d="M14.747,12.605h1.248l0.719,4.341c0.122,0.705,0.271,2.089,0.353,3.147
			c0.082-1.059,0.23-2.429,0.354-3.147l0.732-4.341h1.275l0.732,4.341c0.121,0.705,0.258,2.075,0.338,3.12
			c0.082-1.045,0.244-2.415,0.367-3.12l0.719-4.341h1.207l-1.682,8.817H19.82l-0.719-4.341c-0.108-0.651-0.258-1.886-0.34-2.903
			c-0.08,1.018-0.217,2.252-0.324,2.903l-0.732,4.341H16.43L14.747,12.605z"/>
		<path fill="#E054A7" d="M24.01,12.605h4.124v1.059h-2.876v2.699h2.32v1.044h-2.32v2.958h2.876v1.058H24.01V12.605z"/>
		<path fill="#E054A7" d="M28.864,12.605h5.06v1.059H32.01v7.759h-1.248v-7.759h-1.898V12.605z"/>
		<path fill="#E054A7" d="M34.967,12.605h4.123v1.059h-2.875v2.699h2.319v1.044h-2.319v2.958h2.875v1.058h-4.123V12.605z"/>
		<path fill="#E054A7" d="M40.731,12.605h1.438l2.781,7.026c-0.096-0.719-0.177-1.56-0.177-2.347v-4.68h1.194v8.817h-1.438
			l-2.808-7.054c0.107,0.719,0.203,1.573,0.203,2.374v4.68h-1.193V12.605z"/>
		<path fill="#E054A7" d="M52.719,17.015c0-3.297,0.719-4.572,2.861-4.572c0.652,0,1.235,0.163,1.52,0.326v1.152
			c-0.325-0.176-0.895-0.353-1.438-0.353c-1.289,0-1.654,0.584-1.654,3.446c0,2.889,0.393,3.459,1.654,3.459
			c0.557,0,1.193-0.19,1.52-0.38v1.152c-0.285,0.163-0.963,0.34-1.574,0.34C53.289,21.6,52.719,20.311,52.719,17.015z"/>
		<path fill="#E054A7" d="M62.398,17.421h-2.687v4.002h-1.248v-8.817h1.248v3.758h2.687v-3.758h1.248v8.817h-1.248V17.421z"/>
		<path fill="#E054A7" d="M66.967,12.605h1.289l2.348,8.817h-1.303l-0.516-1.994h-2.4l-0.502,1.994h-1.262L66.967,12.605z
			 M66.629,18.371h1.939l-0.367-1.466c-0.189-0.732-0.434-1.858-0.582-2.835c-0.164,0.977-0.422,2.103-0.611,2.835L66.629,18.371z"
			/>
		<path fill="#E054A7" d="M71.578,12.605h2.115c1.67,0,2.66,0.705,2.66,2.808c0,2.049-1.031,2.809-2.66,2.809h-0.867v3.201h-1.248
			V12.605z M72.826,13.664v3.513h0.732c0.977,0,1.506-0.353,1.506-1.764c0-1.41-0.529-1.749-1.506-1.749H72.826z"/>
		<path fill="#E054A7" d="M77.803,12.605h2.115c1.67,0,2.66,0.705,2.66,2.808c0,2.049-1.031,2.809-2.66,2.809h-0.867v3.201h-1.248
			V12.605z M79.051,13.664v3.513h0.732c0.977,0,1.506-0.353,1.506-1.764c0-1.41-0.529-1.749-1.506-1.749H79.051z"/>
		<path fill="#E054A7" d="M84.027,12.605h4.123v1.059h-2.875v2.699h2.32v1.044h-2.32v2.958h2.875v1.058h-4.123V12.605z"/>
		<path fill="#E054A7" d="M89.791,12.605h1.438l2.781,7.026c-0.096-0.719-0.176-1.56-0.176-2.347v-4.68h1.193v8.817H93.59
			l-2.809-7.054c0.107,0.719,0.203,1.573,0.203,2.374v4.68h-1.193V12.605z"/>
	</g>
	<g>
		<path fill="#E054A7" d="M15.477,0.163h3.988v1.059h-2.74v2.699h2.198v1.044h-2.198V8.98h-1.248V0.163z"/>
		<path fill="#E054A7" d="M21.675,0.163h1.289l2.347,8.817h-1.302l-0.516-1.994h-2.401L20.59,8.98h-1.262L21.675,0.163z
			 M21.336,5.929h1.939l-0.366-1.466c-0.189-0.732-0.434-1.858-0.583-2.835c-0.163,0.977-0.421,2.103-0.61,2.835L21.336,5.929z"/>
		<path fill="#E054A7" d="M25.946,4.572C25.946,1.275,26.665,0,28.809,0c0.651,0,1.235,0.163,1.52,0.326v1.152
			c-0.325-0.176-0.896-0.353-1.438-0.353c-1.288,0-1.654,0.584-1.654,3.446c0,2.889,0.393,3.459,1.654,3.459
			c0.557,0,1.194-0.19,1.52-0.38v1.152c-0.285,0.163-0.963,0.34-1.573,0.34C26.517,9.157,25.946,7.868,25.946,4.572z"/>
		<path fill="#E054A7" d="M31.623,6.321V0.163h1.248v6.213c0,1.303,0.447,1.682,1.356,1.682s1.356-0.379,1.356-1.682V0.163h1.248
			v6.158c0,2.008-0.841,2.822-2.604,2.822C32.438,9.144,31.623,8.356,31.623,6.321z"/>
		<path fill="#E054A7" d="M38.729,0.163h1.248v7.76h2.74V8.98h-3.988V0.163z"/>
		<path fill="#E054A7" d="M42.283,0.163h5.059v1.059H45.43V8.98h-1.248V1.222h-1.898V0.163z"/>
		<path fill="#E054A7" d="M48.386,0.163h4.124v1.059h-2.876v2.699h2.319v1.044h-2.319v2.958h2.876V8.98h-4.124V0.163z"/>
		<path fill="#E054A7" d="M54.149,0.163h1.248V8.98h-1.248V0.163z"/>
		<path fill="#E054A7" d="M56.441,0.163H61.5v1.059h-1.912V8.98H58.34V1.222h-1.898V0.163z"/>
		<path fill="#E054A7" d="M64.936,0.163h3.988v1.059h-2.74v2.699h2.197v1.044h-2.197V8.98h-1.248V0.163z"/>
		<path fill="#E054A7" d="M71.133,0.163h1.289l2.347,8.817h-1.302l-0.516-1.994H70.55L70.048,8.98h-1.262L71.133,0.163z
			 M70.794,5.929h1.939l-0.366-1.466c-0.189-0.732-0.434-1.858-0.583-2.835c-0.163,0.977-0.421,2.103-0.61,2.835L70.794,5.929z"/>
		<path fill="#E054A7" d="M75.744,0.163h2.034c1.628,0,2.794,0.61,2.794,2.604c0,1.397-0.678,2.075-1.532,2.388l1.872,3.825h-1.424
			l-1.656-3.595h-0.84V8.98h-1.248V0.163z M76.992,1.222v3.106h0.664c0.977,0,1.628-0.204,1.628-1.561
			c0-1.343-0.651-1.546-1.628-1.546H76.992z"/>
		<path fill="#E054A7" d="M82.267,0.163h1.614l1.547,4.64l1.56-4.64h1.56V8.98h-1.193V4.396c0-0.977,0.068-1.994,0.149-2.781
			l-1.601,4.748h-0.99l-1.614-4.762c0.081,0.787,0.163,1.818,0.163,2.795V8.98h-1.194V0.163z"/>
		<path fill="#E054A7" d="M91.869,0.163h1.289l2.346,8.817h-1.302l-0.516-1.994h-2.401L90.783,8.98h-1.262L91.869,0.163z
			 M91.529,5.929h1.939l-0.365-1.466c-0.19-0.732-0.435-1.858-0.584-2.835C92.357,2.604,92.1,3.73,91.91,4.463L91.529,5.929z"/>
		<path fill="#E054A7" d="M96.141,4.572C96.141,1.275,96.859,0,99.002,0c0.652,0,1.235,0.163,1.52,0.326v1.152
			c-0.325-0.176-0.895-0.353-1.438-0.353c-1.289,0-1.654,0.584-1.654,3.446c0,2.889,0.393,3.459,1.654,3.459
			c0.557,0,1.193-0.19,1.52-0.38v1.152c-0.285,0.163-0.963,0.34-1.574,0.34C96.71,9.157,96.141,7.868,96.141,4.572z"/>
		<path fill="#E054A7" d="M102.026,0.163h4.124v1.059h-2.876v2.699h2.319v1.044h-2.319v2.958h2.876V8.98h-4.124V0.163z"/>
		<path fill="#E054A7" d="M107.654,6.321V0.163h1.248v6.213c0,1.303,0.448,1.682,1.357,1.682c0.908,0,1.355-0.379,1.355-1.682V0.163
			h1.248v6.158c0,2.008-0.84,2.822-2.604,2.822C108.469,9.144,107.654,8.356,107.654,6.321z"/>
		<path fill="#E054A7" d="M113.839,0.163h5.06v1.059h-1.912V8.98h-1.248V1.222h-1.899V0.163z"/>
		<path fill="#E054A7" d="M119.941,0.163h1.248V8.98h-1.248V0.163z"/>
		<path fill="#E054A7" d="M127.943,4.572c0-3.297,0.719-4.572,2.861-4.572c0.652,0,1.235,0.163,1.52,0.326v1.152
			c-0.325-0.176-0.895-0.353-1.438-0.353c-1.289,0-1.654,0.584-1.654,3.446c0,2.889,0.393,3.459,1.654,3.459
			c0.557,0,1.193-0.19,1.52-0.38v1.152c-0.285,0.163-0.963,0.34-1.574,0.34C128.513,9.157,127.943,7.868,127.943,4.572z"/>
		<path fill="#E054A7" d="M137.764,4.979h-2.687V8.98h-1.248V0.163h1.248v3.758h2.687V0.163h1.248V8.98h-1.248V4.979z"/>
		<path fill="#E054A7" d="M140.977,0.163h4.123v1.059h-2.875v2.699h2.319v1.044h-2.319v2.958h2.875V8.98h-4.123V0.163z"/>
	</g>
	<path fill="#E054A7" d="M125.307,1.07c0.551-0.002,1.07,0.18,1.309,0.367V0.313c-0.238-0.146-0.824-0.309-1.418-0.309
		c-1.655,0-2.566,0.941-2.566,2.307c0,1.139,0.482,1.686,1.259,2.355l0.71,0.613c0.586,0.49,0.949,0.867,0.949,1.602
		c0,0.857-0.566,1.197-1.417,1.197c-0.645,0-1.18-0.18-1.488-0.393V8.83c0.271,0.156,0.837,0.316,1.6,0.314
		c1.651-0.004,2.563-0.941,2.564-2.307c0.002-1.137-0.482-1.686-1.259-2.354l-0.709-0.615c-0.588-0.502-0.952-0.865-0.95-1.598
		C123.893,1.41,124.454,1.072,125.307,1.07z"/>
	<path fill="#E054A7" d="M50.083,13.513c0.551-0.002,1.07,0.18,1.309,0.367v-1.125c-0.238-0.146-0.824-0.309-1.418-0.309
		c-1.655,0-2.566,0.941-2.566,2.307c0,1.139,0.482,1.686,1.259,2.355l0.71,0.613c0.586,0.49,0.949,0.867,0.949,1.602
		c0,0.857-0.566,1.197-1.417,1.197c-0.645,0-1.18-0.18-1.488-0.393v1.145c0.271,0.156,0.837,0.316,1.6,0.314
		c1.651-0.004,2.563-0.941,2.564-2.307c0.001-1.137-0.482-1.686-1.259-2.354l-0.709-0.615c-0.588-0.502-0.952-0.865-0.95-1.598
		C48.668,13.853,49.23,13.515,50.083,13.513z"/>
	<path fill="#E054A7" d="M6.236,5.775v4.394H4.989V5.775c0-0.345,0.279-0.624,0.624-0.624S6.236,5.431,6.236,5.775z"/>
	<path fill="#E054A7" d="M8.73,5.775v4.394H7.483V5.775c0-1.033-0.837-1.871-1.871-1.871c-1.034,0-1.871,0.838-1.871,1.871v4.394
		H2.494V5.775c0-1.722,1.396-3.118,3.118-3.118S8.73,4.054,8.73,5.775z"/>
	<path fill="#E054A7" d="M11.225,5.775v4.394H9.978V5.775c0-2.411-1.954-4.365-4.365-4.365c-2.411,0-4.365,1.954-4.365,4.365v4.394
		H0V5.775c0-3.1,2.513-5.612,5.613-5.612C8.712,0.163,11.225,2.676,11.225,5.775"/>
	<path fill="#E054A7" d="M11.225,15.811v-4.394H9.978v4.394c0,2.411-1.954,4.365-4.365,4.365c-2.411,0-4.365-1.954-4.365-4.365
		v-4.394H0v4.394c0,3.1,2.513,5.612,5.613,5.612C8.712,21.423,11.225,18.91,11.225,15.811"/>
</g>
</svg>
