<?xml version="1.0" encoding="utf-8"?>
<!-- Generator: Adobe Illustrator 16.0.0, SVG Export Plug-In . SVG Version: 6.00 Build 0)  -->
<!DOCTYPE svg PUBLIC "-//W3C//DTD SVG 1.1//EN" "http://www.w3.org/Graphics/SVG/1.1/DTD/svg11.dtd">
<svg version="1.1" id="logo" xmlns="http://www.w3.org/2000/svg" xmlns:xlink="http://www.w3.org/1999/xlink" x="0px" y="0px"
	 width="62.539px" height="47.771px" viewBox="0 0 62.539 47.771" enable-background="new 0 0 62.539 47.771" xml:space="preserve">
<g>
	<g>
		<g>
			<rect x="10.277" y="8.276" fill="#095AA5" width="1.247" height="8.096"/>
			<rect x="7.783" y="8.276" fill="#095AA5" width="1.247" height="8.096"/>
			<rect x="5.289" y="8.276" fill="#095AA5" width="1.247" height="8.096"/>
			<rect x="2.795" y="8.276" fill="#095AA5" width="1.247" height="8.096"/>
			<rect x="12.771" y="8.276" fill="#095AA5" width="1.247" height="8.096"/>
			<rect x="15.266" y="8.276" fill="#095AA5" width="1.247" height="8.096"/>
			<rect x="17.76" y="8.276" fill="#095AA5" width="1.247" height="8.096"/>
			<rect x="1.518" y="17.619" fill="#095AA5" width="18.766" height="1.248"/>
			<polygon fill="#095AA5" points="19.007,7.029 2.795,7.029 1.548,5.782 20.254,5.782 			"/>
			<rect x="0.271" y="20.113" fill="#095AA5" width="21.26" height="1.248"/>
		</g>
	</g>
	<polygon fill="#095AA5" points="21.531,3.765 10.901,0 0.271,3.765 0.271,5.089 10.901,1.325 21.531,5.089 	"/>
	<path fill="#095AA5" d="M37.919,27.254c0.551-0.001,1.07,0.179,1.309,0.366v-1.124c-0.238-0.146-0.824-0.31-1.418-0.31
		c-1.655,0-2.566,0.941-2.566,2.307c0,1.139,0.482,1.686,1.259,2.355l0.71,0.613c0.586,0.49,0.949,0.868,0.949,1.602
		c0,0.857-0.566,1.197-1.417,1.197c-0.645,0-1.18-0.179-1.488-0.392v1.144c0.271,0.156,0.837,0.317,1.6,0.315
		c1.651-0.005,2.563-0.942,2.564-2.307c0.001-1.138-0.482-1.686-1.259-2.354l-0.709-0.614c-0.588-0.503-0.952-0.866-0.95-1.599
		C36.505,27.593,37.067,27.256,37.919,27.254z"/>
	<path fill="#095AA5" d="M0.271,32.507v-6.158h1.248v6.213c0,1.303,0.447,1.682,1.356,1.682s1.356-0.379,1.356-1.682v-6.213H5.48
		v6.158c0,2.008-0.841,2.822-2.604,2.822C1.084,35.329,0.271,34.542,0.271,32.507z"/>
	<path fill="#095AA5" d="M7.094,26.349h1.438l2.781,7.027c-0.095-0.719-0.177-1.561-0.177-2.348v-4.68h1.194v8.818h-1.438
		l-2.808-7.055c0.108,0.719,0.203,1.574,0.203,2.375v4.68H7.094V26.349z"/>
	<path fill="#095AA5" d="M14.097,26.349h1.248v8.818h-1.248V26.349z"/>
	<path fill="#095AA5" d="M16.504,26.349h1.303l1.112,4.586c0.163,0.691,0.366,1.857,0.488,2.781c0.122-0.924,0.325-2.09,0.516-2.781
		l1.099-4.586h1.262l-2.238,8.818h-1.303L16.504,26.349z"/>
	<path fill="#095AA5" d="M23.443,26.349h4.124v1.059h-2.876v2.699h2.32v1.045h-2.32v2.957h2.876v1.059h-4.124V26.349z"/>
	<path fill="#095AA5" d="M29.008,26.349h2.035c1.628,0,2.794,0.611,2.794,2.605c0,1.396-0.678,2.074-1.532,2.387l1.872,3.826h-1.425
		l-1.655-3.596h-0.841v3.596h-1.248V26.349z M30.256,27.407v3.107h0.665c0.977,0,1.628-0.205,1.628-1.561
		c0-1.344-0.651-1.547-1.628-1.547H30.256z"/>
	<path fill="#095AA5" d="M40.902,26.349h1.248v8.818h-1.248V26.349z"/>
	<path fill="#095AA5" d="M43.334,26.349h5.06v1.059h-1.912v7.76h-1.248v-7.76h-1.899V26.349z"/>
	<path fill="#095AA5" d="M49.537,26.349h4.124v1.059h-2.876v2.699h2.32v1.045h-2.32v2.957h2.876v1.059h-4.124V26.349z"/>
	<path fill="#095AA5" d="M55.088,26.349h1.248v8.818h-1.248V26.349z"/>
	<path fill="#095AA5" d="M57.479,26.349h5.06v1.059h-1.913v7.76h-1.248v-7.76h-1.898V26.349z"/>
	<path fill="#095AA5" d="M0,43.2c0-3.473,0.922-4.572,3.215-4.572c0.651,0,1.343,0.177,1.641,0.354v1.152
		C4.531,39.944,3.907,39.74,3.31,39.74c-1.465,0-2.021,0.543-2.021,3.46c0,2.889,0.394,3.485,1.668,3.485
		c0.394,0,0.719-0.054,0.963-0.122V43.62H2.618v-1.058h2.55v4.761c-0.258,0.163-1.289,0.448-2.197,0.448
		C0.583,47.771,0,46.523,0,43.2z"/>
	<path fill="#095AA5" d="M6.657,38.791h4.124v1.059H7.905v2.699h2.32v1.044h-2.32v2.958h2.876v1.058H6.657V38.791z"/>
	<path fill="#095AA5" d="M12.223,38.791h1.438l2.781,7.026c-0.095-0.719-0.176-1.56-0.176-2.347v-4.68h1.194v8.817h-1.438
		l-2.808-7.054c0.108,0.719,0.204,1.573,0.204,2.374v4.68h-1.194V38.791z"/>
	<path fill="#095AA5" d="M18.602,38.791h5.06v1.059h-1.913v7.759H20.5V39.85h-1.899V38.791z"/>
</g>
</svg>
