<?xml version="1.0" encoding="utf-8"?>
<!-- Generator: Adobe Illustrator 16.0.0, SVG Export Plug-In . SVG Version: 6.00 Build 0)  -->
<!DOCTYPE svg PUBLIC "-//W3C//DTD SVG 1.1//EN" "http://www.w3.org/Graphics/SVG/1.1/DTD/svg11.dtd">
<svg version="1.1" id="logo" xmlns="http://www.w3.org/2000/svg" xmlns:xlink="http://www.w3.org/1999/xlink" x="0px" y="0px"
	 width="115.263px" height="21.586px" viewBox="1.306 4.73 115.263 21.586" enable-background="new 1.306 4.73 115.263 21.586"
	 xml:space="preserve">
<g>
	<g>
		<path fill="#8A50A4" d="M26.817,17.337h2.306c2.308,0,2.851,1.232,2.851,4.407c0,3.134-0.558,4.408-2.851,4.408h-2.306V17.337z
			 M28.064,18.367v6.755h0.965c1.273,0,1.653-0.583,1.653-3.377c0-2.795-0.38-3.378-1.653-3.378H28.064z"/>
		<path fill="#8A50A4" d="M33.597,17.337h1.248v8.815h-1.248V17.337z"/>
		<path fill="#8A50A4" d="M36.811,17.337h4.123v1.059h-2.875v2.699h2.319v1.043h-2.319v2.959h2.875v1.058h-4.123V17.337z"/>
		<path fill="#8A50A4" d="M42.576,17.337h2.034c1.628,0,2.794,0.608,2.794,2.604c0,1.396-0.679,2.074-1.532,2.388l1.872,3.825H46.32
			l-1.656-3.596h-0.84v3.596h-1.248V17.337z M43.824,18.395v3.104h0.664c0.978,0,1.628-0.203,1.628-1.561
			c0-1.344-0.65-1.547-1.628-1.547L43.824,18.395L43.824,18.395z"/>
		<path fill="#8A50A4" d="M48.69,21.745c0-3.473,0.924-4.57,3.216-4.57c0.65,0,1.344,0.176,1.643,0.354v1.152
			c-0.325-0.189-0.949-0.396-1.547-0.396c-1.465,0-2.021,0.543-2.021,3.46c0,2.891,0.394,3.485,1.668,3.485
			c0.396,0,0.72-0.054,0.964-0.122v-2.943h-1.303v-1.058h2.551v4.761c-0.259,0.163-1.288,0.448-2.197,0.448
			C49.275,26.316,48.69,25.068,48.69,21.745z"/>
		<path fill="#8A50A4" d="M55.703,17.337h4.125v1.059h-2.876v2.699h2.32v1.043h-2.32v2.959h2.876v1.058h-4.125V17.337z"/>
		<path fill="#8A50A4" d="M61.466,17.337h1.439l2.779,7.024c-0.094-0.72-0.176-1.56-0.176-2.347v-4.681h1.193v8.816h-1.439
			l-2.809-7.054c0.107,0.719,0.203,1.572,0.203,2.373v4.681h-1.193L61.466,17.337L61.466,17.337z"/>
		<path fill="#8A50A4" d="M68.667,17.337h4.125v1.059h-2.877v2.699h2.32v1.043h-2.32v2.959h2.877v1.058h-4.125V17.337z"/>
		<path fill="#8A50A4" d="M74.431,17.337h4.123v1.059h-2.875v2.699h2.318v1.043h-2.318v2.959h2.875v1.058h-4.123V17.337z"/>
		<path fill="#8A50A4" d="M85.118,17.337h1.248v4.002l2.563-4.002h1.396l-2.779,4.299l2.982,4.519h-1.506l-2.658-4.138v4.138h-1.248
			L85.118,17.337L85.118,17.337z"/>
		<path fill="#8A50A4" d="M91.357,23.494v-6.157h1.248v6.213c0,1.304,0.447,1.683,1.355,1.683s1.355-0.379,1.355-1.683v-6.213h1.248
			v6.157c0,2.009-0.842,2.822-2.604,2.822C92.171,26.316,91.357,25.529,91.357,23.494z"/>
		<path fill="#8A50A4" d="M98.464,17.337h1.438l2.779,7.024c-0.094-0.72-0.176-1.56-0.176-2.347v-4.681h1.193v8.816h-1.439
			l-2.809-7.054c0.107,0.719,0.205,1.572,0.205,2.373v4.681h-1.193L98.464,17.337L98.464,17.337z"/>
		<path fill="#8A50A4" d="M105.665,17.337h2.307c2.307,0,2.85,1.232,2.85,4.407c0,3.134-0.557,4.408-2.85,4.408h-2.307V17.337z
			 M106.913,18.367v6.755h0.963c1.275,0,1.654-0.583,1.654-3.377c0-2.795-0.379-3.378-1.654-3.378H106.913z"/>
		<path fill="#8A50A4" d="M112.445,17.337h4.125v1.059h-2.877v2.699h2.32v1.043h-2.32v2.959h2.877v1.058h-4.125V17.337z"/>
	</g>
	<g>
		<path fill="#8A50A4" d="M26.817,4.894h3.987v1.059h-2.74v2.699h2.198v1.044h-2.198v4.017h-1.247V4.894z"/>
		<path fill="#8A50A4" d="M33.014,4.894h1.289l2.348,8.816h-1.303l-0.517-1.994h-2.4l-0.502,1.994h-1.263L33.014,4.894z
			 M32.677,10.659h1.938l-0.366-1.466c-0.188-0.731-0.435-1.856-0.583-2.835c-0.162,0.979-0.421,2.104-0.609,2.835L32.677,10.659z"
			/>
		<path fill="#8A50A4" d="M37.287,9.302c0-3.297,0.72-4.571,2.861-4.571c0.651,0,1.235,0.163,1.521,0.325v1.151
			c-0.324-0.176-0.896-0.353-1.438-0.353c-1.287,0-1.653,0.584-1.653,3.445c0,2.89,0.394,3.459,1.653,3.459
			c0.558,0,1.194-0.189,1.521-0.379v1.15c-0.284,0.163-0.963,0.34-1.572,0.34C37.856,13.888,37.287,12.599,37.287,9.302z"/>
		<path fill="#8A50A4" d="M42.964,11.052V4.895h1.248v6.213c0,1.303,0.446,1.682,1.355,1.682c0.908,0,1.355-0.379,1.355-1.682V4.895
			h1.248v6.157c0,2.008-0.842,2.821-2.604,2.821C43.778,13.874,42.964,13.087,42.964,11.052z"/>
		<path fill="#8A50A4" d="M50.07,4.894h1.248v7.76h2.739v1.059H50.07V4.894z"/>
		<path fill="#8A50A4" d="M53.624,4.894h5.059v1.059h-1.912v7.76h-1.248v-7.76h-1.897L53.624,4.894L53.624,4.894z"/>
		<path fill="#8A50A4" d="M59.726,4.894h4.123v1.059h-2.875v2.699h2.318v1.044h-2.318v2.958h2.875v1.059h-4.123V4.894z"/>
		<path fill="#8A50A4" d="M65.49,4.894h1.248v8.816H65.49V4.894z"/>
		<path fill="#8A50A4" d="M67.782,4.894h5.059v1.059h-1.912v7.76h-1.248v-7.76h-1.896L67.782,4.894L67.782,4.894z"/>
	</g>
	<path fill="#8A50A4" d="M82.142,18.243c0.551-0.002,1.07,0.182,1.309,0.367v-1.125c-0.236-0.146-0.824-0.309-1.418-0.309
		c-1.654,0-2.564,0.939-2.564,2.307c0,1.139,0.48,1.688,1.258,2.355l0.711,0.611c0.586,0.49,0.949,0.867,0.949,1.604
		c0,0.855-0.566,1.195-1.418,1.195c-0.645,0-1.18-0.18-1.488-0.393v1.146c0.271,0.154,0.838,0.314,1.602,0.313
		c1.65-0.004,2.563-0.941,2.563-2.307c0.002-1.139-0.48-1.688-1.258-2.354l-0.709-0.615c-0.588-0.502-0.953-0.864-0.951-1.598
		C80.726,18.583,81.29,18.245,82.142,18.243z"/>
	<path fill="#8A50A4" d="M10.534,17.933c-2.389,2.006-3.985,4.921-4.239,8.221h1.248c0.25-2.921,1.681-5.5,3.804-7.275
		L10.534,17.933z"/>
	<path fill="#8A50A4" d="M12.445,13.845c-4.836,2.104-8.295,6.779-8.646,12.309h1.248c0.349-5.023,3.51-9.268,7.918-11.176
		L12.445,13.845z"/>
	<path fill="#8A50A4" d="M17.878,6.097l-4.126,4.652C6.85,12.624,1.705,18.751,1.306,26.151h1.247
		c0.405-6.957,5.334-12.699,11.895-14.307l2.793-3.15l3.729,14.988h-3.113l-2.947-3.536l-0.958,0.798l3.321,3.986h5.295
		L17.878,6.097z"/>
</g>
</svg>
