<?xml version="1.0" encoding="utf-8"?>
<!-- Generator: Adobe Illustrator 16.0.0, SVG Export Plug-In . SVG Version: 6.00 Build 0)  -->
<!DOCTYPE svg PUBLIC "-//W3C//DTD SVG 1.1//EN" "http://www.w3.org/Graphics/SVG/1.1/DTD/svg11.dtd">
<svg version="1.1" id="logo" xmlns="http://www.w3.org/2000/svg" xmlns:xlink="http://www.w3.org/1999/xlink" x="0px" y="0px"
	 width="120.018px" height="21.586px" viewBox="47.146 40.116 120.018 21.586"
	 enable-background="new 47.146 40.116 120.018 21.586" xml:space="preserve">
<g>
	<g>
		<path fill="#FFB300" d="M72.657,52.722h4.124v1.059h-2.876v2.699h2.319v1.044h-2.319v2.958h2.876v1.058h-4.124V52.722z"/>
		<path fill="#FFB300" d="M78.421,52.722h1.438l2.78,7.025c-0.096-0.719-0.178-1.56-0.178-2.347v-4.68h1.194v8.816h-1.438
			l-2.808-7.054c0.108,0.719,0.204,1.573,0.204,2.374v4.68H78.42L78.421,52.722L78.421,52.722z"/>
		<path fill="#FFB300" d="M87.527,52.722h1.248l0.719,4.341c0.121,0.705,0.271,2.089,0.354,3.146
			c0.081-1.059,0.229-2.429,0.353-3.146l0.732-4.341h1.274l0.732,4.341c0.122,0.705,0.258,2.075,0.339,3.12
			c0.081-1.045,0.245-2.415,0.366-3.12l0.719-4.341h1.207l-1.682,8.816H92.6l-0.72-4.341c-0.106-0.651-0.258-1.886-0.339-2.903
			c-0.081,1.019-0.217,2.252-0.325,2.903l-0.731,4.341H89.21L87.527,52.722z"/>
		<path fill="#FFB300" d="M96.789,61.254v-1.099c0.313,0.189,0.978,0.448,1.806,0.448c1.343,0,1.926-0.543,1.926-2.049v-5.833h1.248
			v5.969c0,1.994-0.937,3.012-3.038,3.012C97.686,61.702,97.02,61.417,96.789,61.254z M96.789,52.722h1.248v5.235h-1.248V52.722z"/>
		<path fill="#FFB300" d="M108.859,52.722h1.723c1.736,0,2.943,0.447,2.943,2.415c0,1.017-0.406,1.601-0.99,1.926
			c0.732,0.285,1.262,0.896,1.262,2.062c0,1.94-1.192,2.415-2.93,2.415h-2.008V52.722z M110.107,53.753v2.876h0.434
			c0.99,0,1.696-0.096,1.696-1.452c0-1.343-0.706-1.424-1.696-1.424H110.107z M110.107,57.632v2.876h0.719
			c0.99,0,1.682-0.081,1.682-1.424c0-1.355-0.704-1.452-1.682-1.452H110.107z"/>
		<path fill="#FFB300" d="M115.273,52.722h4.125v1.059h-2.877v2.699h2.319v1.044h-2.319v2.958h2.877v1.058h-4.125V52.722z"/>
		<path fill="#FFB300" d="M120.496,57.131c0-3.473,0.922-4.571,3.215-4.571c0.65,0,1.343,0.177,1.642,0.354v1.152
			c-0.325-0.189-0.949-0.395-1.547-0.395c-1.466,0-2.021,0.543-2.021,3.46c0,2.89,0.395,3.485,1.669,3.485
			c0.394,0,0.719-0.054,0.963-0.122v-2.943h-1.303v-1.058h2.551v4.761c-0.258,0.163-1.289,0.448-2.197,0.448
			C121.078,61.702,120.496,60.454,120.496,57.131z"/>
		<path fill="#FFB300" d="M127.507,52.722h4.124v1.059h-2.876v2.699h2.319v1.044h-2.319v2.958h2.876v1.058h-4.124V52.722z"/>
		<path fill="#FFB300" d="M133.271,52.722h4.124v1.059h-2.876v2.699h2.318v1.044h-2.318v2.958h2.876v1.058h-4.124V52.722z"/>
		<path fill="#FFB300" d="M139.034,52.722h2.034c1.629,0,2.795,0.609,2.795,2.604c0,1.397-0.678,2.075-1.533,2.388l1.873,3.825
			h-1.425l-1.655-3.595h-0.841v3.595h-1.248V52.722L139.034,52.722z M140.282,53.78v3.105h0.665c0.977,0,1.627-0.203,1.627-1.561
			c0-1.343-0.65-1.546-1.627-1.546L140.282,53.78L140.282,53.78z"/>
		<path fill="#FFB300" d="M144.363,52.722h5.061v1.059h-1.912v7.759h-1.248v-7.76h-1.899L144.363,52.722L144.363,52.722z"/>
		<path fill="#FFB300" d="M150.467,52.722h4.124v1.059h-2.876v2.699h2.32v1.044h-2.32v2.958h2.876v1.058h-4.124V52.722z"/>
	</g>
	<g>
		<path fill="#FFB300" d="M72.657,40.279h3.988v1.059h-2.74v2.699h2.198v1.044h-2.198v4.017h-1.248V40.279z"/>
		<path fill="#FFB300" d="M78.855,40.279h1.289l2.347,8.817h-1.302l-0.517-1.994h-2.4l-0.502,1.994h-1.263L78.855,40.279z
			 M78.517,46.045h1.938l-0.366-1.466c-0.188-0.731-0.434-1.857-0.583-2.835c-0.162,0.978-0.421,2.104-0.609,2.835L78.517,46.045z"
			/>
		<path fill="#FFB300" d="M83.127,44.688c0-3.297,0.72-4.572,2.862-4.572c0.651,0,1.235,0.163,1.52,0.326v1.151
			c-0.324-0.176-0.896-0.353-1.438-0.353c-1.288,0-1.654,0.584-1.654,3.446c0,2.889,0.394,3.459,1.654,3.459
			c0.557,0,1.194-0.19,1.52-0.38v1.151c-0.284,0.163-0.963,0.34-1.572,0.34C83.697,49.273,83.127,47.984,83.127,44.688z"/>
		<path fill="#FFB300" d="M88.804,46.438V40.28h1.248v6.213c0,1.303,0.446,1.682,1.355,1.682s1.356-0.379,1.356-1.682V40.28h1.248
			v6.158c0,2.008-0.842,2.821-2.604,2.821C89.618,49.26,88.804,48.473,88.804,46.438z"/>
		<path fill="#FFB300" d="M95.91,40.279h1.248v7.76h2.74v1.059H95.91V40.279z"/>
		<path fill="#FFB300" d="M99.464,40.279h5.06v1.059h-1.912v7.76h-1.248v-7.76h-1.898L99.464,40.279L99.464,40.279z"/>
		<path fill="#FFB300" d="M105.566,40.279h4.124v1.059h-2.876v2.699h2.318v1.044h-2.318v2.958h2.876v1.059h-4.124V40.279z"/>
		<path fill="#FFB300" d="M111.33,40.279h1.248v8.817h-1.248V40.279z"/>
		<path fill="#FFB300" d="M113.622,40.279h5.06v1.059h-1.912v7.76h-1.248v-7.76h-1.898L113.622,40.279L113.622,40.279z"/>
		<path fill="#FFB300" d="M122.116,40.279h1.248v7.76h2.74v1.059h-3.988V40.279z"/>
		<path fill="#FFB300" d="M127.296,40.279h4.125v1.059h-2.877v2.699h2.32v1.044h-2.32v2.958h2.877v1.059h-4.125V40.279z"/>
		<path fill="#FFB300" d="M132.149,40.279h5.061v1.059h-1.914v7.76h-1.248v-7.76h-1.897L132.149,40.279L132.149,40.279z"/>
		<path fill="#FFB300" d="M137.776,40.279h5.059v1.059h-1.912v7.76h-1.248v-7.76h-1.897L137.776,40.279L137.776,40.279z"/>
		<path fill="#FFB300" d="M143.88,40.279h4.123v1.059h-2.875v2.699h2.318v1.044h-2.318v2.958h2.875v1.059h-4.123V40.279z"/>
		<path fill="#FFB300" d="M149.644,40.279h2.033c1.629,0,2.795,0.61,2.795,2.604c0,1.397-0.679,2.075-1.533,2.389l1.873,3.825
			h-1.424l-1.656-3.596h-0.84v3.596h-1.248V40.279z M150.892,41.338v3.106h0.664c0.977,0,1.627-0.204,1.627-1.562
			c0-1.343-0.65-1.546-1.627-1.546L150.892,41.338L150.892,41.338z"/>
		<path fill="#FFB300" d="M156.165,40.279h4.125v1.059h-2.877v2.699h2.32v1.044h-2.32v2.958h2.877v1.059h-4.125V40.279z"/>
		<path fill="#FFB300" d="M161.929,40.279h1.438l2.779,7.026c-0.094-0.72-0.176-1.561-0.176-2.348v-4.68h1.192v8.816h-1.438
			l-2.81-7.054c0.109,0.719,0.205,1.573,0.205,2.374v4.68h-1.195v-8.815H161.929z"/>
	</g>
	<path fill="#FFB300" d="M105.883,53.629c0.552-0.002,1.07,0.181,1.31,0.367v-1.125c-0.238-0.146-0.824-0.309-1.418-0.309
		c-1.655,0-2.566,0.94-2.566,2.307c0,1.139,0.482,1.687,1.259,2.355l0.711,0.612c0.586,0.49,0.948,0.867,0.948,1.603
		c0,0.856-0.565,1.196-1.417,1.196c-0.645,0-1.18-0.18-1.487-0.393v1.146c0.271,0.155,0.837,0.315,1.6,0.313
		c1.651-0.004,2.563-0.941,2.563-2.307c0.003-1.138-0.481-1.687-1.259-2.354l-0.709-0.615c-0.588-0.502-0.952-0.864-0.95-1.598
		C104.468,53.969,105.03,53.631,105.883,53.629z"/>
	<path fill="#FFB300" d="M55.906,55.245l-8.76-0.001V40.279h8.759c0.75,0,1.414,0.337,1.871,0.86c0.458-0.523,1.122-0.86,1.871-0.86
		h8.758v14.965l-8.759,0.001c-0.746,0-1.414,0.326-1.87,0.844C57.318,55.571,56.652,55.245,55.906,55.245z M57.152,42.773
		c0-0.688-0.56-1.247-1.248-1.247l-7.513-0.001v12.473l7.514-0.001c0.454,0.001,0.878,0.123,1.246,0.334L57.152,42.773z
		 M58.4,54.331c0.365-0.211,0.792-0.333,1.246-0.333h7.513V41.525l-7.512,0.001c-0.688,0-1.249,0.559-1.249,1.247L58.4,54.331z"/>
	<path fill="#FFB300" d="M55.907,56.49c0.746,0,1.412,0.326,1.87,0.844c0.456-0.518,1.124-0.843,1.87-0.843h8.76l-1.248,1.246
		l-7.512,0.001c-0.746,0-1.414,0.326-1.87,0.844c-0.458-0.518-1.124-0.844-1.87-0.844l-7.513-0.001l-1.248-1.246L55.907,56.49z"/>
	<rect x="49.639" y="44.02" fill="#FFB300" width="6.267" height="1.248"/>
	<rect x="49.639" y="46.514" fill="#FFB300" width="6.267" height="1.248"/>
	<rect x="49.639" y="49.008" fill="#FFB300" width="6.267" height="1.248"/>
</g>
</svg>
