<?xml version="1.0" encoding="utf-8"?>
<!-- Generator: Adobe Illustrator 16.0.0, SVG Export Plug-In . SVG Version: 6.00 Build 0)  -->
<!DOCTYPE svg PUBLIC "-//W3C//DTD SVG 1.1//EN" "http://www.w3.org/Graphics/SVG/1.1/DTD/svg11.dtd">
<svg version="1.1" id="logo" xmlns="http://www.w3.org/2000/svg" xmlns:xlink="http://www.w3.org/1999/xlink" x="0px" y="0px"
	 width="183.429px" height="21.585px" viewBox="47.146 40.117 183.429 21.585"
	 enable-background="new 47.146 40.117 183.429 21.585" xml:space="preserve">
<g>
	<g>
		<path fill="#43B4A3" d="M72.657,52.721h1.723c1.736,0,2.944,0.446,2.944,2.416c0,1.016-0.408,1.6-0.99,1.926
			c0.732,0.285,1.263,0.895,1.263,2.061c0,1.941-1.194,2.416-2.932,2.416h-2.008V52.721z M73.905,53.752v2.877h0.435
			c0.99,0,1.695-0.096,1.695-1.453c0-1.342-0.705-1.424-1.695-1.424H73.905z M73.905,57.631v2.877h0.719
			c0.99,0,1.684-0.082,1.684-1.424c0-1.356-0.705-1.453-1.684-1.453H73.905z"/>
		<path fill="#43B4A3" d="M79.072,52.721h1.248v8.817h-1.248V52.721z"/>
		<path fill="#43B4A3" d="M81.947,57.131c0-3.649,0.867-4.571,2.699-4.571c1.885,0,2.713,0.881,2.713,4.571
			c0,3.662-0.869,4.57-2.713,4.57C82.773,61.702,81.947,60.834,81.947,57.131z M86.07,57.131c0-2.768-0.285-3.485-1.424-3.485
			c-1.142,0-1.411,0.719-1.411,3.485s0.271,3.484,1.411,3.484C85.785,60.616,86.07,59.897,86.07,57.131z"/>
		<path fill="#43B4A3" d="M88.619,56.52h3.146v1.18h-3.146V56.52z"/>
		<path fill="#43B4A3" d="M93.297,52.721h1.248v8.817h-1.248V52.721z"/>
		<path fill="#43B4A3" d="M96.512,52.721h1.438l2.781,7.026c-0.097-0.719-0.177-1.561-0.177-2.348v-4.681h1.193v8.818h-1.438
			l-2.809-7.055c0.107,0.719,0.203,1.574,0.203,2.375v4.68h-1.192V52.721z"/>
		<path fill="#43B4A3" d="M103.373,57.131c0-3.473,0.923-4.571,3.215-4.571c0.651,0,1.345,0.176,1.643,0.352v1.154
			c-0.325-0.189-0.949-0.396-1.546-0.396c-1.465,0-2.021,0.543-2.021,3.461c0,2.89,0.394,3.484,1.668,3.484
			c0.396,0,0.719-0.053,0.963-0.121v-2.943h-1.302v-1.059h2.55v4.762c-0.258,0.162-1.288,0.447-2.196,0.447
			C103.957,61.702,103.373,60.454,103.373,57.131z"/>
		<path fill="#43B4A3" d="M110.385,52.721h4.124v1.059h-2.876v2.699h2.32v1.045h-2.32v2.957h2.876v1.059h-4.124V52.721z"/>
		<path fill="#43B4A3" d="M116.148,52.721h1.438l2.781,7.026c-0.095-0.719-0.176-1.561-0.176-2.348v-4.681h1.192v8.818h-1.438
			l-2.809-7.055c0.107,0.719,0.202,1.574,0.202,2.375v4.68h-1.192L116.148,52.721L116.148,52.721z"/>
		<path fill="#43B4A3" d="M123.35,52.721h1.248v8.817h-1.248V52.721z"/>
		<path fill="#43B4A3" d="M126.563,52.721h4.124v1.059h-2.876v2.699h2.318v1.045h-2.318v2.957h2.876v1.059h-4.124V52.721z"/>
		<path fill="#43B4A3" d="M132.191,58.879v-6.157h1.248v6.213c0,1.303,0.447,1.682,1.355,1.682c0.909,0,1.356-0.379,1.356-1.682
			v-6.213h1.248v6.157c0,2.009-0.841,2.822-2.604,2.822C133.006,61.702,132.191,60.915,132.191,58.879z"/>
		<path fill="#43B4A3" d="M139.298,52.721h2.034c1.629,0,2.795,0.61,2.795,2.604c0,1.396-0.678,2.074-1.532,2.387l1.872,3.826
			h-1.425l-1.654-3.596h-0.842v3.596h-1.248V52.721L139.298,52.721z M140.546,53.78v3.107h0.665c0.978,0,1.627-0.205,1.627-1.562
			c0-1.344-0.649-1.547-1.627-1.547L140.546,53.78L140.546,53.78z"/>
		<path fill="#43B4A3" d="M150.295,52.721h1.248l0.72,4.342c0.122,0.705,0.271,2.088,0.354,3.146c0.08-1.059,0.23-2.428,0.352-3.146
			l0.732-4.342h1.275l0.731,4.342c0.123,0.705,0.258,2.074,0.34,3.119c0.081-1.045,0.244-2.414,0.366-3.119l0.719-4.342h1.207
			l-1.682,8.817h-1.289l-0.719-4.342c-0.108-0.65-0.258-1.885-0.339-2.902c-0.082,1.019-0.218,2.252-0.326,2.902l-0.732,4.342
			h-1.274L150.295,52.721z"/>
		<path fill="#43B4A3" d="M159.558,52.721h4.124v1.059h-2.876v2.699h2.318v1.045h-2.318v2.957h2.876v1.059h-4.124V52.721z"/>
		<path fill="#43B4A3" d="M164.411,52.721h5.062v1.059h-1.914v7.76h-1.248v-7.76h-1.898L164.411,52.721L164.411,52.721z"/>
		<path fill="#43B4A3" d="M170.515,52.721h4.123v1.059h-2.875v2.699h2.319v1.045h-2.319v2.957h2.875v1.059h-4.123V52.721z"/>
		<path fill="#43B4A3" d="M176.278,52.721h1.438l2.781,7.026c-0.096-0.719-0.176-1.561-0.176-2.348v-4.681h1.193v8.818h-1.438
			l-2.809-7.055c0.106,0.719,0.203,1.574,0.203,2.375v4.68h-1.193L176.278,52.721L176.278,52.721z"/>
		<path fill="#43B4A3" d="M188.268,57.131c0-3.297,0.719-4.571,2.86-4.571c0.65,0,1.234,0.162,1.521,0.325v1.152
			c-0.326-0.176-0.896-0.354-1.438-0.354c-1.287,0-1.653,0.584-1.653,3.446c0,2.89,0.395,3.459,1.653,3.459
			c0.557,0,1.194-0.19,1.521-0.381v1.152c-0.285,0.164-0.964,0.34-1.573,0.34C188.837,61.715,188.268,60.426,188.268,57.131z"/>
		<path fill="#43B4A3" d="M197.944,57.538h-2.687v4.002h-1.248v-8.817h1.248v3.758h2.687v-3.758h1.248v8.817h-1.248V57.538z"/>
		<path fill="#43B4A3" d="M202.515,52.721h1.289l2.346,8.817h-1.302l-0.517-1.994h-2.4l-0.502,1.994h-1.263L202.515,52.721z
			 M202.175,58.487h1.939l-0.365-1.465c-0.189-0.732-0.435-1.859-0.584-2.836c-0.162,0.977-0.42,2.104-0.608,2.836L202.175,58.487z"
			/>
		<path fill="#43B4A3" d="M207.125,52.721h2.116c1.668,0,2.658,0.704,2.658,2.809c0,2.049-1.03,2.809-2.658,2.809h-0.868v3.201
			h-1.248V52.721z M208.373,53.78v3.514h0.732c0.977,0,1.506-0.354,1.506-1.764s-0.529-1.75-1.506-1.75H208.373z"/>
		<path fill="#43B4A3" d="M213.351,52.721h2.114c1.67,0,2.659,0.704,2.659,2.809c0,2.049-1.029,2.809-2.659,2.809h-0.866v3.201
			h-1.248V52.721z M214.599,53.78v3.514h0.731c0.978,0,1.506-0.354,1.506-1.764s-0.528-1.75-1.506-1.75H214.599z"/>
		<path fill="#43B4A3" d="M219.575,52.721h4.123v1.059h-2.875v2.699h2.319v1.045h-2.319v2.957h2.875v1.059h-4.123V52.721z"/>
		<path fill="#43B4A3" d="M225.339,52.721h1.438l2.781,7.026c-0.097-0.719-0.178-1.561-0.178-2.348v-4.681h1.194v8.818h-1.438
			l-2.809-7.055c0.107,0.719,0.203,1.574,0.203,2.375v4.68h-1.193V52.721L225.339,52.721z"/>
	</g>
	<g>
		<path fill="#43B4A3" d="M72.657,40.28h3.988v1.059h-2.74v2.697h2.198v1.045h-2.198v4.017h-1.248V40.28z"/>
		<path fill="#43B4A3" d="M78.855,40.28h1.289l2.347,8.816h-1.302l-0.517-1.994h-2.4l-0.502,1.994h-1.263L78.855,40.28z
			 M78.517,46.043h1.938l-0.366-1.465c-0.188-0.731-0.434-1.856-0.583-2.834c-0.162,0.978-0.421,2.103-0.609,2.834L78.517,46.043z"
			/>
		<path fill="#43B4A3" d="M83.127,44.688c0-3.297,0.72-4.571,2.862-4.571c0.651,0,1.235,0.163,1.52,0.325v1.151
			c-0.324-0.176-0.896-0.352-1.438-0.352c-1.288,0-1.654,0.584-1.654,3.445c0,2.889,0.394,3.459,1.654,3.459
			c0.557,0,1.194-0.191,1.52-0.381v1.151c-0.284,0.164-0.963,0.34-1.572,0.34C83.697,49.272,83.127,47.983,83.127,44.688z"/>
		<path fill="#43B4A3" d="M88.804,46.436V40.28h1.248v6.211c0,1.303,0.446,1.682,1.355,1.682s1.356-0.379,1.356-1.682V40.28h1.248
			v6.156c0,2.008-0.842,2.821-2.604,2.821C89.618,49.258,88.804,48.471,88.804,46.436z"/>
		<path fill="#43B4A3" d="M95.91,40.28h1.248v7.758h2.74v1.06H95.91V40.28z"/>
		<path fill="#43B4A3" d="M99.464,40.28h5.06v1.059h-1.912v7.759h-1.248v-7.759h-1.898L99.464,40.28L99.464,40.28z"/>
		<path fill="#43B4A3" d="M105.566,40.28h4.124v1.059h-2.876v2.697h2.318v1.045h-2.318v2.957h2.876v1.06h-4.124V40.28z"/>
		<path fill="#43B4A3" d="M111.33,40.28h1.248v8.816h-1.248V40.28z"/>
		<path fill="#43B4A3" d="M113.622,40.28h5.06v1.059h-1.912v7.759h-1.248v-7.759h-1.898L113.622,40.28L113.622,40.28z"/>
	</g>
	<path fill="#43B4A3" d="M148.059,53.629c0.551-0.002,1.069,0.179,1.309,0.365v-1.123c-0.238-0.146-0.824-0.311-1.418-0.311
		c-1.655,0-2.566,0.94-2.566,2.307c0,1.139,0.482,1.686,1.26,2.355l0.71,0.612c0.586,0.49,0.949,0.869,0.949,1.603
		c0,0.856-0.566,1.196-1.417,1.196c-0.646,0-1.181-0.178-1.488-0.391v1.143c0.271,0.156,0.837,0.318,1.6,0.316
		c1.651-0.004,2.563-0.943,2.564-2.307c0.002-1.14-0.482-1.687-1.259-2.355l-0.709-0.613c-0.589-0.504-0.952-0.866-0.95-1.6
		C146.644,53.967,147.206,53.631,148.059,53.629z"/>
	<path fill="#43B4A3" d="M185.63,53.629c0.552-0.002,1.07,0.179,1.31,0.365v-1.123c-0.238-0.146-0.824-0.311-1.418-0.311
		c-1.656,0-2.566,0.94-2.566,2.307c0,1.139,0.482,1.686,1.258,2.355l0.711,0.612c0.587,0.49,0.949,0.869,0.949,1.603
		c0,0.856-0.565,1.196-1.418,1.196c-0.645,0-1.18-0.178-1.488-0.391v1.143c0.271,0.156,0.839,0.318,1.601,0.316
		c1.652-0.004,2.563-0.943,2.564-2.307c0.001-1.14-0.481-1.687-1.259-2.355l-0.709-0.613c-0.588-0.504-0.953-0.866-0.951-1.6
		C184.215,53.967,184.776,53.631,185.63,53.629z"/>
	<path fill="#43B4A3" d="M59.101,50.909c0,0.732-0.594,1.325-1.325,1.325c-0.732,0-1.325-0.593-1.325-1.325
		c0-0.731,0.593-1.325,1.325-1.325C58.508,49.584,59.101,50.177,59.101,50.909z M57.775,48.336c-1.42,0-2.572,1.152-2.572,2.572
		c0,1.421,1.152,2.573,2.572,2.573c1.421,0,2.573-1.152,2.573-2.573C60.348,49.489,59.196,48.336,57.775,48.336z"/>
	<path fill="#43B4A3" d="M64.482,44.01c0,0.732-0.593,1.325-1.325,1.325s-1.325-0.593-1.325-1.325c0-0.73,0.593-1.324,1.325-1.324
		S64.482,43.28,64.482,44.01z M63.157,41.439c-1.42,0-2.572,1.151-2.572,2.571c0,1.422,1.152,2.573,2.572,2.573
		c1.421,0,2.573-1.151,2.573-2.573C65.729,42.591,64.578,41.439,63.157,41.439z"/>
	<path fill="#43B4A3" d="M57.776,41.527c0.289,0,0.573,0.018,0.854,0.043l0.114-1.241c-0.32-0.029-0.642-0.049-0.969-0.049
		c-5.871,0-10.63,4.759-10.63,10.629c0,5.871,4.759,10.631,10.63,10.631s10.63-4.76,10.63-10.631c0-1.229-0.22-2.406-0.604-3.505
		l-1.177,0.411c0.339,0.971,0.533,2.009,0.533,3.095c0,5.182-4.201,9.382-9.382,9.382c-5.182,0-9.383-4.2-9.383-9.382
		C48.393,45.727,52.594,41.527,57.776,41.527z"/>
	<path fill="#43B4A3" d="M57.775,44.021c0.212,0,0.421,0.013,0.628,0.031l0.114-1.241c-0.245-0.021-0.491-0.037-0.742-0.037
		c-4.493,0-8.135,3.643-8.135,8.135c0,4.493,3.643,8.136,8.135,8.136c4.493,0,8.136-3.643,8.136-8.136
		c0-0.941-0.168-1.842-0.462-2.683l-1.177,0.411c0.25,0.713,0.392,1.475,0.392,2.271c0,3.804-3.084,6.888-6.888,6.888
		s-6.888-3.084-6.888-6.888C50.887,47.105,53.971,44.021,57.775,44.021z"/>
</g>
</svg>
