<?xml version="1.0" encoding="utf-8"?>
<!-- Generator: Adobe Illustrator 16.0.0, SVG Export Plug-In . SVG Version: 6.00 Build 0)  -->
<!DOCTYPE svg PUBLIC "-//W3C//DTD SVG 1.1//EN" "http://www.w3.org/Graphics/SVG/1.1/DTD/svg11.dtd">
<svg version="1.1" id="logo" xmlns="http://www.w3.org/2000/svg" xmlns:xlink="http://www.w3.org/1999/xlink" x="0px" y="0px"
	 width="175.59px" height="21.585px" viewBox="47.145 40.117 175.59 21.585" enable-background="new 47.145 40.117 175.59 21.585"
	 xml:space="preserve">
<g>
	<g>
		<path fill="#FF6409" d="M68.971,52.722h2.115c1.668,0,2.658,0.704,2.658,2.807c0,2.049-1.03,2.809-2.658,2.809h-0.867v3.201
			h-1.248V52.722z M70.219,53.781v3.512h0.731c0.978,0,1.506-0.352,1.506-1.764c0-1.41-0.528-1.748-1.506-1.748H70.219z"/>
		<path fill="#FF6409" d="M75.196,52.722h4.124v1.059h-2.876v2.699h2.319v1.043h-2.319v2.959h2.876v1.057h-4.124V52.722z"/>
		<path fill="#FF6409" d="M80.959,52.722h2.307c2.307,0,2.85,1.233,2.85,4.407c0,3.134-0.557,4.408-2.85,4.408h-2.307V52.722z
			 M82.208,53.753v6.754h0.964c1.274,0,1.654-0.582,1.654-3.377s-0.38-3.377-1.654-3.377H82.208z"/>
		<path fill="#FF6409" d="M89.097,52.722h1.289l2.346,8.815H91.43l-0.517-1.994h-2.4l-0.502,1.994H86.75L89.097,52.722z
			 M88.757,58.488h1.939l-0.365-1.467c-0.189-0.732-0.435-1.857-0.584-2.834c-0.162,0.977-0.42,2.102-0.608,2.834L88.757,58.488z"/>
		<path fill="#FF6409" d="M93.369,57.13c0-3.473,0.922-4.569,3.215-4.569c0.65,0,1.344,0.176,1.642,0.352v1.152
			c-0.324-0.189-0.949-0.394-1.546-0.394c-1.466,0-2.021,0.543-2.021,3.459c0,2.89,0.393,3.486,1.668,3.486
			c0.395,0,0.719-0.055,0.963-0.123V57.55h-1.303v-1.057h2.551v4.76c-0.258,0.164-1.289,0.449-2.197,0.449
			C93.952,61.703,93.369,60.455,93.369,57.13z"/>
		<path fill="#FF6409" d="M99.973,57.13c0-3.647,0.867-4.569,2.698-4.569c1.887,0,2.713,0.881,2.713,4.569
			c0,3.662-0.867,4.572-2.713,4.572C100.8,61.703,99.973,60.833,99.973,57.13z M104.097,57.13c0-2.768-0.285-3.485-1.426-3.485
			c-1.14,0-1.41,0.719-1.41,3.485c0,2.768,0.271,3.486,1.41,3.486C103.812,60.616,104.097,59.898,104.097,57.13z"/>
		<path fill="#FF6409" d="M106.74,57.13c0-3.473,0.923-4.569,3.215-4.569c0.651,0,1.344,0.176,1.643,0.352v1.152
			c-0.325-0.189-0.949-0.394-1.547-0.394c-1.465,0-2.021,0.543-2.021,3.459c0,2.89,0.393,3.486,1.668,3.486
			c0.395,0,0.719-0.055,0.963-0.123V57.55h-1.302v-1.057h2.55v4.76c-0.258,0.164-1.288,0.449-2.197,0.449
			C107.324,61.703,106.74,60.455,106.74,57.13z"/>
		<path fill="#FF6409" d="M113.751,52.722H115v8.815h-1.248L113.751,52.722L113.751,52.722z"/>
		<path fill="#FF6409" d="M121.753,57.13c0-3.297,0.72-4.569,2.861-4.569c0.652,0,1.234,0.162,1.52,0.323v1.152
			c-0.325-0.176-0.895-0.352-1.438-0.352c-1.289,0-1.654,0.584-1.654,3.444c0,2.89,0.394,3.459,1.654,3.459
			c0.557,0,1.193-0.188,1.52-0.379v1.152c-0.284,0.162-0.963,0.34-1.573,0.34C122.321,61.716,121.753,60.427,121.753,57.13z"/>
		<path fill="#FF6409" d="M131.573,57.537h-2.688v4.002h-1.247v-8.815h1.247v3.758h2.688v-3.758h1.248v8.815h-1.248V57.537z"/>
		<path fill="#FF6409" d="M134.786,52.722h4.123v1.059h-2.875v2.699h2.318v1.043h-2.318v2.959h2.875v1.057h-4.123V52.722z"/>
		<path fill="#FF6409" d="M142.454,52.722h1.248l0.719,4.34c0.123,0.705,0.271,2.09,0.354,3.147c0.082-1.059,0.229-2.43,0.354-3.147
			l0.732-4.34h1.275l0.731,4.34c0.121,0.705,0.258,2.076,0.338,3.121c0.082-1.045,0.244-2.416,0.367-3.121l0.719-4.34h1.207
			l-1.682,8.815h-1.289l-0.719-4.34c-0.109-0.652-0.259-1.887-0.341-2.904c-0.079,1.019-0.217,2.252-0.323,2.904l-0.734,4.34h-1.272
			L142.454,52.722z"/>
		<path fill="#FF6409" d="M151.718,52.722h4.123v1.059h-2.875v2.699h2.32v1.043h-2.32v2.959h2.875v1.057h-4.123V52.722z"/>
		<path fill="#FF6409" d="M156.572,52.722h5.059v1.059h-1.911v7.758h-1.248v-7.758h-1.898L156.572,52.722L156.572,52.722z"/>
		<path fill="#FF6409" d="M162.675,52.722h4.124v1.059h-2.876v2.699h2.319v1.043h-2.319v2.959h2.876v1.057h-4.124V52.722z"/>
		<path fill="#FF6409" d="M168.438,52.722h1.438l2.78,7.024c-0.096-0.719-0.178-1.559-0.178-2.346v-4.68h1.194v8.815h-1.438
			l-2.807-7.053c0.107,0.719,0.203,1.572,0.203,2.373v4.68h-1.193L168.438,52.722L168.438,52.722z"/>
		<path fill="#FF6409" d="M180.427,57.13c0-3.297,0.719-4.569,2.86-4.569c0.652,0,1.234,0.162,1.521,0.323v1.152
			c-0.326-0.176-0.896-0.352-1.438-0.352c-1.289,0-1.654,0.584-1.654,3.444c0,2.89,0.394,3.459,1.654,3.459
			c0.558,0,1.193-0.188,1.521-0.379v1.152c-0.285,0.162-0.963,0.34-1.574,0.34C180.995,61.716,180.427,60.427,180.427,57.13z"/>
		<path fill="#FF6409" d="M190.104,57.537h-2.687v4.002h-1.248v-8.815h1.248v3.758h2.687v-3.758h1.248v8.815h-1.248V57.537z"/>
		<path fill="#FF6409" d="M194.675,52.722h1.289l2.347,8.815h-1.302l-0.516-1.994h-2.402l-0.502,1.994h-1.262L194.675,52.722z
			 M194.335,58.488h1.939l-0.365-1.467c-0.188-0.732-0.434-1.857-0.584-2.834c-0.162,0.977-0.42,2.102-0.609,2.834L194.335,58.488z"
			/>
		<path fill="#FF6409" d="M199.286,52.722h2.115c1.668,0,2.658,0.704,2.658,2.807c0,2.049-1.029,2.809-2.658,2.809h-0.867v3.201
			h-1.248V52.722z M200.534,53.781v3.512h0.732c0.977,0,1.506-0.352,1.506-1.764c0-1.41-0.529-1.748-1.506-1.748H200.534z"/>
		<path fill="#FF6409" d="M205.511,52.722h2.114c1.668,0,2.658,0.704,2.658,2.807c0,2.049-1.029,2.809-2.658,2.809h-0.867v3.201
			h-1.247V52.722z M206.759,53.781v3.512h0.732c0.977,0,1.506-0.352,1.506-1.764c0-1.41-0.529-1.748-1.506-1.748H206.759z"/>
		<path fill="#FF6409" d="M211.735,52.722h4.123v1.059h-2.875v2.699h2.317v1.043h-2.317v2.959h2.875v1.057h-4.123V52.722z"/>
		<path fill="#FF6409" d="M217.499,52.722h1.438l2.78,7.024c-0.096-0.719-0.178-1.559-0.178-2.346v-4.68h1.195v8.815h-1.439
			l-2.807-7.053c0.107,0.719,0.203,1.572,0.203,2.373v4.68h-1.193V52.722L217.499,52.722z"/>
	</g>
	<g>
		<path fill="#FF6409" d="M68.971,40.279h3.987v1.059h-2.739v2.699h2.197v1.043h-2.197v4.017h-1.248V40.279z"/>
		<path fill="#FF6409" d="M75.169,40.279h1.289l2.348,8.815h-1.303l-0.516-1.993h-2.401l-0.502,1.993h-1.262L75.169,40.279z
			 M74.831,46.044h1.939l-0.366-1.467c-0.189-0.732-0.434-1.857-0.583-2.834c-0.163,0.977-0.421,2.102-0.61,2.834L74.831,46.044z"/>
		<path fill="#FF6409" d="M79.441,44.687c0-3.297,0.719-4.57,2.862-4.57c0.65,0,1.234,0.162,1.52,0.324v1.151
			c-0.325-0.176-0.896-0.352-1.438-0.352c-1.287,0-1.653,0.584-1.653,3.445c0,2.889,0.393,3.459,1.653,3.459
			c0.558,0,1.194-0.189,1.521-0.379v1.151c-0.285,0.162-0.963,0.34-1.573,0.34C80.011,49.273,79.441,47.984,79.441,44.687z"/>
		<path fill="#FF6409" d="M85.118,46.437v-6.158h1.248v6.213c0,1.303,0.447,1.682,1.356,1.682c0.908,0,1.355-0.379,1.355-1.682
			v-6.213h1.248v6.158c0,2.008-0.841,2.821-2.604,2.821C85.932,49.259,85.118,48.472,85.118,46.437z"/>
		<path fill="#FF6409" d="M92.224,40.279h1.248v7.76h2.739v1.058h-3.987V40.279z"/>
		<path fill="#FF6409" d="M95.778,40.279h5.059v1.059h-1.912v7.759h-1.248v-7.759h-1.897L95.778,40.279L95.778,40.279z"/>
		<path fill="#FF6409" d="M101.88,40.279h4.124v1.059h-2.876v2.699h2.319v1.043h-2.319v2.959h2.876v1.058h-4.124V40.279z"/>
		<path fill="#FF6409" d="M107.644,40.279h1.248v8.815h-1.248V40.279z"/>
		<path fill="#FF6409" d="M109.936,40.279h5.059v1.059h-1.912v7.759h-1.248v-7.759h-1.897L109.936,40.279L109.936,40.279z"/>
		<path fill="#FF6409" d="M118.43,40.279h2.115c1.668,0,2.658,0.705,2.658,2.807c0,2.049-1.029,2.81-2.658,2.81h-0.867v3.201h-1.248
			V40.279z M119.678,41.337v3.513h0.731c0.978,0,1.506-0.353,1.506-1.765c0-1.41-0.528-1.748-1.506-1.748H119.678z"/>
		<path fill="#FF6409" d="M130.798,45.433l-2.414-5.154h1.371l1.043,2.373c0.244,0.57,0.478,1.18,0.625,1.723
			c0.162-0.543,0.406-1.151,0.65-1.723l1.045-2.373h1.33l-2.402,5.154v3.661h-1.248V45.433z"/>
		<path fill="#FF6409" d="M134.825,44.687c0-3.297,0.719-4.57,2.863-4.57c0.649,0,1.233,0.162,1.52,0.324v1.151
			c-0.326-0.176-0.896-0.352-1.438-0.352c-1.287,0-1.654,0.584-1.654,3.445c0,2.889,0.396,3.459,1.654,3.459
			c0.557,0,1.194-0.189,1.52-0.379v1.151c-0.285,0.162-0.963,0.34-1.572,0.34C135.396,49.273,134.825,47.984,134.825,44.687z"/>
		<path fill="#FF6409" d="M144.503,45.093h-2.686v4.002h-1.248v-8.815h1.248v3.758h2.686v-3.758h1.248v8.815h-1.248V45.093z"/>
		<path fill="#FF6409" d="M147.378,44.687c0-3.648,0.867-4.57,2.699-4.57c1.885,0,2.713,0.881,2.713,4.57
			c0,3.662-0.869,4.571-2.713,4.571C148.204,49.259,147.378,48.39,147.378,44.687z M151.501,44.687c0-2.769-0.285-3.486-1.424-3.486
			c-1.141,0-1.41,0.719-1.41,3.486c0,2.767,0.271,3.485,1.41,3.485C151.216,48.173,151.501,47.455,151.501,44.687z"/>
		<path fill="#FF6409" d="M154.415,40.279h1.248v7.76h2.74v1.058h-3.988V40.279z"/>
		<path fill="#FF6409" d="M158.851,44.687c0-3.648,0.869-4.57,2.698-4.57c1.888,0,2.714,0.881,2.714,4.57
			c0,3.662-0.867,4.571-2.714,4.571C159.679,49.259,158.851,48.39,158.851,44.687z M162.974,44.687c0-2.769-0.283-3.486-1.425-3.486
			c-1.139,0-1.409,0.719-1.409,3.486c0,2.767,0.271,3.485,1.409,3.485C162.69,48.173,162.974,47.455,162.974,44.687z"/>
		<path fill="#FF6409" d="M165.618,44.687c0-3.474,0.922-4.57,3.215-4.57c0.65,0,1.342,0.176,1.642,0.352v1.152
			c-0.324-0.188-0.949-0.393-1.547-0.393c-1.466,0-2.021,0.543-2.021,3.459c0,2.889,0.393,3.485,1.668,3.485
			c0.393,0,0.719-0.055,0.963-0.123v-2.942h-1.303V44.05h2.551v4.761c-0.258,0.164-1.289,0.448-2.197,0.448
			C166.2,49.259,165.618,48.01,165.618,44.687z"/>
		<path fill="#FF6409" d="M172.628,40.279h1.248v8.815h-1.248V40.279z"/>
		<path fill="#FF6409" d="M175.843,40.279h4.123v1.059h-2.875v2.699h2.32v1.043h-2.32v2.959h2.875v1.058h-4.123V40.279z"/>
		<path fill="#FF6409" d="M184.403,40.279h4.125v1.059h-2.877v2.699h2.32v1.043h-2.32v2.959h2.877v1.058h-4.125V40.279z"/>
		<path fill="#FF6409" d="M190.167,40.279h1.439l2.779,7.025c-0.095-0.72-0.177-1.56-0.177-2.347v-4.68h1.193v8.815h-1.438
			l-2.809-7.053c0.109,0.719,0.205,1.572,0.205,2.373v4.68h-1.195v-8.814H190.167z"/>
	</g>
	<path fill="#FF6409" d="M126.806,41.185c0.551-0.002,1.069,0.18,1.309,0.366v-1.125c-0.238-0.146-0.824-0.309-1.418-0.309
		c-1.656,0-2.566,0.941-2.566,2.307c0,1.14,0.482,1.687,1.259,2.355l0.711,0.613c0.586,0.489,0.948,0.866,0.948,1.602
		c0,0.857-0.565,1.197-1.418,1.197c-0.645,0-1.18-0.18-1.487-0.394v1.146c0.271,0.156,0.838,0.315,1.6,0.313
		c1.652-0.004,2.563-0.94,2.564-2.307c0.002-1.137-0.482-1.686-1.259-2.354l-0.709-0.615c-0.588-0.502-0.952-0.865-0.95-1.599
		C125.391,41.525,125.952,41.187,126.806,41.185z"/>
	<path fill="#FF6409" d="M119.116,53.628c0.551-0.002,1.07,0.181,1.309,0.367V52.87c-0.237-0.146-0.823-0.309-1.418-0.309
		c-1.654,0-2.565,0.94-2.565,2.307c0,1.139,0.481,1.687,1.259,2.355l0.71,0.612c0.586,0.49,0.949,0.867,0.949,1.603
		c0,0.856-0.566,1.196-1.417,1.196c-0.646,0-1.18-0.18-1.488-0.393v1.146c0.271,0.155,0.837,0.315,1.601,0.313
		c1.65-0.004,2.562-0.941,2.563-2.307c0.002-1.138-0.481-1.687-1.258-2.354l-0.709-0.615c-0.588-0.502-0.952-0.864-0.95-1.598
		C117.701,53.968,118.263,53.63,119.116,53.628z"/>
	<path fill="#FF6409" d="M177.79,53.628c0.551-0.002,1.07,0.181,1.31,0.367V52.87c-0.238-0.146-0.824-0.309-1.418-0.309
		c-1.656,0-2.566,0.94-2.566,2.307c0,1.139,0.482,1.687,1.258,2.355l0.711,0.612c0.586,0.49,0.949,0.867,0.949,1.603
		c0,0.856-0.566,1.196-1.418,1.196c-0.645,0-1.18-0.18-1.488-0.393v1.146c0.271,0.155,0.838,0.315,1.601,0.313
		c1.651-0.004,2.563-0.941,2.563-2.307c0.002-1.138-0.481-1.687-1.258-2.354l-0.709-0.615c-0.588-0.502-0.953-0.864-0.951-1.598
		C176.376,53.968,176.937,53.63,177.79,53.628z"/>
	<path fill="#FF6409" d="M54.606,52.363l-4.667,9.176h1.399l4.721-9.285l-2.346-3.333c-0.375-0.51-0.603-1.134-0.604-1.813
		c0.004-1.702,1.383-3.081,3.085-3.083c0.028,0,0.054,0.007,0.082,0.008v-1.249c-0.028-0.001-0.054-0.009-0.082-0.009
		c-2.394,0.002-4.333,1.938-4.333,4.333c0,0.957,0.32,1.833,0.847,2.55L54.606,52.363z"/>
	<path fill="#FF6409" d="M63.002,47.347c0.003-0.082,0.019-0.16,0.019-0.242c0-3.771-3.057-6.824-6.825-6.826
		c-3.771,0.002-6.827,3.057-6.827,6.826c0,1.509,0.495,2.897,1.324,4.026l1.01,1.446l-4.557,8.96h1.399l4.61-9.07L51.7,50.394
		c-0.677-0.922-1.082-2.058-1.084-3.289c0.006-3.08,2.499-5.572,5.58-5.578c3.08,0.006,5.573,2.498,5.577,5.578
		c0,0.151-0.027,0.299-0.039,0.446l-0.001,0.001l0.001,0.004l1.301,2.934H61.49l-0.623,4.086h-2.131l-0.634,1.247h3.835l0.624-4.085
		h1.784l0.374-0.521L63.002,47.347z"/>
</g>
</svg>
