<?xml version="1.0" encoding="utf-8"?>
<!-- Generator: Adobe Illustrator 16.0.0, SVG Export Plug-In . SVG Version: 6.00 Build 0)  -->
<!DOCTYPE svg PUBLIC "-//W3C//DTD SVG 1.1//EN" "http://www.w3.org/Graphics/SVG/1.1/DTD/svg11.dtd">
<svg version="1.1" id="Layer_1" xmlns="http://www.w3.org/2000/svg" xmlns:xlink="http://www.w3.org/1999/xlink" x="0px" y="0px"
	 width="153.255px" height="21.587px" viewBox="-1310.642 378.615 153.255 21.587"
	 enable-background="new -1310.642 378.615 153.255 21.587" xml:space="preserve">
<g>
	<g>
		<path fill="#FB7E3A" d="M-1287.442,391.223h1.288l2.347,8.813h-1.302l-0.516-1.992h-2.401l-0.502,1.992h-1.262L-1287.442,391.223z
			 M-1287.782,396.988h1.938l-0.364-1.467c-0.189-0.73-0.437-1.855-0.584-2.834c-0.162,0.979-0.42,2.104-0.609,2.834
			L-1287.782,396.988z"/>
		<path fill="#FB7E3A" d="M-1282.833,391.223h1.438l2.779,7.021c-0.095-0.72-0.177-1.56-0.177-2.347v-4.681h1.192v8.813h-1.438
			l-2.809-7.053c0.107,0.719,0.203,1.572,0.203,2.373v4.68h-1.192L-1282.833,391.223L-1282.833,391.223z"/>
		<path fill="#FB7E3A" d="M-1275.631,391.223h2.306c2.308,0,2.851,1.23,2.851,4.406c0,3.135-0.558,4.406-2.851,4.406h-2.306V391.223
			z M-1274.383,392.254v6.754h0.963c1.274,0,1.653-0.582,1.653-3.377s-0.379-3.377-1.653-3.377H-1274.383L-1274.383,392.254z"/>
		<path fill="#FB7E3A" d="M-1266.053,391.223h4.123v1.059h-2.875v2.699h2.318v1.043h-2.318v2.959h2.875v1.059h-4.123V391.223z"/>
		<path fill="#FB7E3A" d="M-1260.289,391.223h2.306c2.308,0,2.851,1.23,2.851,4.406c0,3.135-0.558,4.406-2.851,4.406h-2.306V391.223
			z M-1259.041,392.254v6.754h0.963c1.273,0,1.653-0.582,1.653-3.377s-0.38-3.377-1.653-3.377H-1259.041L-1259.041,392.254z"/>
		<path fill="#FB7E3A" d="M-1253.575,397.381v-6.158h1.248v6.213c0,1.307,0.447,1.686,1.354,1.686c0.91,0,1.357-0.379,1.357-1.686
			v-6.213h1.248v6.158c0,2.008-0.842,2.82-2.605,2.82C-1252.762,400.202-1253.575,399.417-1253.575,397.381z"/>
		<path fill="#FB7E3A" d="M-1246.808,395.631c0-3.297,0.72-4.57,2.86-4.57c0.651,0,1.234,0.162,1.521,0.324v1.15
			c-0.325-0.179-0.896-0.354-1.438-0.354c-1.289,0-1.655,0.584-1.655,3.444c0,2.89,0.396,3.459,1.655,3.459
			c0.556,0,1.193-0.188,1.521-0.379v1.148c-0.284,0.162-0.965,0.342-1.573,0.342
			C-1246.239,400.217-1246.808,398.928-1246.808,395.631z"/>
		<path fill="#FB7E3A" d="M-1239.378,391.223h1.288l2.349,8.813h-1.303l-0.518-1.992h-2.398l-0.502,1.992h-1.264L-1239.378,391.223z
			 M-1239.717,396.988h1.938l-0.367-1.467c-0.188-0.73-0.434-1.855-0.582-2.834c-0.164,0.979-0.42,2.104-0.609,2.834
			L-1239.717,396.988z"/>
		<path fill="#FB7E3A" d="M-1235.894,391.223h5.063v1.059h-1.913v7.76h-1.248v-7.76h-1.898L-1235.894,391.223L-1235.894,391.223z"/>
		<path fill="#FB7E3A" d="M-1229.791,391.223h1.248v8.813h-1.248V391.223z"/>
		<path fill="#FB7E3A" d="M-1226.916,395.631c0-3.648,0.869-4.57,2.699-4.57c1.887,0,2.713,0.881,2.713,4.57
			c0,3.662-0.867,4.57-2.713,4.57C-1226.088,400.202-1226.916,399.335-1226.916,395.631z M-1222.791,395.631
			c0-2.771-0.284-3.486-1.426-3.486c-1.141,0-1.41,0.723-1.41,3.486c0,2.768,0.271,3.483,1.41,3.483
			C-1223.075,399.116-1222.791,398.398-1222.791,395.631z"/>
		<path fill="#FB7E3A" d="M-1219.877,391.223h1.438l2.78,7.021c-0.096-0.72-0.178-1.56-0.178-2.347v-4.681h1.192v8.813h-1.438
			l-2.811-7.053c0.107,0.719,0.203,1.572,0.203,2.373v4.68h-1.191v-8.811h0.004L-1219.877,391.223L-1219.877,391.223z"/>
		<path fill="#FB7E3A" d="M-1211.319,391.223h1.289l2.349,8.813h-1.304l-0.517-1.992h-2.399l-0.502,1.992h-1.263L-1211.319,391.223z
			 M-1211.657,396.988h1.938l-0.366-1.467c-0.188-0.73-0.436-1.855-0.582-2.834c-0.164,0.979-0.42,2.104-0.61,2.834
			L-1211.657,396.988z"/>
		<path fill="#FB7E3A" d="M-1206.709,391.223h1.248v7.76h2.739v1.059h-3.987V391.223L-1206.709,391.223z"/>
		<path fill="#FB7E3A" d="M-1194.215,395.631c0-3.297,0.719-4.57,2.861-4.57c0.649,0,1.233,0.162,1.521,0.324v1.15
			c-0.325-0.179-0.896-0.354-1.438-0.354c-1.289,0-1.652,0.584-1.652,3.444c0,2.89,0.394,3.459,1.652,3.459
			c0.559,0,1.192-0.188,1.521-0.379v1.148c-0.285,0.162-0.963,0.342-1.573,0.342
			C-1193.644,400.217-1194.215,398.928-1194.215,395.631z"/>
		<path fill="#FB7E3A" d="M-1188.328,391.223h1.248v8.813h-1.248V391.223z"/>
		<path fill="#FB7E3A" d="M-1185.114,391.223h4.125v1.059h-2.877v2.699h2.319v1.043h-2.319v2.959h2.877v1.059h-4.125V391.223z"/>
		<path fill="#FB7E3A" d="M-1179.351,391.223h1.438l2.778,7.021c-0.095-0.72-0.177-1.56-0.177-2.347v-4.681h1.193v8.813h-1.438
			l-2.81-7.053c0.108,0.719,0.204,1.572,0.204,2.373v4.68h-1.193v-8.813h0.002L-1179.351,391.223L-1179.351,391.223z"/>
		<path fill="#FB7E3A" d="M-1172.487,395.631c0-3.297,0.72-4.57,2.86-4.57c0.65,0,1.232,0.162,1.521,0.324v1.15
			c-0.326-0.179-0.896-0.354-1.438-0.354c-1.289,0-1.655,0.584-1.655,3.444c0,2.89,0.396,3.459,1.655,3.459
			c0.556,0,1.19-0.188,1.521-0.379v1.148c-0.285,0.162-0.965,0.342-1.574,0.342C-1171.92,400.217-1172.487,398.928-1172.487,395.631
			z"/>
		<path fill="#FB7E3A" d="M-1166.603,391.223h4.125v1.059h-2.877v2.699h2.319v1.043h-2.319v2.959h2.877v1.059h-4.125V391.223z"/>
	</g>
	<g>
		<path fill="#FB7E3A" d="M-1288.815,378.779h3.988v1.061h-2.74v2.699h2.198v1.043h-2.198v4.019h-1.248V378.779L-1288.815,378.779z"
			/>
		<path fill="#FB7E3A" d="M-1282.616,378.779h1.288l2.348,8.814h-1.303l-0.517-1.992h-2.4l-0.502,1.992h-1.262L-1282.616,378.779z
			 M-1282.957,384.545h1.938l-0.364-1.469c-0.19-0.73-0.437-1.855-0.584-2.834c-0.162,0.979-0.421,2.104-0.609,2.834
			L-1282.957,384.545z"/>
		<path fill="#FB7E3A" d="M-1278.346,383.188c0-3.297,0.721-4.568,2.861-4.568c0.652,0,1.235,0.16,1.521,0.322v1.15
			c-0.324-0.176-0.896-0.354-1.438-0.354c-1.289,0-1.654,0.584-1.654,3.445c0,2.889,0.395,3.459,1.654,3.459
			c0.557,0,1.193-0.188,1.521-0.379v1.149c-0.284,0.161-0.964,0.34-1.573,0.34C-1277.775,387.773-1278.346,386.484-1278.346,383.188
			z"/>
		<path fill="#FB7E3A" d="M-1272.668,384.938v-6.158h1.248v6.215c0,1.303,0.446,1.682,1.354,1.682c0.909,0,1.356-0.379,1.356-1.682
			v-6.215h1.248v6.158c0,2.008-0.844,2.82-2.604,2.82C-1271.854,387.76-1272.668,386.973-1272.668,384.938z"/>
		<path fill="#FB7E3A" d="M-1265.563,378.779h1.248v7.762h2.74v1.06h-3.988V378.779L-1265.563,378.779z"/>
		<path fill="#FB7E3A" d="M-1262.01,378.779h5.063v1.061h-1.912v7.761h-1.248v-7.761h-1.897L-1262.01,378.779L-1262.01,378.779z"/>
		<path fill="#FB7E3A" d="M-1254.051,383.934l-2.414-5.154h1.368l1.046,2.373c0.243,0.57,0.475,1.182,0.622,1.725
			c0.164-0.543,0.408-1.149,0.651-1.725l1.046-2.373h1.328l-2.4,5.154v3.66h-1.247V383.934z"/>
		<path fill="#FB7E3A" d="M-1247.361,383.188c0-3.646,0.869-4.568,2.699-4.568c1.887,0,2.713,0.881,2.713,4.568
			c0,3.662-0.867,4.57-2.713,4.57C-1246.533,387.76-1247.361,386.891-1247.361,383.188z M-1243.237,383.188
			c0-2.77-0.284-3.484-1.425-3.484c-1.139,0-1.41,0.719-1.41,3.484c0,2.767,0.271,3.484,1.41,3.484
			C-1243.522,386.674-1243.237,385.954-1243.237,383.188z"/>
		<path fill="#FB7E3A" d="M-1240.322,378.779h3.988v1.061h-2.74v2.699h2.197v1.043h-2.197v4.019h-1.248V378.779L-1240.322,378.779z"
			/>
		<path fill="#FB7E3A" d="M-1232.495,378.779h2.116c1.67,0,2.659,0.705,2.659,2.809c0,2.049-1.03,2.812-2.659,2.812h-0.867v3.201
			h-1.249V378.779L-1232.495,378.779z M-1231.246,379.838v3.512h0.73c0.979,0,1.508-0.354,1.508-1.764s-0.529-1.748-1.508-1.748
			H-1231.246z"/>
		<path fill="#FB7E3A" d="M-1219.982,383.934l-2.414-5.154h1.368l1.046,2.373c0.243,0.57,0.476,1.182,0.623,1.725
			c0.163-0.543,0.406-1.149,0.65-1.725l1.045-2.373h1.33l-2.401,5.154v3.66h-1.248L-1219.982,383.934L-1219.982,383.934z"/>
		<path fill="#FB7E3A" d="M-1215.957,383.188c0-3.297,0.72-4.568,2.86-4.568c0.651,0,1.234,0.16,1.521,0.322v1.15
			c-0.325-0.176-0.896-0.354-1.438-0.354c-1.289,0-1.651,0.584-1.651,3.445c0,2.889,0.394,3.459,1.651,3.459
			c0.56,0,1.193-0.188,1.521-0.379v1.149c-0.285,0.161-0.963,0.34-1.573,0.34C-1215.387,387.773-1215.957,386.484-1215.957,383.188z
			"/>
		<path fill="#FB7E3A" d="M-1206.137,383.594h-2.688v4.002h-1.248v-8.813h1.248v3.758h2.688v-3.758h1.247v8.813h-1.247V383.594z"/>
		<path fill="#FB7E3A" d="M-1203.265,383.188c0-3.646,0.869-4.568,2.699-4.568c1.888,0,2.713,0.881,2.713,4.568
			c0,3.662-0.866,4.57-2.713,4.57C-1202.435,387.76-1203.265,386.891-1203.265,383.188z M-1199.14,383.188
			c0-2.77-0.283-3.484-1.426-3.484c-1.14,0-1.41,0.719-1.41,3.484c0,2.767,0.271,3.484,1.41,3.484
			C-1199.424,386.674-1199.14,385.954-1199.14,383.188z"/>
		<path fill="#FB7E3A" d="M-1196.224,378.779h1.248v7.762h2.739v1.06h-3.987V378.779z"/>
		<path fill="#FB7E3A" d="M-1191.789,383.188c0-3.646,0.867-4.568,2.699-4.568c1.885,0,2.713,0.881,2.713,4.568
			c0,3.662-0.869,4.57-2.713,4.57C-1190.963,387.76-1191.789,386.891-1191.789,383.188z M-1187.666,383.188
			c0-2.77-0.284-3.484-1.424-3.484c-1.143,0-1.412,0.719-1.412,3.484c0,2.767,0.271,3.484,1.412,3.484
			C-1187.95,386.674-1187.666,385.954-1187.666,383.188z"/>
		<path fill="#FB7E3A" d="M-1185.022,383.188c0-3.475,0.922-4.568,3.215-4.568c0.649,0,1.344,0.176,1.643,0.352v1.152
			c-0.324-0.188-0.949-0.395-1.547-0.395c-1.466,0-2.021,0.543-2.021,3.459c0,2.891,0.395,3.484,1.668,3.484
			c0.395,0,0.72-0.058,0.963-0.123v-2.941h-1.304v-1.057h2.552v4.76c-0.259,0.164-1.289,0.449-2.195,0.449
			C-1184.44,387.76-1185.022,386.51-1185.022,383.188z"/>
		<path fill="#FB7E3A" d="M-1176.912,383.934l-2.416-5.154h1.371l1.045,2.373c0.244,0.57,0.477,1.182,0.623,1.725
			c0.164-0.543,0.408-1.149,0.651-1.725l1.044-2.373h1.328l-2.398,5.154v3.66h-1.248V383.934L-1176.912,383.934z"/>
	</g>
	<path fill="#FB7E3A" d="M-1224.119,379.686c0.551-0.002,1.07,0.18,1.309,0.365v-1.125c-0.237-0.146-0.823-0.312-1.418-0.312
		c-1.653,0-2.563,0.941-2.563,2.31c0,1.141,0.479,1.688,1.258,2.354l0.711,0.613c0.586,0.488,0.949,0.865,0.949,1.604
		c0,0.855-0.565,1.195-1.418,1.195c-0.646,0-1.181-0.18-1.487-0.395v1.146c0.271,0.155,0.837,0.313,1.601,0.313
		c1.65-0.004,2.563-0.939,2.563-2.308c0.002-1.137-0.482-1.687-1.259-2.354l-0.709-0.614c-0.59-0.502-0.953-0.865-0.951-1.601
		C-1225.535,380.025-1224.974,379.688-1224.119,379.686z"/>
	<path fill="#FB7E3A" d="M-1196.851,392.129c0.553-0.002,1.069,0.18,1.311,0.365v-1.125c-0.238-0.146-0.824-0.312-1.418-0.312
		c-1.655,0-2.566,0.94-2.566,2.31c0,1.141,0.482,1.688,1.26,2.354l0.709,0.612c0.586,0.486,0.949,0.864,0.949,1.603
		c0,0.856-0.563,1.196-1.416,1.196c-0.646,0-1.182-0.182-1.488-0.396v1.146c0.271,0.156,0.837,0.313,1.601,0.313
		c1.649-0.006,2.563-0.938,2.563-2.309c0.002-1.137-0.481-1.686-1.26-2.354l-0.709-0.615c-0.588-0.502-0.951-0.863-0.949-1.599
		C-1198.267,392.469-1197.703,392.131-1196.851,392.129z"/>
	<path fill="#FB7E3A" d="M-1158.892,392.129c0.553-0.002,1.069,0.18,1.311,0.365v-1.125c-0.238-0.146-0.824-0.312-1.418-0.312
		c-1.655,0-2.566,0.94-2.566,2.31c0,1.141,0.482,1.688,1.26,2.354l0.709,0.612c0.586,0.486,0.949,0.864,0.949,1.603
		c0,0.856-0.563,1.196-1.416,1.196c-0.646,0-1.182-0.182-1.487-0.396v1.146c0.271,0.156,0.836,0.313,1.6,0.313
		c1.65-0.006,2.563-0.938,2.563-2.309c0.003-1.137-0.481-1.686-1.26-2.354l-0.709-0.615c-0.588-0.502-0.951-0.863-0.949-1.599
		C-1160.308,392.469-1159.744,392.131-1158.892,392.129z"/>
	<path fill="#FB7E3A" d="M-1303.182,390.863l-4.668,9.178h1.4l4.721-9.285l-2.346-3.332c-0.375-0.51-0.604-1.135-0.604-1.813
		c0.005-1.7,1.384-3.08,3.084-3.082c0.029,0,0.057,0.009,0.082,0.009v-1.25c-0.025-0.002-0.053-0.011-0.082-0.011
		c-2.393,0.002-4.332,1.938-4.332,4.332c0,0.957,0.32,1.834,0.849,2.552L-1303.182,390.863z"/>
	<path fill="#FB7E3A" d="M-1294.785,385.848c0.003-0.082,0.018-0.16,0.018-0.242c0-3.771-3.057-6.824-6.823-6.826
		c-3.771,0.004-6.827,3.059-6.827,6.826c0,1.512,0.495,2.896,1.322,4.025l1.012,1.445l-4.559,8.959h1.4l4.609-9.068l-1.455-2.072
		c-0.679-0.922-1.082-2.059-1.084-3.289c0.006-3.08,2.498-5.57,5.577-5.578c3.08,0.008,5.574,2.498,5.578,5.578
		c0,0.15-0.025,0.299-0.039,0.445l-0.002,0.002l0.002,0.004l1.302,2.936h-1.545l-0.621,4.086h-2.132l-0.635,1.248h3.836l0.623-4.088
		h1.783l0.374-0.521L-1294.785,385.848z"/>
</g>
</svg>
