<?xml version="1.0" encoding="utf-8"?>
<!-- Generator: Adobe Illustrator 16.0.0, SVG Export Plug-In . SVG Version: 6.00 Build 0)  -->
<!DOCTYPE svg PUBLIC "-//W3C//DTD SVG 1.1//EN" "http://www.w3.org/Graphics/SVG/1.1/DTD/svg11.dtd">
<svg version="1.1" id="Layer_1" xmlns="http://www.w3.org/2000/svg" xmlns:xlink="http://www.w3.org/1999/xlink" x="0px" y="0px"
	 width="127.23px" height="21.581px" viewBox="-1310.293 494.406 127.23 21.581"
	 enable-background="new -1310.293 494.406 127.23 21.581" xml:space="preserve">
<g>
	<g>
		<path fill="#71A860" d="M-1283.416,507.008h1.288l2.348,8.816h-1.303l-0.517-1.994h-2.4l-0.502,1.994h-1.263L-1283.416,507.008z
			 M-1283.755,512.775h1.938l-0.365-1.467c-0.188-0.73-0.435-1.857-0.584-2.836c-0.162,0.979-0.42,2.104-0.608,2.836
			L-1283.755,512.775z"/>
		<path fill="#71A860" d="M-1278.804,507.008h1.438l2.779,7.025c-0.096-0.723-0.178-1.563-0.178-2.352V507h1.194v8.818h-1.438
			l-2.809-7.057c0.107,0.72,0.204,1.574,0.204,2.375v4.682h-1.194L-1278.804,507.008L-1278.804,507.008z"/>
		<path fill="#71A860" d="M-1271.604,507.008h2.307c2.308,0,2.851,1.23,2.851,4.408c0,3.135-0.558,4.406-2.851,4.406h-2.307V507.008
			z M-1270.355,508.04v6.754h0.963c1.275,0,1.655-0.582,1.655-3.377s-0.38-3.377-1.655-3.377H-1270.355L-1270.355,508.04z"/>
		<path fill="#71A860" d="M-1257.169,511.417c0-3.646,0.866-4.568,2.698-4.568c1.886,0,2.714,0.881,2.714,4.568
			c0,3.662-0.869,4.57-2.714,4.57C-1256.342,515.99-1257.169,515.12-1257.169,511.417z M-1253.046,511.417
			c0-2.77-0.285-3.484-1.425-3.484c-1.141,0-1.41,0.721-1.41,3.484c0,2.77,0.271,3.484,1.41,3.484
			C-1253.332,514.904-1253.046,514.184-1253.046,511.417z"/>
		<path fill="#71A860" d="M-1250.401,511.417c0-3.297,0.719-4.568,2.861-4.568c0.649,0,1.233,0.162,1.521,0.322v1.15
			c-0.326-0.178-0.896-0.354-1.438-0.354c-1.287,0-1.654,0.584-1.654,3.443c0,2.891,0.395,3.459,1.654,3.459
			c0.557,0,1.193-0.188,1.521-0.379v1.15c-0.285,0.162-0.964,0.342-1.572,0.342
			C-1249.833,516.002-1250.401,514.713-1250.401,511.417z"/>
		<path fill="#71A860" d="M-1244.517,507.008h1.248v8.816h-1.248V507.008L-1244.517,507.008z"/>
		<path fill="#71A860" d="M-1239.945,507.008h1.289l2.347,8.816h-1.302l-0.517-1.994h-2.4l-0.502,1.994h-1.263L-1239.945,507.008z
			 M-1240.285,512.775h1.938l-0.365-1.467c-0.188-0.73-0.435-1.857-0.583-2.836c-0.163,0.979-0.421,2.104-0.609,2.836
			L-1240.285,512.775z"/>
		<path fill="#71A860" d="M-1235.335,507.008h1.248v7.76h2.739v1.061h-3.987V507.008L-1235.335,507.008z"/>
		<path fill="#71A860" d="M-1222.842,511.417c0-3.297,0.721-4.568,2.86-4.568c0.65,0,1.234,0.162,1.521,0.322v1.15
			c-0.324-0.178-0.896-0.354-1.438-0.354c-1.289,0-1.654,0.584-1.654,3.443c0,2.891,0.396,3.459,1.654,3.459
			c0.558,0,1.193-0.188,1.521-0.379v1.15c-0.283,0.162-0.964,0.342-1.572,0.342
			C-1222.272,516.002-1222.842,514.713-1222.842,511.417z"/>
		<path fill="#71A860" d="M-1216.957,507.008h1.248v8.816h-1.248V507.008z"/>
		<path fill="#71A860" d="M-1213.74,507.008h4.123v1.061h-2.875v2.697h2.318v1.045h-2.318v2.957h2.875v1.061h-4.123V507.008z"/>
		<path fill="#71A860" d="M-1207.978,507.008h1.438l2.778,7.025c-0.096-0.723-0.177-1.563-0.177-2.352V507h1.194v8.818h-1.438
			l-2.808-7.057c0.104,0.72,0.203,1.574,0.203,2.375v4.682h-1.193L-1207.978,507.008L-1207.978,507.008z"/>
		<path fill="#71A860" d="M-1201.115,511.417c0-3.297,0.719-4.568,2.861-4.568c0.649,0,1.233,0.162,1.521,0.322v1.15
			c-0.325-0.178-0.896-0.354-1.438-0.354c-1.287,0-1.652,0.584-1.652,3.443c0,2.891,0.394,3.459,1.652,3.459
			c0.559,0,1.193-0.188,1.521-0.379v1.15c-0.285,0.162-0.963,0.342-1.573,0.342
			C-1200.547,516.002-1201.115,514.713-1201.115,511.417z"/>
		<path fill="#71A860" d="M-1195.229,507.008h4.123v1.061h-2.875v2.697h2.321v1.045h-2.321v2.957h2.875v1.061h-4.123V507.008z"/>
	</g>
	<g>
		<path fill="#71A860" d="M-1284.788,494.568h3.987v1.059h-2.74v2.699h2.198v1.045h-2.198v4.018h-1.247V494.568z"/>
		<path fill="#71A860" d="M-1278.589,494.568h1.288l2.348,8.816h-1.303l-0.517-1.994h-2.4l-0.502,1.994h-1.263L-1278.589,494.568z
			 M-1278.928,500.331h1.939l-0.365-1.465c-0.189-0.73-0.435-1.855-0.584-2.836c-0.162,0.979-0.42,2.104-0.608,2.836
			L-1278.928,500.331z"/>
		<path fill="#71A860" d="M-1274.316,498.977c0-3.297,0.719-4.57,2.86-4.57c0.651,0,1.234,0.162,1.521,0.325v1.151
			c-0.325-0.178-0.896-0.354-1.438-0.354c-1.288,0-1.653,0.584-1.653,3.443c0,2.891,0.394,3.459,1.653,3.459
			c0.558,0,1.192-0.188,1.521-0.381v1.15c-0.285,0.164-0.963,0.34-1.574,0.34C-1273.749,503.561-1274.316,502.272-1274.316,498.977z
			"/>
		<path fill="#71A860" d="M-1268.641,500.725v-6.156h1.248v6.213c0,1.303,0.447,1.682,1.355,1.682c0.909,0,1.355-0.379,1.355-1.682
			v-6.213h1.248v6.156c0,2.01-0.842,2.82-2.604,2.82C-1267.827,503.545-1268.641,502.76-1268.641,500.725z"/>
		<path fill="#71A860" d="M-1261.535,494.568h1.248v7.76h2.739v1.061h-3.987V494.568z"/>
		<path fill="#71A860" d="M-1257.981,494.568h5.061v1.059h-1.912v7.762h-1.248v-7.762h-1.898L-1257.981,494.568L-1257.981,494.568z"
			/>
		<path fill="#71A860" d="M-1250.023,499.723l-2.414-5.154h1.369l1.045,2.375c0.244,0.566,0.476,1.18,0.624,1.723
			c0.163-0.543,0.407-1.152,0.65-1.723l1.046-2.375h1.328l-2.4,5.154v3.662h-1.248V499.723z"/>
		<path fill="#71A860" d="M-1243.334,498.977c0-3.648,0.869-4.57,2.698-4.57c1.888,0,2.714,0.881,2.714,4.57
			c0,3.662-0.866,4.568-2.714,4.568C-1242.506,503.545-1243.334,502.68-1243.334,498.977z M-1239.21,498.977
			c0-2.77-0.283-3.484-1.425-3.484c-1.14,0-1.41,0.719-1.41,3.484c0,2.767,0.271,3.482,1.41,3.482
			C-1239.494,502.46-1239.21,501.743-1239.21,498.977z"/>
		<path fill="#71A860" d="M-1236.295,494.568h3.987v1.059h-2.739v2.699h2.196v1.045h-2.196v4.018h-1.248V494.568L-1236.295,494.568z
			"/>
		<path fill="#71A860" d="M-1228.467,494.568h2.115c1.669,0,2.659,0.703,2.659,2.809c0,2.051-1.031,2.811-2.659,2.811h-0.868v3.201
			h-1.247L-1228.467,494.568L-1228.467,494.568z M-1227.219,495.626v3.514h0.732c0.977,0,1.506-0.354,1.506-1.764
			s-0.528-1.75-1.506-1.75H-1227.219z"/>
		<path fill="#71A860" d="M-1222.582,498.977c0-3.648,0.869-4.57,2.699-4.57c1.887,0,2.713,0.881,2.713,4.57
			c0,3.662-0.867,4.568-2.713,4.568C-1221.754,503.545-1222.582,502.68-1222.582,498.977z M-1218.457,498.977
			c0-2.77-0.284-3.484-1.426-3.484c-1.141,0-1.41,0.719-1.41,3.484c0,2.767,0.271,3.482,1.41,3.482
			C-1218.741,502.46-1218.457,501.743-1218.457,498.977z"/>
		<path fill="#71A860" d="M-1215.543,494.568h1.248v7.76h2.739v1.061h-3.987V494.568L-1215.543,494.568z"/>
		<path fill="#71A860" d="M-1210.361,494.568h1.248v8.816h-1.248V494.568z"/>
		<path fill="#71A860" d="M-1208.069,494.568h5.061v1.059h-1.912v7.762h-1.248v-7.762h-1.897L-1208.069,494.568L-1208.069,494.568z"
			/>
		<path fill="#71A860" d="M-1201.967,494.568h1.247v8.816h-1.247V494.568z"/>
		<path fill="#71A860" d="M-1199.092,498.977c0-3.297,0.719-4.57,2.86-4.57c0.65,0,1.234,0.162,1.521,0.325v1.151
			c-0.324-0.178-0.896-0.354-1.438-0.354c-1.288,0-1.654,0.584-1.654,3.443c0,2.891,0.396,3.459,1.654,3.459
			c0.558,0,1.193-0.188,1.521-0.381v1.15c-0.283,0.164-0.964,0.34-1.571,0.34C-1198.523,503.561-1199.092,502.272-1199.092,498.977z
			"/>
		<path fill="#71A860" d="M-1191.66,494.568h1.287l2.348,8.816h-1.301l-0.519-1.994h-2.399l-0.504,1.994h-1.263L-1191.66,494.568z
			 M-1192,500.331h1.938l-0.366-1.465c-0.188-0.73-0.435-1.855-0.582-2.836c-0.163,0.979-0.423,2.104-0.608,2.836L-1192,500.331z"/>
		<path fill="#71A860" d="M-1187.049,494.568h1.247v7.76h2.739v1.061h-3.986V494.568L-1187.049,494.568z"/>
	</g>
	<path fill="#71A860" d="M-1259.808,507.915c0.552-0.002,1.07,0.182,1.31,0.365v-1.125c-0.237-0.146-0.823-0.311-1.418-0.311
		c-1.654,0-2.565,0.939-2.565,2.309c0,1.141,0.481,1.688,1.259,2.354l0.71,0.611c0.586,0.49,0.949,0.867,0.949,1.604
		c0,0.855-0.565,1.195-1.417,1.195c-0.646,0-1.18-0.18-1.488-0.393v1.146c0.271,0.154,0.838,0.313,1.602,0.313
		c1.649-0.006,2.563-0.941,2.563-2.309c0.002-1.139-0.48-1.688-1.259-2.354l-0.709-0.615c-0.588-0.502-0.952-0.863-0.95-1.601
		C-1261.223,508.254-1260.66,507.917-1259.808,507.915z"/>
	<path fill="#71A860" d="M-1225.479,507.915c0.551-0.002,1.07,0.182,1.31,0.365v-1.125c-0.236-0.146-0.822-0.311-1.418-0.311
		c-1.653,0-2.564,0.939-2.564,2.309c0,1.141,0.48,1.688,1.259,2.354l0.71,0.611c0.586,0.49,0.949,0.867,0.949,1.604
		c0,0.855-0.565,1.195-1.417,1.195c-0.646,0-1.181-0.18-1.488-0.393v1.146c0.271,0.154,0.837,0.313,1.602,0.313
		c1.649-0.006,2.563-0.941,2.563-2.309c0.002-1.139-0.48-1.688-1.259-2.354l-0.709-0.615c-0.588-0.502-0.952-0.863-0.95-1.601
		C-1226.894,508.254-1226.332,507.917-1225.479,507.915z"/>
	<path fill="#71A860" d="M-1187.519,507.915c0.553-0.002,1.07,0.182,1.311,0.365v-1.125c-0.236-0.146-0.822-0.311-1.418-0.311
		c-1.654,0-2.564,0.939-2.564,2.309c0,1.141,0.48,1.688,1.258,2.354l0.711,0.611c0.586,0.49,0.949,0.867,0.949,1.604
		c0,0.855-0.565,1.195-1.418,1.195c-0.645,0-1.18-0.18-1.488-0.393v1.146c0.271,0.154,0.839,0.313,1.603,0.313
		c1.649-0.006,2.563-0.941,2.563-2.309c0.003-1.139-0.479-1.688-1.258-2.354l-0.709-0.615c-0.588-0.502-0.953-0.863-0.951-1.601
		C-1188.933,508.254-1188.369,507.917-1187.519,507.915z"/>
	<g>
		<path fill="#71A860" d="M-1295.132,508.536l-1.101-0.637c-0.682,0.863-1.674,1.463-2.815,1.627v1.271
			C-1297.44,510.624-1296.042,509.772-1295.132,508.536z"/>
		<path fill="#71A860" d="M-1291.875,510.417c-1.574,2.348-4.185,3.936-7.174,4.131v1.246c3.45-0.197,6.459-2.033,8.253-4.754
			L-1291.875,510.417z"/>
		<path fill="#71A860" d="M-1292.958,509.79l-1.087-0.627c-1.135,1.604-2.937,2.705-5.003,2.893v1.246
			C-1296.519,513.109-1294.313,511.768-1292.958,509.79z"/>
	</g>
	<g>
		<path fill="#71A860" d="M-1294.507,502.936l-1.102,0.635c0.409,1.023,0.431,2.182,0.001,3.254l1.104,0.637
			C-1293.854,505.979-1293.893,504.342-1294.507,502.936z"/>
		<path fill="#71A860" d="M-1291.25,501.055c1.244,2.537,1.313,5.59-0.011,8.275l1.08,0.623c1.554-3.09,1.468-6.609,0.01-9.521
			L-1291.25,501.055z"/>
		<path fill="#71A860" d="M-1292.334,501.68l-1.087,0.627c0.822,1.785,0.875,3.896,0.002,5.777l1.079,0.623
			C-1291.241,506.422-1291.299,503.842-1292.334,501.68z"/>
	</g>
	<g>
		<path fill="#71A860" d="M-1304.832,507.456l1.1-0.637c-0.406-1.021-0.43-2.182,0-3.254l-1.104-0.637
			C-1305.483,504.413-1305.445,506.049-1304.832,507.456z"/>
		<path fill="#71A860" d="M-1308.09,509.335c-1.244-2.533-1.313-5.59,0.012-8.275l-1.081-0.621c-1.553,3.088-1.468,6.609-0.01,9.521
			L-1308.09,509.335z"/>
		<path fill="#71A860" d="M-1307.005,508.71l1.087-0.625c-0.823-1.787-0.875-3.896-0.003-5.777l-1.079-0.625
			C-1308.098,503.967-1308.04,506.547-1307.005,508.71z"/>
	</g>
	<g>
		<path fill="#71A860" d="M-1300.292,510.795l-0.001-1.271c-1.09-0.158-2.104-0.719-2.817-1.629l-1.103,0.643
			C-1303.256,509.838-1301.817,510.626-1300.292,510.795z"/>
		<path fill="#71A860" d="M-1300.295,514.557c-2.817-0.188-5.498-1.654-7.163-4.146l-1.078,0.627
			c1.896,2.887,4.991,4.572,8.241,4.77V514.557z"/>
		<path fill="#71A860" d="M-1300.294,513.305l0.003-1.254c-1.959-0.182-3.813-1.189-5.008-2.889l-1.08,0.621
			C-1304.946,511.879-1302.683,513.12-1300.294,513.305z"/>
	</g>
</g>
</svg>
