<?xml version="1.0" encoding="utf-8"?>
<!-- Generator: Adobe Illustrator 16.0.0, SVG Export Plug-In . SVG Version: 6.00 Build 0)  -->
<!DOCTYPE svg PUBLIC "-//W3C//DTD SVG 1.1//EN" "http://www.w3.org/Graphics/SVG/1.1/DTD/svg11.dtd">
<svg version="1.1" id="Layer_1" xmlns="http://www.w3.org/2000/svg" xmlns:xlink="http://www.w3.org/1999/xlink" x="0px" y="0px"
	 width="133.234px" height="21.565px" viewBox="-1307.506 126.24 133.234 21.565"
	 enable-background="new -1307.506 126.24 133.234 21.565" xml:space="preserve">
<g>
	<polygon fill="#DC4E28" points="-1298.85,142.672 -1302.585,134.484 -1303.773,134.485 -1307.506,142.673 -1306.137,142.673 
		-1303.178,136.183 -1300.219,142.672 	"/>
	<polygon fill="#DC4E28" points="-1286.249,142.672 -1289.981,134.484 -1291.171,134.485 -1294.904,142.673 -1293.536,142.673 
		-1290.577,136.183 -1287.616,142.672 	"/>
	<polygon fill="#DC4E28" points="-1298.85,146.413 -1307.506,146.413 -1306.259,147.66 -1300.096,147.66 	"/>
	<polygon fill="#DC4E28" points="-1286.249,146.413 -1294.904,146.413 -1293.657,147.66 -1287.495,147.66 	"/>
	<rect x="-1307.506" y="143.919" fill="#DC4E28" width="8.656" height="1.246"/>
	<path fill="#DC4E28" d="M-1303.205,133.237h12.652l-0.566-1.245h-11.519L-1303.205,133.237z"/>
	<rect x="-1294.904" y="143.919" fill="#DC4E28" width="8.656" height="1.246"/>
	<polygon fill="#DC4E28" points="-1294.904,126.401 -1298.85,126.401 -1298.85,127.648 -1297.501,127.648 -1297.501,130.744 
		-1296.254,130.744 -1296.254,127.648 -1294.904,127.648 	"/>
	<g>
		<path fill="#DC4E28" d="M-1281.979,126.404h3.997v1.061h-2.746v2.706h2.202v1.049h-2.202v4.022h-1.251V126.404z"/>
		<path fill="#DC4E28" d="M-1275.793,126.404h1.292l2.353,8.838h-1.305l-0.519-1.999h-2.405l-0.503,1.999h-1.266L-1275.793,126.404z
			 M-1276.131,132.182h1.943l-0.367-1.47c-0.188-0.732-0.435-1.861-0.584-2.841c-0.163,0.979-0.421,2.106-0.611,2.841
			L-1276.131,132.182z"/>
		<path fill="#DC4E28" d="M-1271.548,130.822c0-3.304,0.722-4.582,2.868-4.582c0.652,0,1.237,0.164,1.522,0.327v1.155
			c-0.326-0.179-0.897-0.354-1.441-0.354c-1.292,0-1.658,0.585-1.658,3.453c0,2.896,0.396,3.468,1.658,3.468
			c0.559,0,1.196-0.188,1.522-0.381v1.155c-0.285,0.163-0.966,0.34-1.577,0.34C-1270.978,135.418-1271.548,134.126-1271.548,130.822
			z"/>
		<path fill="#DC4E28" d="M-1265.755,132.576v-6.173h1.25v6.228c0,1.307,0.448,1.688,1.359,1.688s1.359-0.381,1.359-1.688v-6.228
			h1.251v6.173c0,2.012-0.844,2.827-2.61,2.827C-1264.939,135.404-1265.755,134.615-1265.755,132.576z"/>
		<path fill="#DC4E28" d="M-1258.669,126.404h1.251v7.776h2.746v1.063h-3.997V126.404z"/>
		<path fill="#DC4E28" d="M-1255.146,126.404h5.071v1.061h-1.917v7.777h-1.25v-7.777h-1.903L-1255.146,126.404L-1255.146,126.404z"
			/>
		<path fill="#DC4E28" d="M-1247.776,131.57l-2.42-5.166h1.373l1.047,2.38c0.245,0.57,0.477,1.183,0.625,1.729
			c0.163-0.543,0.408-1.155,0.651-1.729l1.048-2.38h1.333l-2.406,5.166v3.672h-1.251V131.57L-1247.776,131.57z"/>
		<path fill="#DC4E28" d="M-1241.086,130.822c0-3.656,0.87-4.582,2.706-4.582c1.891,0,2.72,0.885,2.72,4.582
			c0,3.672-0.87,4.582-2.72,4.582C-1240.256,135.404-1241.086,134.533-1241.086,130.822z M-1236.953,130.822
			c0-2.772-0.285-3.493-1.428-3.493s-1.414,0.721-1.414,3.493c0,2.773,0.271,3.494,1.414,3.494
			C-1237.237,134.317-1236.953,133.596-1236.953,130.822z"/>
		<path fill="#DC4E28" d="M-1234.067,126.404h3.997v1.061h-2.746v2.706h2.202v1.049h-2.202v4.022h-1.251V126.404L-1234.067,126.404z
			"/>
		<path fill="#DC4E28" d="M-1281.979,138.804h1.251v7.774h2.746v1.063h-3.997V138.804z"/>
		<path fill="#DC4E28" d="M-1275.602,138.804h1.292l2.353,8.837h-1.306l-0.517-1.999h-2.406l-0.503,1.999h-1.265L-1275.602,138.804z
			 M-1275.941,144.582h1.943l-0.366-1.469c-0.19-0.733-0.436-1.862-0.584-2.841c-0.163,0.979-0.421,2.105-0.612,2.841
			L-1275.941,144.582z"/>
		<path fill="#DC4E28" d="M-1271.901,138.804h1.25l0.721,4.351c0.122,0.707,0.272,2.095,0.354,3.154
			c0.082-1.062,0.229-2.436,0.354-3.154l0.734-4.351h1.277l0.733,4.351c0.123,0.707,0.259,2.08,0.34,3.128
			c0.082-1.048,0.245-2.421,0.367-3.128l0.722-4.351h1.21l-1.687,8.837h-1.292l-0.721-4.353c-0.108-0.65-0.259-1.891-0.341-2.91
			c-0.082,1.021-0.218,2.259-0.325,2.91l-0.734,4.353h-1.277L-1271.901,138.804z"/>
		<path fill="#DC4E28" d="M-1258.738,138.804h1.292l2.352,8.837h-1.305l-0.518-1.999h-2.405l-0.503,1.999h-1.266L-1258.738,138.804z
			 M-1259.079,144.582h1.942l-0.366-1.469c-0.189-0.733-0.436-1.862-0.584-2.841c-0.163,0.979-0.421,2.105-0.611,2.841
			L-1259.079,144.582z"/>
		<path fill="#DC4E28" d="M-1254.154,138.804h1.44l2.786,7.042c-0.095-0.723-0.177-1.563-0.177-2.354v-4.688h1.197v8.837h-1.441
			l-2.813-7.07c0.106,0.722,0.203,1.577,0.203,2.38v4.689h-1.195V138.804L-1254.154,138.804z"/>
		<path fill="#DC4E28" d="M-1246.974,138.804h2.313c2.312,0,2.854,1.235,2.854,4.418c0,3.141-0.558,4.418-2.854,4.418h-2.313
			V138.804L-1246.974,138.804z M-1245.723,139.836v6.771h0.966c1.277,0,1.657-0.584,1.657-3.385c0-2.803-0.38-3.387-1.657-3.387
			L-1245.723,139.836L-1245.723,139.836z"/>
		<path fill="#DC4E28" d="M-1238,143.223c0-3.306,0.722-4.582,2.869-4.582c0.651,0,1.236,0.164,1.521,0.327v1.153
			c-0.326-0.178-0.896-0.354-1.44-0.354c-1.292,0-1.659,0.585-1.659,3.454c0,2.896,0.396,3.467,1.659,3.467
			c0.559,0,1.195-0.189,1.521-0.381v1.154c-0.285,0.163-0.965,0.342-1.577,0.342C-1237.427,147.818-1238,146.526-1238,143.223z"/>
		<path fill="#DC4E28" d="M-1232.137,138.804h2.041c1.632,0,2.8,0.61,2.8,2.608c0,1.399-0.681,2.08-1.535,2.395l1.875,3.834h-1.426
			l-1.66-3.604h-0.843v3.604h-1.252V138.804L-1232.137,138.804z M-1230.885,139.863v3.114h0.666c0.979,0,1.632-0.204,1.632-1.563
			c0-1.347-0.651-1.551-1.632-1.551L-1230.885,139.863L-1230.885,139.863z"/>
		<path fill="#DC4E28" d="M-1225.635,138.804h1.25v8.837h-1.25V138.804z"/>
		<path fill="#DC4E28" d="M-1222.455,138.804h1.617l1.551,4.647l1.563-4.647h1.563v8.837h-1.197v-4.597
			c0-0.979,0.066-1.999,0.148-2.785l-1.604,4.758h-0.992l-1.618-4.771c0.082,0.789,0.163,1.821,0.163,2.801v4.597h-1.196v-8.837
			L-1222.455,138.804L-1222.455,138.804z"/>
		<path fill="#DC4E28" d="M-1214.227,138.804h1.251v8.837h-1.251V138.804z"/>
		<path fill="#DC4E28" d="M-1211.045,138.804h1.44l2.787,7.042c-0.096-0.723-0.178-1.563-0.178-2.354v-4.688h1.197v8.837h-1.44
			l-2.813-7.07c0.107,0.722,0.203,1.577,0.203,2.38v4.689h-1.194L-1211.045,138.804L-1211.045,138.804z"/>
		<path fill="#DC4E28" d="M-1204.203,143.223c0-3.657,0.869-4.582,2.705-4.582c1.892,0,2.72,0.884,2.72,4.582
			c0,3.671-0.869,4.582-2.72,4.582C-1203.375,147.804-1204.203,146.934-1204.203,143.223z M-1200.069,143.223
			c0-2.772-0.285-3.494-1.429-3.494c-1.143,0-1.414,0.722-1.414,3.494c0,2.771,0.271,3.492,1.414,3.492
			S-1200.069,145.995-1200.069,143.223z"/>
		<path fill="#DC4E28" d="M-1197.188,138.804h1.252v7.774h2.746v1.063h-3.998V138.804L-1197.188,138.804z"/>
		<path fill="#DC4E28" d="M-1192.778,143.223c0-3.657,0.868-4.582,2.705-4.582c1.891,0,2.719,0.884,2.719,4.582
			c0,3.671-0.869,4.582-2.719,4.582C-1191.95,147.804-1192.778,146.934-1192.778,143.223z M-1188.646,143.223
			c0-2.772-0.285-3.494-1.428-3.494c-1.143,0-1.414,0.722-1.414,3.494c0,2.771,0.271,3.492,1.414,3.492
			C-1188.931,146.715-1188.646,145.995-1188.646,143.223z"/>
		<path fill="#DC4E28" d="M-1186.032,143.223c0-3.479,0.924-4.582,3.221-4.582c0.651,0,1.348,0.177,1.646,0.354v1.155
			c-0.324-0.189-0.951-0.396-1.549-0.396c-1.471,0-2.025,0.543-2.025,3.469c0,2.896,0.393,3.494,1.672,3.494
			c0.394,0,0.721-0.057,0.965-0.123v-2.95h-1.305v-1.063h2.555v4.771c-0.258,0.163-1.291,0.449-2.201,0.449
			C-1185.448,147.804-1186.032,146.553-1186.032,143.223z"/>
		<path fill="#DC4E28" d="M-1177.93,143.97l-2.42-5.166h1.373l1.047,2.379c0.246,0.569,0.478,1.184,0.625,1.728
			c0.164-0.543,0.408-1.155,0.652-1.728l1.047-2.379h1.334l-2.406,5.166v3.671h-1.252V143.97L-1177.93,143.97z"/>
	</g>
</g>
</svg>
