<?xml version="1.0" encoding="utf-8"?>
<!-- Generator: Adobe Illustrator 16.0.0, SVG Export Plug-In . SVG Version: 6.00 Build 0)  -->
<!DOCTYPE svg PUBLIC "-//W3C//DTD SVG 1.1//EN" "http://www.w3.org/Graphics/SVG/1.1/DTD/svg11.dtd">
<svg version="1.1" id="Layer_1" xmlns="http://www.w3.org/2000/svg" xmlns:xlink="http://www.w3.org/1999/xlink" x="0px" y="0px"
	 width="146.218px" height="21.585px" viewBox="-1308.205 416.479 146.218 21.585"
	 enable-background="new -1308.205 416.479 146.218 21.585" xml:space="preserve">
<g>
	<g>
		<path fill="#27ABAD" d="M-1282.69,429.083h1.722c1.736,0,2.945,0.445,2.945,2.416c0,1.017-0.408,1.601-0.99,1.926
			c0.732,0.285,1.263,0.896,1.263,2.063c0,1.938-1.193,2.416-2.933,2.416h-2.007V429.083z M-1281.443,430.113v2.878h0.437
			c0.989,0,1.694-0.097,1.694-1.452c0-1.344-0.705-1.426-1.694-1.426H-1281.443z M-1281.443,433.993v2.877h0.719
			c0.99,0,1.685-0.082,1.685-1.426c0-1.354-0.705-1.451-1.685-1.451H-1281.443L-1281.443,433.993z"/>
		<path fill="#27ABAD" d="M-1276.275,429.083h1.248v8.816h-1.248V429.083z"/>
		<path fill="#27ABAD" d="M-1273.4,433.493c0-3.648,0.867-4.57,2.699-4.57c1.885,0,2.713,0.881,2.713,4.57
			c0,3.66-0.869,4.568-2.713,4.568C-1272.574,438.065-1273.4,437.195-1273.4,433.493z M-1269.277,433.493
			c0-2.77-0.285-3.484-1.424-3.484c-1.141,0-1.412,0.72-1.412,3.484c0,2.764,0.271,3.482,1.412,3.482
			C-1269.563,436.977-1269.277,436.258-1269.277,433.493z"/>
		<path fill="#27ABAD" d="M-1261.508,433.493c0-3.299,0.721-4.57,2.86-4.57c0.652,0,1.236,0.162,1.521,0.324v1.15
			c-0.326-0.176-0.896-0.354-1.439-0.354c-1.289,0-1.654,0.584-1.654,3.442c0,2.894,0.396,3.461,1.654,3.461
			c0.558,0,1.193-0.188,1.521-0.383v1.151c-0.285,0.164-0.965,0.341-1.574,0.341
			C-1260.938,438.077-1261.508,436.788-1261.508,433.493z"/>
		<path fill="#27ABAD" d="M-1255.622,429.083h1.248v8.816h-1.248V429.083z"/>
		<path fill="#27ABAD" d="M-1252.408,429.083h4.125v1.062h-2.877v2.696h2.32v1.045h-2.32v2.957h2.877v1.062h-4.125V429.083z"/>
		<path fill="#27ABAD" d="M-1246.646,429.083h1.439l2.778,7.025c-0.094-0.721-0.176-1.563-0.176-2.35v-4.682h1.193v8.817h-1.438
			l-2.809-7.058c0.107,0.722,0.203,1.574,0.203,2.375v4.683h-1.193v-8.813L-1246.646,429.083L-1246.646,429.083z"/>
		<path fill="#27ABAD" d="M-1239.781,433.493c0-3.299,0.719-4.57,2.861-4.57c0.649,0,1.233,0.162,1.52,0.324v1.15
			c-0.326-0.176-0.896-0.354-1.438-0.354c-1.287,0-1.654,0.584-1.654,3.442c0,2.894,0.393,3.461,1.654,3.461
			c0.557,0,1.192-0.188,1.52-0.383v1.151c-0.285,0.164-0.963,0.341-1.572,0.341
			C-1239.211,438.077-1239.781,436.788-1239.781,433.493z"/>
		<path fill="#27ABAD" d="M-1233.897,429.083h4.125v1.062h-2.877v2.696h2.319v1.045h-2.319v2.957h2.877v1.062h-4.125V429.083z"/>
		<path fill="#27ABAD" d="M-1225.334,429.083h4.125v1.062h-2.877v2.696h2.316v1.045h-2.316v2.957h2.877v1.062h-4.125V429.083z"/>
		<path fill="#27ABAD" d="M-1219.57,429.083h1.438l2.778,7.025c-0.094-0.721-0.176-1.563-0.176-2.35v-4.682h1.193v8.817h-1.438
			l-2.81-7.058c0.106,0.722,0.205,1.574,0.205,2.375v4.683h-1.194L-1219.57,429.083L-1219.57,429.083z"/>
		<path fill="#27ABAD" d="M-1212.707,433.493c0-3.475,0.922-4.57,3.215-4.57c0.647,0,1.342,0.177,1.641,0.353v1.153
			c-0.323-0.188-0.948-0.396-1.547-0.396c-1.465,0-2.02,0.543-2.02,3.461c0,2.893,0.393,3.483,1.668,3.483
			c0.393,0,0.719-0.054,0.963-0.121v-2.942h-1.305v-1.06h2.553v4.765c-0.26,0.159-1.289,0.444-2.197,0.444
			C-1212.125,438.065-1212.707,436.816-1212.707,433.493z"/>
		<path fill="#27ABAD" d="M-1205.697,429.083h1.248v8.816h-1.248V429.083z"/>
		<path fill="#27ABAD" d="M-1202.484,429.083h1.438l2.78,7.025c-0.094-0.721-0.176-1.563-0.176-2.35v-4.682h1.193v8.817h-1.439
			l-2.809-7.058c0.108,0.722,0.205,1.574,0.205,2.375v4.683h-1.195v-8.815h0.002L-1202.484,429.083L-1202.484,429.083z"/>
		<path fill="#27ABAD" d="M-1195.283,429.083h4.125v1.062h-2.877v2.696h2.32v1.045h-2.32v2.957h2.877v1.062h-4.125V429.083z"/>
		<path fill="#27ABAD" d="M-1189.521,429.083h4.125v1.062h-2.877v2.696h2.319v1.045h-2.319v2.957h2.877v1.062h-4.125V429.083z"/>
		<path fill="#27ABAD" d="M-1183.756,429.083h2.034c1.63,0,2.796,0.609,2.796,2.604c0,1.396-0.68,2.072-1.531,2.389l1.871,3.824
			h-1.427l-1.651-3.598h-0.844v3.598h-1.248V429.083L-1183.756,429.083z M-1182.508,430.143v3.105h0.666
			c0.979,0,1.627-0.205,1.627-1.562c0-1.347-0.648-1.55-1.627-1.55L-1182.508,430.143L-1182.508,430.143z"/>
		<path fill="#27ABAD" d="M-1177.232,429.083h1.248v8.816h-1.248V429.083z"/>
		<path fill="#27ABAD" d="M-1174.019,429.083h1.438l2.778,7.025c-0.095-0.721-0.177-1.563-0.177-2.35v-4.682h1.192v8.817h-1.438
			l-2.809-7.058c0.106,0.722,0.205,1.574,0.205,2.375v4.683h-1.195L-1174.019,429.083L-1174.019,429.083z"/>
		<path fill="#27ABAD" d="M-1167.156,433.493c0-3.475,0.922-4.57,3.215-4.57c0.65,0,1.344,0.177,1.642,0.353v1.153
			c-0.322-0.188-0.947-0.396-1.546-0.396c-1.465,0-2.021,0.543-2.021,3.461c0,2.893,0.393,3.483,1.668,3.483
			c0.396,0,0.719-0.054,0.963-0.121v-2.942h-1.304v-1.06h2.552v4.765c-0.259,0.159-1.289,0.444-2.197,0.444
			C-1166.572,438.065-1167.156,436.816-1167.156,433.493z"/>
	</g>
	<g>
		<path fill="#27ABAD" d="M-1282.69,416.643h3.987v1.061h-2.74v2.695h2.199v1.045h-2.199v4.02h-1.247V416.643z"/>
		<path fill="#27ABAD" d="M-1276.492,416.643h1.289l2.346,8.814h-1.301l-0.518-1.994h-2.4l-0.502,1.994h-1.262L-1276.492,416.643z
			 M-1276.831,422.404h1.938l-0.364-1.465c-0.189-0.729-0.435-1.854-0.584-2.834c-0.16,0.98-0.421,2.105-0.607,2.834
			L-1276.831,422.404z"/>
		<path fill="#27ABAD" d="M-1272.221,421.049c0-3.297,0.722-4.57,2.861-4.57c0.652,0,1.236,0.164,1.521,0.324v1.152
			c-0.324-0.177-0.896-0.353-1.438-0.353c-1.289,0-1.654,0.584-1.654,3.442c0,2.892,0.396,3.459,1.654,3.459
			c0.557,0,1.193-0.188,1.521-0.381v1.148c-0.283,0.164-0.964,0.34-1.572,0.34C-1271.65,425.633-1272.221,424.344-1272.221,421.049z
			"/>
		<path fill="#27ABAD" d="M-1266.543,422.797v-6.154h1.248v6.211c0,1.305,0.446,1.684,1.354,1.684c0.91,0,1.357-0.379,1.357-1.684
			v-6.211h1.248v6.154c0,2.008-0.845,2.822-2.605,2.822C-1265.731,425.62-1266.543,424.833-1266.543,422.797z"/>
		<path fill="#27ABAD" d="M-1259.438,416.643h1.248v7.758h2.74v1.063h-3.988V416.643L-1259.438,416.643z"/>
		<path fill="#27ABAD" d="M-1255.885,416.643h5.063v1.061h-1.912v7.76h-1.248v-7.76h-1.897L-1255.885,416.643L-1255.885,416.643z"/>
		<path fill="#27ABAD" d="M-1247.926,421.795l-2.414-5.152h1.368l1.046,2.371c0.243,0.57,0.475,1.182,0.622,1.725
			c0.164-0.543,0.408-1.148,0.652-1.725l1.045-2.371h1.328l-2.4,5.152v3.662h-1.247V421.795L-1247.926,421.795z"/>
		<path fill="#27ABAD" d="M-1241.236,421.049c0-3.646,0.869-4.57,2.699-4.57c1.887,0,2.713,0.883,2.713,4.57
			c0,3.662-0.867,4.57-2.713,4.57C-1240.408,425.62-1241.236,424.752-1241.236,421.049z M-1237.113,421.049
			c0-2.769-0.283-3.484-1.424-3.484c-1.142,0-1.41,0.721-1.41,3.484c0,2.768,0.27,3.484,1.41,3.484
			C-1237.397,424.534-1237.113,423.816-1237.113,421.049z"/>
		<path fill="#27ABAD" d="M-1234.197,416.643h3.988v1.061h-2.74v2.695h2.197v1.045h-2.197v4.02h-1.248V416.643L-1234.197,416.643z"
			/>
	</g>
	<path fill="#27ABAD" d="M-1264.146,429.991c0.551-0.004,1.07,0.18,1.312,0.363v-1.123c-0.238-0.146-0.824-0.311-1.418-0.311
		c-1.656,0-2.566,0.938-2.566,2.307c0,1.141,0.482,1.688,1.258,2.355l0.711,0.608c0.586,0.49,0.949,0.869,0.949,1.604
		c0,0.854-0.565,1.195-1.418,1.195c-0.645,0-1.18-0.182-1.488-0.395v1.146c0.271,0.152,0.838,0.314,1.603,0.313
		c1.649-0.004,2.563-0.939,2.563-2.307c0.002-1.142-0.479-1.688-1.258-2.355l-0.709-0.611c-0.588-0.506-0.953-0.863-0.951-1.602
		C-1265.56,430.329-1264.997,429.993-1264.146,429.991z"/>
	<path fill="#27ABAD" d="M-1296.247,427.272c0,0.73-0.595,1.324-1.326,1.324c-0.731,0-1.324-0.594-1.324-1.324
		c0-0.729,0.593-1.326,1.324-1.326C-1296.842,425.946-1296.247,426.54-1296.247,427.272z M-1297.572,424.697
		c-1.422,0-2.572,1.152-2.572,2.572c0,1.422,1.15,2.572,2.572,2.572c1.42,0,2.572-1.15,2.572-2.572
		C-1295,425.852-1296.152,424.697-1297.572,424.697z"/>
	<path fill="#27ABAD" d="M-1290.867,420.372c0,0.73-0.592,1.324-1.324,1.324c-0.73,0-1.325-0.594-1.325-1.324
		c0-0.729,0.595-1.324,1.325-1.324C-1291.459,419.047-1290.867,419.643-1290.867,420.372z M-1292.191,417.801
		c-1.42,0-2.572,1.15-2.572,2.57c0,1.422,1.152,2.573,2.572,2.573c1.421,0,2.572-1.151,2.572-2.573
		C-1289.62,418.954-1290.771,417.801-1292.191,417.801z"/>
	<path fill="#27ABAD" d="M-1297.572,417.889c0.289,0,0.572,0.018,0.854,0.043l0.112-1.24c-0.318-0.027-0.642-0.049-0.97-0.049
		c-5.871,0-10.629,4.758-10.629,10.629c0,5.869,4.758,10.631,10.629,10.631c5.871,0,10.631-4.76,10.631-10.631
		c0-1.229-0.221-2.406-0.604-3.506l-1.177,0.41c0.34,0.973,0.533,2.01,0.533,3.096c0,5.184-4.201,9.383-9.384,9.383
		c-5.182,0-9.383-4.199-9.383-9.383C-1306.956,422.088-1302.754,417.889-1297.572,417.889z"/>
	<path fill="#27ABAD" d="M-1297.572,420.383c0.211,0,0.42,0.014,0.627,0.031l0.113-1.242c-0.244-0.021-0.49-0.037-0.74-0.037
		c-4.493,0-8.137,3.645-8.137,8.137s3.644,8.137,8.137,8.137c4.492,0,8.136-3.645,8.136-8.137c0-0.939-0.168-1.844-0.463-2.684
		l-1.177,0.41c0.25,0.713,0.392,1.475,0.392,2.271c0,3.806-3.084,6.89-6.888,6.89c-3.805,0-6.889-3.084-6.889-6.89
		C-1304.461,423.467-1301.377,420.383-1297.572,420.383z"/>
</g>
</svg>
