<?xml version="1.0" encoding="utf-8"?>
<!-- Generator: Adobe Illustrator 16.0.0, SVG Export Plug-In . SVG Version: 6.00 Build 0)  -->
<!DOCTYPE svg PUBLIC "-//W3C//DTD SVG 1.1//EN" "http://www.w3.org/Graphics/SVG/1.1/DTD/svg11.dtd">
<svg version="1.1" id="Layer_1" xmlns="http://www.w3.org/2000/svg" xmlns:xlink="http://www.w3.org/1999/xlink" x="0px" y="0px"
	 width="129.588px" height="31.048px" viewBox="-1308.901 333.554 129.588 31.048"
	 enable-background="new -1308.901 333.554 129.588 31.048" xml:space="preserve">
<g>
	<g>
		<path fill="#825491" d="M-1284.363,346.159h1.303l1.111,4.584c0.164,0.689,0.367,1.855,0.488,2.779
			c0.123-0.924,0.325-2.09,0.516-2.779l1.1-4.584h1.263l-2.238,8.814h-1.303L-1284.363,346.159z"/>
		<path fill="#825491" d="M-1277.595,346.159h4.125v1.059h-2.877v2.699h2.318v1.043h-2.318v2.959h2.877v1.06h-4.125V346.159z"/>
		<path fill="#825491" d="M-1272.742,346.159h5.061v1.059h-1.911v7.761h-1.248v-7.761h-1.9L-1272.742,346.159L-1272.742,346.159z"/>
		<path fill="#825491" d="M-1266.638,346.159h4.123v1.059h-2.877v2.699h2.32v1.043h-2.32v2.959h2.877v1.06h-4.123V346.159z"/>
		<path fill="#825491" d="M-1260.875,346.159h2.035c1.627,0,2.793,0.607,2.793,2.604c0,1.396-0.681,2.074-1.531,2.39l1.871,3.824
			h-1.424l-1.656-3.597h-0.84v3.597h-1.248V346.159z M-1259.627,347.217v3.104h0.664c0.977,0,1.629-0.201,1.629-1.561
			c0-1.344-0.652-1.547-1.629-1.547L-1259.627,347.217L-1259.627,347.217z"/>
		<path fill="#825491" d="M-1254.354,346.159h1.248v8.814h-1.248V346.159z"/>
		<path fill="#825491" d="M-1251.138,346.159h1.438l2.779,7.023c-0.095-0.721-0.177-1.563-0.177-2.348v-4.683h1.193v8.815h-1.438
			l-2.812-7.055c0.109,0.719,0.205,1.57,0.205,2.373v4.682h-1.195v-8.815h0.004L-1251.138,346.159L-1251.138,346.159
			L-1251.138,346.159z"/>
		<path fill="#825491" d="M-1242.581,346.159h1.287l2.348,8.814h-1.303l-0.517-1.994h-2.399l-0.502,1.994h-1.263L-1242.581,346.159z
			 M-1242.919,351.922h1.938l-0.363-1.465c-0.19-0.732-0.436-1.857-0.584-2.836c-0.161,0.979-0.422,2.104-0.608,2.836
			L-1242.919,351.922z"/>
		<path fill="#825491" d="M-1237.97,346.159h2.033c1.629,0,2.795,0.607,2.795,2.604c0,1.396-0.678,2.074-1.53,2.39l1.873,3.824
			h-1.427l-1.653-3.597h-0.843v3.597h-1.248V346.159z M-1236.723,347.217v3.104h0.664c0.979,0,1.629-0.201,1.629-1.561
			c0-1.344-0.649-1.547-1.629-1.547L-1236.723,347.217L-1236.723,347.217z"/>
		<path fill="#825491" d="M-1230.43,351.313l-2.414-5.152h1.369l1.045,2.375c0.242,0.566,0.476,1.182,0.625,1.725
			c0.16-0.543,0.404-1.151,0.648-1.725l1.045-2.375h1.33l-2.402,5.152v3.662h-1.246V351.313L-1230.43,351.313z"/>
		<path fill="#825491" d="M-1223.4,346.159h1.613l1.547,4.639l1.561-4.639h1.562v8.814h-1.194v-4.586
			c0-0.979,0.067-1.994,0.149-2.781l-1.603,4.748h-0.989l-1.613-4.762c0.08,0.787,0.162,1.816,0.162,2.795v4.586h-1.192
			L-1223.4,346.159L-1223.4,346.159z"/>
		<path fill="#825491" d="M-1215.156,346.159h4.125v1.059h-2.877v2.699h2.32v1.043h-2.32v2.959h2.877v1.06h-4.125V346.159z"/>
		<path fill="#825491" d="M-1209.393,346.159h2.308c2.308,0,2.851,1.23,2.851,4.406c0,3.135-0.558,4.408-2.851,4.408h-2.308V346.159
			z M-1208.145,347.19v6.754h0.963c1.275,0,1.654-0.582,1.654-3.377s-0.379-3.377-1.654-3.377H-1208.145L-1208.145,347.19z"/>
		<path fill="#825491" d="M-1202.611,346.159h1.248v8.814h-1.248V346.159z"/>
		<path fill="#825491" d="M-1199.736,350.566c0-3.297,0.719-4.568,2.861-4.568c0.651,0,1.235,0.162,1.52,0.322v1.152
			c-0.324-0.176-0.895-0.354-1.438-0.354c-1.287,0-1.654,0.584-1.654,3.444c0,2.892,0.395,3.459,1.654,3.459
			c0.557,0,1.194-0.188,1.52-0.379v1.149c-0.285,0.164-0.963,0.342-1.572,0.342
			C-1199.166,355.152-1199.736,353.863-1199.736,350.566z"/>
		<path fill="#825491" d="M-1193.852,346.159h1.248v8.814h-1.248V346.159z"/>
		<path fill="#825491" d="M-1190.637,346.159h1.438l2.778,7.023c-0.095-0.721-0.177-1.563-0.177-2.348v-4.683h1.193v8.815h-1.438
			l-2.813-7.055c0.108,0.719,0.205,1.57,0.205,2.373v4.682h-1.193v-8.815h0.003v0.006L-1190.637,346.159L-1190.637,346.159z"/>
		<path fill="#825491" d="M-1183.438,346.159h4.125v1.059h-2.877v2.699h2.32v1.043h-2.32v2.959h2.877v1.06h-4.125V346.159z"/>
	</g>
	<g>
		<path fill="#825491" d="M-1283.388,333.715h3.986v1.059h-2.74v2.699h2.199v1.045h-2.199v4.018h-1.246V333.715z"/>
		<path fill="#825491" d="M-1277.191,333.715h1.289l2.348,8.816h-1.303l-0.516-1.994h-2.402l-0.502,1.994h-1.262L-1277.191,333.715z
			 M-1277.529,339.481h1.939l-0.365-1.465c-0.191-0.73-0.437-1.855-0.584-2.836c-0.162,0.979-0.42,2.104-0.609,2.836
			L-1277.529,339.481z"/>
		<path fill="#825491" d="M-1272.918,338.124c0-3.297,0.719-4.57,2.858-4.57c0.652,0,1.236,0.162,1.521,0.324v1.15
			c-0.326-0.176-0.896-0.354-1.439-0.354c-1.287,0-1.651,0.584-1.651,3.443c0,2.893,0.393,3.459,1.651,3.459
			c0.56,0,1.193-0.188,1.521-0.379v1.149c-0.285,0.163-0.963,0.34-1.574,0.34C-1272.35,342.71-1272.918,341.42-1272.918,338.124z"/>
		<path fill="#825491" d="M-1267.242,339.874v-6.156h1.248v6.214c0,1.303,0.447,1.682,1.354,1.682c0.91,0,1.357-0.379,1.357-1.682
			v-6.214h1.248v6.156c0,2.008-0.842,2.82-2.605,2.82C-1266.427,342.695-1267.242,341.909-1267.242,339.874z"/>
		<path fill="#825491" d="M-1260.136,333.715h1.248v7.76h2.74v1.061h-3.988V333.715L-1260.136,333.715z"/>
		<path fill="#825491" d="M-1256.583,333.715h5.059v1.059h-1.912v7.762h-1.248v-7.762h-1.897L-1256.583,333.715L-1256.583,333.715z"
			/>
		<path fill="#825491" d="M-1248.625,338.872l-2.414-5.154h1.369l1.045,2.373c0.244,0.568,0.475,1.181,0.625,1.724
			c0.162-0.543,0.405-1.151,0.649-1.724l1.045-2.373h1.328l-2.399,5.154v3.662h-1.248V338.872L-1248.625,338.872z"/>
		<path fill="#825491" d="M-1241.936,338.124c0-3.647,0.869-4.57,2.699-4.57c1.887,0,2.713,0.882,2.713,4.57
			c0,3.662-0.867,4.568-2.713,4.568C-1241.107,342.695-1241.936,341.829-1241.936,338.124z M-1237.813,338.124
			c0-2.77-0.283-3.483-1.424-3.483c-1.139,0-1.41,0.719-1.41,3.483c0,2.769,0.271,3.482,1.41,3.482
			C-1238.095,341.609-1237.813,340.891-1237.813,338.124z"/>
		<path fill="#825491" d="M-1234.896,333.715h3.988v1.059h-2.74v2.699h2.197v1.045h-2.197v4.018h-1.248V333.715L-1234.896,333.715z"
			/>
	</g>
	<path fill="#825491" d="M-1281.734,363.254c-0.225,0.19-0.5,0.313-0.828,0.313c-0.746,0-0.983-0.452-0.983-1.187
		c0-0.729,0.254-1.188,0.983-1.188c0.289,0,0.554,0.113,0.771,0.274v-0.483c0-0.608-0.189-0.935-0.799-0.935
		c-0.357,0-0.681,0.164-0.798,0.244v-0.424c0.134-0.092,0.445-0.219,0.851-0.219c0.819,0,1.186,0.434,1.186,1.246v2.574h-0.317
		L-1281.734,363.254z M-1281.793,362.941v-1.115c-0.181-0.139-0.404-0.248-0.689-0.248c-0.469,0-0.608,0.271-0.608,0.811
		c0,0.544,0.143,0.813,0.608,0.813C-1282.197,363.195-1281.973,363.083-1281.793,362.941"/>
	<path fill="#825491" d="M-1280.505,361.613c0-1.596,0.514-1.953,1.229-1.953c0.299,0,0.492,0.061,0.627,0.135v0.426
		c-0.096-0.065-0.352-0.155-0.582-0.155c-0.545,0-0.813,0.282-0.813,1.554c0,1.237,0.229,1.555,0.77,1.555
		c0.275,0,0.537-0.103,0.656-0.172v0.424c-0.135,0.072-0.404,0.146-0.693,0.146
		C-1280.127,363.568-1280.505,363.106-1280.505,361.613"/>
	<path fill="#825491" d="M-1278.052,361.613c0-1.596,0.515-1.953,1.23-1.953c0.299,0,0.492,0.061,0.625,0.135v0.426
		c-0.096-0.065-0.35-0.155-0.58-0.155c-0.545,0-0.813,0.282-0.813,1.554c0,1.237,0.229,1.555,0.77,1.555
		c0.275,0,0.535-0.103,0.654-0.172v0.424c-0.133,0.072-0.402,0.146-0.693,0.146
		C-1277.671,363.568-1278.052,363.106-1278.052,361.613"/>
	<path fill="#825491" d="M-1275.398,359.749h0.328l0.063,0.291c0.272-0.201,0.604-0.346,1.071-0.346v0.439
		c-0.426,0-0.735,0.061-1.014,0.201v3.143h-0.449L-1275.398,359.749L-1275.398,359.749z"/>
	<path fill="#825491" d="M-1273.458,361.622c0-1.531,0.358-1.963,1.143-1.963c0.797,0,1.142,0.418,1.142,1.953v0.105h-1.828
		c0.016,1.18,0.254,1.445,0.873,1.445c0.327,0,0.68-0.136,0.799-0.218v0.425c-0.127,0.084-0.455,0.192-0.851,0.192
		C-1273.063,363.568-1273.458,363.135-1273.458,361.622 M-1273.002,361.336h1.373c-0.021-0.963-0.188-1.289-0.688-1.289
		C-1272.824,360.047-1272.98,360.374-1273.002,361.336"/>
	<path fill="#825491" d="M-1268.525,363.284c-0.201,0.182-0.471,0.281-0.762,0.281c-0.805,0-1.142-0.398-1.142-1.953
		c0-1.527,0.355-1.953,1.136-1.953c0.268,0,0.498,0.09,0.686,0.223v-1.252h0.447v4.853h-0.32L-1268.525,363.284z M-1268.609,362.979
		v-2.723c-0.156-0.113-0.373-0.201-0.604-0.201c-0.58,0-0.752,0.326-0.752,1.559c0,1.23,0.172,1.563,0.752,1.563
		C-1268.982,363.172-1268.766,363.083-1268.609,362.979"/>
	<path fill="#825491" d="M-1267.173,358.981c0-0.18,0.108-0.291,0.305-0.291c0.201,0,0.307,0.111,0.307,0.291
		c0,0.182-0.104,0.291-0.307,0.291C-1267.064,359.272-1267.173,359.159-1267.173,358.981 M-1267.122,359.749h0.447v3.729h-0.447
		V359.749z"/>
	<path fill="#825491" d="M-1266.02,359.749h0.529v-1.119h0.447v1.119h0.76v0.381h-0.76v2.508c0,0.427,0.155,0.49,0.521,0.49h0.164
		v0.383h-0.274c-0.439,0-0.857-0.11-0.857-0.819v-2.562h-0.529L-1266.02,359.749L-1266.02,359.749z"/>
	<path fill="#825491" d="M-1263.693,361.622c0-1.531,0.359-1.963,1.144-1.963c0.799,0,1.143,0.418,1.143,1.953v0.105h-1.829
		c0.016,1.18,0.254,1.445,0.873,1.445c0.328,0,0.68-0.136,0.799-0.218v0.425c-0.127,0.084-0.455,0.192-0.852,0.192
		C-1263.294,363.568-1263.693,363.135-1263.693,361.622 M-1263.236,361.336h1.373c-0.021-0.963-0.188-1.289-0.688-1.289
		C-1263.059,360.047-1263.214,360.374-1263.236,361.336"/>
	<path fill="#825491" d="M-1258.759,363.284c-0.201,0.182-0.474,0.281-0.763,0.281c-0.807,0-1.143-0.398-1.143-1.953
		c0-1.527,0.358-1.953,1.135-1.953c0.271,0,0.5,0.09,0.688,0.223v-1.252h0.446v4.853h-0.319L-1258.759,363.284z M-1258.841,362.979
		v-2.723c-0.156-0.113-0.373-0.201-0.605-0.201c-0.582,0-0.754,0.326-0.754,1.559c0,1.23,0.172,1.563,0.754,1.563
		C-1259.214,363.172-1258.999,363.083-1258.841,362.979"/>
	<path fill="#825491" d="M-1255.836,358.629h0.448v1.268c0.179-0.141,0.418-0.234,0.687-0.234c0.807,0,1.141,0.398,1.141,1.949
		c0,1.531-0.354,1.957-1.133,1.957c-0.299,0-0.576-0.098-0.774-0.27l-0.037,0.18h-0.328L-1255.836,358.629L-1255.836,358.629z
		 M-1255.386,360.256v2.723c0.154,0.111,0.371,0.193,0.609,0.193c0.582,0,0.754-0.328,0.754-1.563c0-1.229-0.172-1.56-0.754-1.56
		C-1255.016,360.053-1255.232,360.143-1255.386,360.256"/>
	<path fill="#825491" d="M-1252.068,363.448l-1.021-3.699h0.463l0.567,2.172c0.08,0.313,0.179,0.717,0.229,1.035
		c0.045-0.318,0.143-0.727,0.225-1.035l0.574-2.172h0.447l-1.26,4.853h-0.464L-1252.068,363.448z"/>
	<polygon fill="#825491" points="-1248.4,358.629 -1246.334,358.629 -1246.334,359.034 -1247.939,359.034 -1247.939,360.777 
		-1246.648,360.777 -1246.648,361.182 -1247.939,361.182 -1247.939,363.075 -1246.334,363.075 -1246.334,363.479 -1248.4,363.479 	
		"/>
	<path fill="#825491" d="M-1244.645,358.629h0.479l1.319,4.85h-0.491l-0.322-1.188h-1.506l-0.322,1.188h-0.477L-1244.645,358.629z
		 M-1245.07,361.891h1.309l-0.256-0.986c-0.143-0.559-0.313-1.229-0.395-1.723c-0.074,0.492-0.24,1.164-0.39,1.723L-1245.07,361.891
		z"/>
	<polygon fill="#825491" points="-1242.197,358.629 -1240.13,358.629 -1240.13,359.034 -1241.734,359.034 -1241.734,360.777 
		-1240.445,360.777 -1240.445,361.182 -1241.734,361.182 -1241.734,363.075 -1240.13,363.075 -1240.13,363.479 -1242.197,363.479 	
		"/>
	<path fill="#825491" d="M-1239.747,358.629h0.483l0.687,2.67c0.143,0.561,0.283,1.188,0.352,1.619
		c0.066-0.435,0.201-1.062,0.353-1.619l0.686-2.67h0.479l-1.275,4.85h-0.492L-1239.747,358.629z"/>
	<polygon fill="#825491" points="-1236.052,358.629 -1233.986,358.629 -1233.986,359.034 -1235.591,359.034 -1235.591,360.777 
		-1234.3,360.777 -1234.3,361.182 -1235.591,361.182 -1235.591,363.075 -1233.986,363.075 -1233.986,363.479 -1236.052,363.479 	"/>
	<path fill="#825491" d="M-1299.673,346.754c-2.39,2.006-3.986,4.922-4.239,8.221h1.248c0.25-2.92,1.681-5.5,3.804-7.273
		L-1299.673,346.754z"/>
	<path fill="#825491" d="M-1297.761,342.667c-4.837,2.104-8.295,6.777-8.646,12.31h1.248c0.348-5.022,3.51-9.269,7.918-11.177
		L-1297.761,342.667z"/>
	<path fill="#825491" d="M-1292.33,334.919l-4.126,4.65c-6.902,1.875-12.047,8.003-12.445,15.402h1.246
		c0.405-6.957,5.334-12.699,11.895-14.307l2.793-3.15l3.729,14.988h-3.113l-2.945-3.535l-0.959,0.797l3.32,3.986h5.295
		L-1292.33,334.919z"/>
</g>
</svg>
