<?xml version="1.0" encoding="utf-8"?>
<!-- Generator: Adobe Illustrator 16.0.0, SVG Export Plug-In . SVG Version: 6.00 Build 0)  -->
<!DOCTYPE svg PUBLIC "-//W3C//DTD SVG 1.1//EN" "http://www.w3.org/Graphics/SVG/1.1/DTD/svg11.dtd">
<svg version="1.1" id="Layer_1" xmlns="http://www.w3.org/2000/svg" xmlns:xlink="http://www.w3.org/1999/xlink" x="0px" y="0px"
	 width="137.873px" height="21.585px" viewBox="-1309.246 452.942 137.873 21.585"
	 enable-background="new -1309.246 452.942 137.873 21.585" xml:space="preserve">
<g>
	<g>
		<path fill="#BE5190" d="M-1293.773,465.547h2.116c1.669,0,2.658,0.703,2.658,2.811c0,2.049-1.03,2.809-2.658,2.809h-0.868v3.201
			h-1.248V465.547z M-1292.524,466.607v3.514h0.731c0.978,0,1.506-0.355,1.506-1.768c0-1.409-0.528-1.746-1.506-1.746H-1292.524
			L-1292.524,466.607z"/>
		<path fill="#BE5190" d="M-1283.613,470.363h-2.688v4.004h-1.247v-8.816h1.247v3.758h2.688v-3.758h1.248v8.816h-1.248V470.363z"/>
		<path fill="#BE5190" d="M-1279.043,465.547h1.289l2.346,8.814h-1.301l-0.519-1.992h-2.399l-0.502,1.992h-1.263L-1279.043,465.547z
			 M-1279.383,471.311h1.938l-0.367-1.465c-0.188-0.729-0.434-1.855-0.582-2.836c-0.164,0.979-0.422,2.105-0.608,2.836
			L-1279.383,471.311z"/>
		<path fill="#BE5190" d="M-1274.435,465.547h2.035c1.627,0,2.793,0.607,2.793,2.604c0,1.396-0.678,2.072-1.531,2.389l1.871,3.826
			h-1.424l-1.656-3.6h-0.84v3.6h-1.248V465.547z M-1273.187,466.607v3.104h0.664c0.979,0,1.629-0.203,1.629-1.561
			c0-1.346-0.649-1.549-1.629-1.549L-1273.187,466.607L-1273.187,466.607z"/>
		<path fill="#BE5190" d="M-1267.911,465.547h1.613l1.547,4.639l1.561-4.639h1.562v8.814h-1.193v-4.584
			c0-0.979,0.068-1.994,0.148-2.781l-1.603,4.748h-0.99l-1.612-4.764c0.082,0.787,0.164,1.818,0.164,2.797v4.584h-1.195
			L-1267.911,465.547L-1267.911,465.547z"/>
		<path fill="#BE5190" d="M-1258.31,465.547h1.289l2.349,8.814h-1.304l-0.516-1.992h-2.402l-0.502,1.992h-1.262L-1258.31,465.547z
			 M-1258.648,471.311h1.939l-0.365-1.465c-0.189-0.729-0.434-1.855-0.584-2.836c-0.162,0.979-0.42,2.105-0.609,2.836
			L-1258.648,471.311z"/>
		<path fill="#BE5190" d="M-1254.038,469.956c0-3.297,0.719-4.57,2.86-4.57c0.652,0,1.234,0.162,1.521,0.324v1.152
			c-0.324-0.178-0.896-0.354-1.438-0.354c-1.288,0-1.653,0.584-1.653,3.445c0,2.891,0.393,3.459,1.653,3.459
			c0.558,0,1.193-0.189,1.521-0.381v1.148c-0.285,0.164-0.963,0.343-1.574,0.343
			C-1253.467,474.542-1254.038,473.252-1254.038,469.956z"/>
		<path fill="#BE5190" d="M-1248.15,465.547h4.123v1.061h-2.875v2.697h2.318v1.043h-2.318v2.959h2.875v1.061h-4.123V465.547
			L-1248.15,465.547z"/>
		<path fill="#BE5190" d="M-1242.523,471.706v-6.158h1.248v6.213c0,1.307,0.447,1.686,1.357,1.686c0.907,0,1.354-0.379,1.354-1.686
			v-6.213h1.248v6.158c0,2.008-0.842,2.82-2.604,2.82C-1241.708,474.529-1242.523,473.741-1242.523,471.706z"/>
		<path fill="#BE5190" d="M-1236.338,465.547h5.061v1.061h-1.914v7.76h-1.248v-7.76h-1.897L-1236.338,465.547L-1236.338,465.547z"/>
		<path fill="#BE5190" d="M-1230.236,465.547h1.248v8.814h-1.248V465.547z"/>
		<path fill="#BE5190" d="M-1227.361,469.956c0-3.297,0.719-4.57,2.861-4.57c0.65,0,1.232,0.162,1.52,0.324v1.152
			c-0.324-0.178-0.895-0.354-1.438-0.354c-1.289,0-1.654,0.584-1.654,3.445c0,2.891,0.393,3.459,1.654,3.459
			c0.557,0,1.191-0.189,1.52-0.381v1.148c-0.285,0.164-0.963,0.343-1.574,0.343
			C-1226.791,474.542-1227.361,473.252-1227.361,469.956z"/>
		<path fill="#BE5190" d="M-1220.213,465.547h1.289l2.348,8.814h-1.303l-0.52-1.992h-2.396l-0.502,1.992h-1.266L-1220.213,465.547z
			 M-1220.553,471.311h1.938l-0.365-1.465c-0.188-0.729-0.437-1.855-0.584-2.836c-0.162,0.979-0.42,2.105-0.607,2.836
			L-1220.553,471.311z"/>
		<path fill="#BE5190" d="M-1215.604,465.547h1.248v7.76h2.74v1.061h-3.988V465.547L-1215.604,465.547z"/>
		<path fill="#BE5190" d="M-1203.107,469.956c0-3.297,0.719-4.57,2.861-4.57c0.649,0,1.233,0.162,1.52,0.324v1.152
			c-0.326-0.178-0.895-0.354-1.438-0.354c-1.289,0-1.654,0.584-1.654,3.445c0,2.891,0.396,3.459,1.654,3.459
			c0.557,0,1.192-0.189,1.52-0.381v1.148c-0.285,0.164-0.963,0.343-1.574,0.343
			C-1202.539,474.542-1203.107,473.252-1203.107,469.956z"/>
		<path fill="#BE5190" d="M-1197.224,465.547h1.248v8.814h-1.248V465.547z"/>
		<path fill="#BE5190" d="M-1194.006,465.547h4.123v1.061h-2.875v2.697h2.316v1.043h-2.316v2.959h2.875v1.061h-4.123V465.547z"/>
		<path fill="#BE5190" d="M-1188.244,465.547h1.438l2.781,7.023c-0.096-0.721-0.176-1.561-0.176-2.348v-4.682h1.193v8.816h-1.438
			l-2.81-7.057c0.106,0.72,0.202,1.572,0.202,2.373v4.684h-1.192v-8.813h0.002V465.547L-1188.244,465.547z"/>
		<path fill="#BE5190" d="M-1181.381,469.956c0-3.297,0.719-4.57,2.859-4.57c0.649,0,1.233,0.162,1.521,0.324v1.152
			c-0.324-0.178-0.896-0.354-1.438-0.354c-1.289,0-1.652,0.584-1.652,3.445c0,2.891,0.395,3.459,1.652,3.459
			c0.559,0,1.192-0.189,1.521-0.381v1.148c-0.285,0.164-0.963,0.343-1.572,0.343
			C-1180.813,474.542-1181.381,473.252-1181.381,469.956z"/>
		<path fill="#BE5190" d="M-1175.496,465.547h4.123v1.061h-2.875v2.697h2.316v1.043h-2.316v2.959h2.875v1.061h-4.123V465.547z"/>
	</g>
	<g>
		<path fill="#BE5190" d="M-1293.773,453.104h3.987v1.063h-2.739v2.695h2.198v1.046h-2.198v4.019h-1.248V453.104z"/>
		<path fill="#BE5190" d="M-1287.574,453.104h1.289l2.346,8.816h-1.301l-0.516-1.994h-2.402l-0.502,1.994h-1.262L-1287.574,453.104z
			 M-1287.915,458.87h1.938l-0.364-1.469c-0.189-0.729-0.436-1.854-0.584-2.834c-0.162,0.979-0.421,2.104-0.609,2.834
			L-1287.915,458.87z"/>
		<path fill="#BE5190" d="M-1283.303,457.512c0-3.297,0.722-4.57,2.861-4.57c0.652,0,1.236,0.162,1.521,0.324v1.152
			c-0.326-0.176-0.896-0.354-1.439-0.354c-1.289,0-1.654,0.584-1.654,3.444c0,2.89,0.396,3.459,1.654,3.459
			c0.557,0,1.193-0.188,1.521-0.379v1.148c-0.285,0.162-0.966,0.342-1.574,0.342
			C-1282.732,462.098-1283.303,460.809-1283.303,457.512z"/>
		<path fill="#BE5190" d="M-1277.625,459.262v-6.156h1.248v6.213c0,1.305,0.446,1.684,1.354,1.684c0.91,0,1.357-0.379,1.357-1.684
			v-6.213h1.248v6.156c0,2.008-0.843,2.822-2.605,2.822C-1276.813,462.085-1277.625,461.297-1277.625,459.262z"/>
		<path fill="#BE5190" d="M-1270.521,453.104h1.248v7.762h2.74v1.061h-3.988V453.104L-1270.521,453.104z"/>
		<path fill="#BE5190" d="M-1266.965,453.104h5.059v1.063h-1.912v7.76h-1.248v-7.76h-1.897L-1266.965,453.104L-1266.965,453.104z"/>
		<path fill="#BE5190" d="M-1259.008,458.26l-2.414-5.154h1.368l1.046,2.373c0.243,0.568,0.475,1.184,0.625,1.727
			c0.161-0.543,0.405-1.152,0.649-1.727l1.045-2.373h1.328l-2.399,5.154v3.662h-1.248V458.26L-1259.008,458.26z"/>
		<path fill="#BE5190" d="M-1252.318,457.512c0-3.648,0.869-4.57,2.699-4.57c1.887,0,2.713,0.881,2.713,4.57
			c0,3.662-0.867,4.57-2.713,4.57C-1251.49,462.085-1252.318,461.217-1252.318,457.512z M-1248.195,457.512
			c0-2.768-0.283-3.484-1.424-3.484c-1.142,0-1.41,0.721-1.41,3.484c0,2.768,0.27,3.484,1.41,3.484
			C-1248.479,460.999-1248.195,460.279-1248.195,457.512z"/>
		<path fill="#BE5190" d="M-1245.279,453.104h3.988v1.063h-2.74v2.695h2.197v1.046h-2.197v4.019h-1.248V453.104L-1245.279,453.104z"
			/>
	</g>
	<path fill="#BE5190" d="M-1205.744,466.454c0.551-0.002,1.07,0.182,1.309,0.367v-1.125c-0.237-0.146-0.823-0.311-1.418-0.311
		c-1.653,0-2.565,0.939-2.565,2.309c0,1.139,0.481,1.688,1.26,2.354l0.71,0.611c0.586,0.488,0.948,0.865,0.948,1.604
		c0,0.855-0.565,1.195-1.416,1.195c-0.646,0-1.183-0.182-1.487-0.395v1.146c0.271,0.154,0.836,0.314,1.601,0.313
		c1.649-0.006,2.563-0.939,2.563-2.309c0.002-1.139-0.482-1.688-1.261-2.354l-0.709-0.615c-0.588-0.502-0.951-0.863-0.949-1.598
		C-1207.16,466.794-1206.599,466.456-1205.744,466.454z"/>
	<path fill="#BE5190" d="M-1303.015,458.717v4.395h-1.247v-4.395c0-0.346,0.279-0.625,0.624-0.625
		C-1303.293,458.092-1303.015,458.372-1303.015,458.717z"/>
	<path fill="#BE5190" d="M-1300.521,458.717v4.395h-1.247v-4.395c0-1.033-0.837-1.871-1.87-1.871c-1.032,0-1.87,0.838-1.87,1.871
		v4.395h-1.246v-4.395c0-1.723,1.396-3.119,3.116-3.119C-1301.917,455.598-1300.52,456.995-1300.521,458.717z"/>
	<path fill="#BE5190" d="M-1298.024,458.717v4.395h-1.247v-4.395c0-2.412-1.954-4.365-4.365-4.365c-2.409,0-4.364,1.953-4.364,4.365
		v4.395h-1.246v-4.395c0-3.103,2.513-5.611,5.611-5.611C-1300.538,453.106-1298.024,455.618-1298.024,458.717"/>
	<path fill="#BE5190" d="M-1298.024,468.752v-4.395h-1.247v4.395c0,2.41-1.954,4.365-4.365,4.365c-2.409,0-4.364-1.955-4.364-4.365
		v-4.395h-1.246v4.395c0,3.1,2.513,5.611,5.611,5.611C-1300.538,474.365-1298.024,471.85-1298.024,468.752"/>
</g>
</svg>
