<?xml version="1.0" encoding="utf-8"?>
<!-- Generator: Adobe Illustrator 16.0.0, SVG Export Plug-In . SVG Version: 6.00 Build 0)  -->
<!DOCTYPE svg PUBLIC "-//W3C//DTD SVG 1.1//EN" "http://www.w3.org/Graphics/SVG/1.1/DTD/svg11.dtd">
<svg version="1.1" id="Layer_1" xmlns="http://www.w3.org/2000/svg" xmlns:xlink="http://www.w3.org/1999/xlink" x="0px" y="0px"
	 width="76.349px" height="21.583px" viewBox="-1308.552 167.703 76.349 21.583"
	 enable-background="new -1308.552 167.703 76.349 21.583" xml:space="preserve">
<g>
	<g>
		<path fill="#2D8CA8" d="M-1288.753,184.716c0-3.648,0.866-4.572,2.698-4.572c1.886,0,2.714,0.883,2.714,4.572
			c0,3.662-0.869,4.57-2.714,4.57C-1287.927,189.286-1288.753,188.419-1288.753,184.716z M-1284.63,184.716
			c0-2.769-0.284-3.486-1.425-3.486c-1.141,0-1.41,0.722-1.41,3.486c0,2.768,0.271,3.484,1.41,3.484
			C-1284.916,188.2-1284.63,187.482-1284.63,184.716z"/>
		<path fill="#2D8CA8" d="M-1281.716,180.306h3.987v1.062h-2.739v2.696h2.197v1.047h-2.197v4.017h-1.248V180.306L-1281.716,180.306z
			"/>
		<path fill="#2D8CA8" d="M-1269.03,184.716c0-3.297,0.719-4.572,2.86-4.572c0.65,0,1.233,0.162,1.521,0.326v1.152
			c-0.326-0.177-0.896-0.354-1.438-0.354c-1.289,0-1.654,0.584-1.654,3.447c0,2.889,0.394,3.459,1.654,3.459
			c0.557,0,1.192-0.191,1.521-0.381v1.151c-0.285,0.164-0.964,0.341-1.574,0.341C-1268.462,189.3-1269.03,188.011-1269.03,184.716z"
			/>
		<path fill="#2D8CA8" d="M-1263.146,180.306h1.248v8.818h-1.248V180.306z"/>
		<path fill="#2D8CA8" d="M-1259.932,180.306h4.124v1.062h-2.876v2.696h2.32v1.047h-2.32v2.957h2.876v1.06h-4.124V180.306z"/>
		<path fill="#2D8CA8" d="M-1254.167,180.306h1.438l2.781,7.027c-0.096-0.72-0.176-1.562-0.176-2.349v-4.68h1.191v8.818h-1.438
			l-2.811-7.056c0.108,0.72,0.203,1.572,0.203,2.375v4.681h-1.192L-1254.167,180.306L-1254.167,180.306z"/>
		<path fill="#2D8CA8" d="M-1247.305,184.716c0-3.297,0.72-4.572,2.862-4.572c0.649,0,1.233,0.162,1.521,0.326v1.152
			c-0.325-0.177-0.896-0.354-1.438-0.354c-1.288,0-1.655,0.584-1.655,3.447c0,2.889,0.396,3.459,1.655,3.459
			c0.556,0,1.193-0.191,1.521-0.381v1.151c-0.285,0.164-0.965,0.341-1.572,0.341C-1246.735,189.3-1247.305,188.011-1247.305,184.716
			z"/>
		<path fill="#2D8CA8" d="M-1241.419,180.306h4.124v1.062h-2.876v2.696h2.319v1.047h-2.319v2.957h2.876v1.06h-4.124V180.306z"/>
	</g>
	<g>
		<path fill="#2D8CA8" d="M-1288.432,167.864h3.988v1.06h-2.74v2.699h2.198v1.045h-2.198v4.016h-1.248V167.864L-1288.432,167.864z"
			/>
		<path fill="#2D8CA8" d="M-1282.232,167.864h1.288l2.347,8.818h-1.302l-0.516-1.994h-2.401l-0.502,1.994h-1.262L-1282.232,167.864z
			 M-1282.571,173.63h1.938l-0.364-1.465c-0.19-0.732-0.437-1.859-0.584-2.836c-0.162,0.977-0.421,2.104-0.609,2.836
			L-1282.571,173.63z"/>
		<path fill="#2D8CA8" d="M-1277.96,172.275c0-3.297,0.72-4.571,2.86-4.571c0.652,0,1.235,0.161,1.521,0.325v1.152
			c-0.325-0.176-0.896-0.354-1.438-0.354c-1.289,0-1.653,0.584-1.653,3.444c0,2.892,0.394,3.461,1.653,3.461
			c0.558,0,1.193-0.19,1.521-0.383v1.152c-0.285,0.164-0.964,0.34-1.574,0.34C-1277.392,176.859-1277.96,175.57-1277.96,172.275z"/>
		<path fill="#2D8CA8" d="M-1272.282,174.023v-6.158h1.248v6.214c0,1.303,0.446,1.682,1.354,1.682c0.91,0,1.357-0.379,1.357-1.682
			v-6.213h1.248v6.157c0,2.008-0.843,2.822-2.605,2.822C-1271.47,176.845-1272.282,176.058-1272.282,174.023z"/>
		<path fill="#2D8CA8" d="M-1265.178,167.864h1.248v7.761h2.74v1.059h-3.988V167.864L-1265.178,167.864z"/>
		<path fill="#2D8CA8" d="M-1261.624,167.864h5.06v1.06h-1.912v7.76h-1.248v-7.76h-1.897L-1261.624,167.864L-1261.624,167.864z"/>
		<path fill="#2D8CA8" d="M-1253.666,173.021l-2.414-5.156h1.368l1.046,2.376c0.243,0.567,0.475,1.18,0.623,1.723
			c0.163-0.543,0.406-1.154,0.65-1.723l1.045-2.375h1.329l-2.4,5.155v3.662h-1.247V173.021z"/>
	</g>
	<path fill="#2D8CA8" d="M-1271.668,181.214c0.552-0.002,1.069,0.178,1.31,0.365v-1.123c-0.238-0.146-0.824-0.313-1.418-0.313
		c-1.655,0-2.565,0.941-2.565,2.308c0,1.139,0.481,1.686,1.259,2.354l0.711,0.613c0.586,0.49,0.948,0.869,0.948,1.602
		c0,0.857-0.565,1.197-1.417,1.197c-0.646,0-1.181-0.178-1.487-0.391v1.143c0.271,0.156,0.837,0.318,1.6,0.316
		c1.651-0.004,2.563-0.943,2.564-2.31c0.002-1.139-0.482-1.686-1.26-2.354l-0.709-0.613c-0.589-0.504-0.952-0.867-0.95-1.6
		C-1273.083,181.552-1272.521,181.216-1271.668,181.214z"/>
	<path fill="#2D8CA8" d="M-1233.708,181.214c0.552-0.002,1.069,0.178,1.31,0.365v-1.123c-0.238-0.146-0.824-0.313-1.418-0.313
		c-1.655,0-2.565,0.941-2.565,2.308c0,1.139,0.481,1.686,1.26,2.354l0.71,0.613c0.586,0.49,0.948,0.869,0.948,1.602
		c0,0.857-0.565,1.197-1.417,1.197c-0.646,0-1.181-0.178-1.487-0.391v1.143c0.271,0.156,0.837,0.318,1.6,0.316
		c1.651-0.004,2.563-0.943,2.564-2.31c0.002-1.139-0.482-1.686-1.26-2.354l-0.709-0.613c-0.589-0.504-0.952-0.867-0.949-1.6
		C-1235.123,181.552-1234.562,181.216-1233.708,181.214z"/>
	<polygon fill="#2D8CA8" points="-1306.023,189.125 -1295.436,189.125 -1296.683,187.878 -1304.775,187.878 	"/>
	<rect x="-1298.919" y="179.78" fill="#2D8CA8" width="6.235" height="1.246"/>
	
		<rect x="-1299.319" y="173.246" transform="matrix(-0.7067 -0.7075 0.7075 -0.7067 -2340.3965 -619.9526)" fill="#2D8CA8" width="1.248" height="3.739"/>
	
		<rect x="-1304.706" y="169.985" transform="matrix(-0.7073 -0.7069 0.7069 -0.7073 -2342.6013 -628.6859)" fill="#2D8CA8" width="6.518" height="1.246"/>
	
		<rect x="-1306.467" y="171.757" transform="matrix(-0.7073 -0.707 0.707 -0.7073 -2346.7766 -627.014)" fill="#2D8CA8" width="6.517" height="1.247"/>
	<path fill="#2D8CA8" d="M-1295.147,182.273c-1.161,1.865-3.224,3.109-5.582,3.109c-3.632,0-6.576-2.943-6.576-6.576
		c0-2.152,1.043-4.053,2.644-5.252l-0.888-0.885c-1.82,1.432-3.003,3.641-3.003,6.137c0,4.322,3.504,7.824,7.823,7.824
		c3.075,0,5.729-1.777,7.007-4.357H-1295.147L-1295.147,182.273z"/>
	<path fill="#2D8CA8" d="M-1298.595,182.273c-0.621,0.383-1.349,0.615-2.133,0.615c-2.255,0-4.082-1.826-4.082-4.082
		c0-1.467,0.788-2.729,1.951-3.447l-0.907-0.905c-1.379,0.963-2.292,2.545-2.292,4.354c0,2.943,2.387,5.33,5.329,5.33
		c1.613,0,3.041-0.729,4.02-1.863L-1298.595,182.273L-1298.595,182.273z"/>
</g>
</svg>
