<?xml version="1.0" encoding="utf-8"?>
<!-- Generator: Adobe Illustrator 16.0.0, SVG Export Plug-In . SVG Version: 6.00 Build 0)  -->
<!DOCTYPE svg PUBLIC "-//W3C//DTD SVG 1.1//EN" "http://www.w3.org/Graphics/SVG/1.1/DTD/svg11.dtd">
<svg version="1.1" id="Layer_1" xmlns="http://www.w3.org/2000/svg" xmlns:xlink="http://www.w3.org/1999/xlink" x="0px" y="0px"
	 width="140.931px" height="21.586px" viewBox="-1309.945 250.629 140.931 21.586"
	 enable-background="new -1309.945 250.629 140.931 21.586" xml:space="preserve">
<g>
	<g>
		<path fill="#6F71B9" d="M-1287.313,263.234h1.288l2.348,8.814h-1.303l-0.516-1.994h-2.401l-0.502,1.994h-1.262L-1287.313,263.234z
			 M-1287.653,269h1.939l-0.365-1.468c-0.19-0.731-0.436-1.856-0.584-2.835c-0.162,0.979-0.42,2.104-0.609,2.835L-1287.653,269z"/>
		<path fill="#6F71B9" d="M-1282.703,263.234h1.438l2.779,7.023c-0.095-0.72-0.177-1.561-0.177-2.347v-4.681h1.193v8.813h-1.438
			l-2.808-7.053c0.106,0.719,0.203,1.571,0.203,2.372v4.681h-1.193L-1282.703,263.234L-1282.703,263.234z"/>
		<path fill="#6F71B9" d="M-1275.501,263.234h2.306c2.308,0,2.851,1.232,2.851,4.406c0,3.135-0.558,4.408-2.851,4.408h-2.306
			V263.234z M-1274.253,264.266v6.754h0.963c1.274,0,1.655-0.582,1.655-3.377s-0.381-3.377-1.655-3.377H-1274.253z"/>
		<path fill="#6F71B9" d="M-1264.787,263.234h1.289l2.347,8.814h-1.303l-0.517-1.994h-2.399l-0.502,1.994h-1.262L-1264.787,263.234z
			 M-1265.125,269h1.938l-0.365-1.468c-0.189-0.731-0.436-1.856-0.583-2.835c-0.162,0.979-0.42,2.104-0.609,2.835L-1265.125,269z"/>
		<path fill="#6F71B9" d="M-1260.175,263.234h2.034c1.628,0,2.795,0.607,2.795,2.604c0,1.397-0.68,2.076-1.532,2.389l1.872,3.824
			h-1.426l-1.653-3.594h-0.842v3.594h-1.248V263.234L-1260.175,263.234z M-1258.927,264.293v3.104h0.665
			c0.979,0,1.629-0.201,1.629-1.561c0-1.343-0.65-1.545-1.629-1.545L-1258.927,264.293L-1258.927,264.293z"/>
		<path fill="#6F71B9" d="M-1254.059,267.643c0-3.297,0.72-4.57,2.86-4.57c0.652,0,1.235,0.162,1.521,0.324v1.152
			c-0.324-0.179-0.896-0.354-1.438-0.354c-1.289,0-1.654,0.584-1.654,3.444c0,2.89,0.395,3.459,1.654,3.459
			c0.558,0,1.193-0.188,1.521-0.379v1.15c-0.284,0.161-0.963,0.342-1.573,0.342C-1253.489,272.229-1254.059,270.94-1254.059,267.643
			z"/>
		<path fill="#6F71B9" d="M-1244.238,268.049h-2.687v4.002h-1.248v-8.814h1.248v3.759h2.687v-3.759h1.248v8.814h-1.248V268.049z"/>
		<path fill="#6F71B9" d="M-1241.026,263.234h1.248v8.814h-1.248V263.234z"/>
		<path fill="#6F71B9" d="M-1238.735,263.234h5.062v1.06h-1.913v7.758h-1.249v-7.758h-1.898L-1238.735,263.234L-1238.735,263.234z"
			/>
		<path fill="#6F71B9" d="M-1232.63,263.234h4.123v1.06h-2.875v2.699h2.317v1.043h-2.317v2.959h2.875v1.057h-4.123V263.234z"/>
		<path fill="#6F71B9" d="M-1227.41,267.643c0-3.297,0.719-4.57,2.861-4.57c0.649,0,1.232,0.162,1.52,0.324v1.152
			c-0.325-0.179-0.895-0.354-1.438-0.354c-1.289,0-1.654,0.584-1.654,3.444c0,2.89,0.393,3.459,1.654,3.459
			c0.557,0,1.19-0.188,1.52-0.379v1.15c-0.285,0.161-0.963,0.342-1.574,0.342C-1226.84,272.229-1227.41,270.94-1227.41,267.643z"/>
		<path fill="#6F71B9" d="M-1222.293,263.234h5.06v1.06h-1.912v7.758h-1.247v-7.758h-1.897L-1222.293,263.234L-1222.293,263.234z"/>
		<path fill="#6F71B9" d="M-1216.285,269.393v-6.158h1.248v6.213c0,1.306,0.447,1.685,1.354,1.685c0.908,0,1.355-0.379,1.355-1.685
			v-6.213h1.248v6.158c0,2.008-0.842,2.822-2.604,2.822C-1215.471,272.215-1216.285,271.428-1216.285,269.393z"/>
		<path fill="#6F71B9" d="M-1209.178,263.234h2.033c1.628,0,2.795,0.607,2.795,2.604c0,1.397-0.68,2.076-1.53,2.389l1.87,3.824
			h-1.425l-1.654-3.594h-0.841v3.594h-1.248V263.234L-1209.178,263.234z M-1207.93,264.293v3.104h0.663
			c0.979,0,1.63-0.201,1.63-1.561c0-1.343-0.651-1.545-1.63-1.545L-1207.93,264.293L-1207.93,264.293z"/>
		<path fill="#6F71B9" d="M-1202.655,263.234h4.123v1.06h-2.875v2.699h2.319v1.043h-2.319v2.959h2.875v1.057h-4.123V263.234z"/>
	</g>
	<g>
		<path fill="#6F71B9" d="M-1288.687,250.791h3.988v1.059h-2.74v2.699h2.198v1.045h-2.198v4.018h-1.248V250.791L-1288.687,250.791z"
			/>
		<path fill="#6F71B9" d="M-1282.487,250.791h1.288l2.347,8.816h-1.302l-0.516-1.994h-2.401l-0.502,1.994h-1.262L-1282.487,250.791z
			 M-1282.827,256.557h1.938l-0.364-1.465c-0.19-0.732-0.437-1.859-0.584-2.836c-0.162,0.977-0.42,2.104-0.609,2.836
			L-1282.827,256.557z"/>
		<path fill="#6F71B9" d="M-1278.214,255.2c0-3.298,0.719-4.571,2.859-4.571c0.652,0,1.235,0.162,1.521,0.325v1.148
			c-0.325-0.176-0.896-0.354-1.438-0.354c-1.289,0-1.652,0.584-1.652,3.446c0,2.89,0.393,3.459,1.652,3.459
			c0.559,0,1.193-0.19,1.521-0.381v1.15c-0.285,0.164-0.963,0.34-1.574,0.34C-1277.646,259.784-1278.214,258.495-1278.214,255.2z"/>
		<path fill="#6F71B9" d="M-1272.539,256.948v-6.156h1.248v6.213c0,1.303,0.446,1.682,1.354,1.682c0.909,0,1.356-0.379,1.356-1.682
			v-6.213h1.248v6.156c0,2.01-0.842,2.819-2.604,2.819C-1271.725,259.772-1272.539,258.984-1272.539,256.948z"/>
		<path fill="#6F71B9" d="M-1265.433,250.791h1.247v7.76h2.74v1.061h-3.987V250.791z"/>
		<path fill="#6F71B9" d="M-1261.878,250.791h5.06v1.059h-1.912v7.762h-1.248v-7.762h-1.897L-1261.878,250.791L-1261.878,250.791z"
			/>
		<path fill="#6F71B9" d="M-1253.92,255.947l-2.414-5.155h1.369l1.045,2.375c0.243,0.567,0.475,1.18,0.624,1.723
			c0.163-0.543,0.406-1.151,0.649-1.723l1.046-2.375h1.328l-2.399,5.155v3.662h-1.248V255.947z"/>
		<path fill="#6F71B9" d="M-1247.232,255.2c0-3.649,0.869-4.571,2.699-4.571c1.887,0,2.713,0.881,2.713,4.571
			c0,3.661-0.867,4.566-2.713,4.566C-1246.403,259.772-1247.232,258.904-1247.232,255.2z M-1243.108,255.2
			c0-2.771-0.283-3.485-1.425-3.485c-1.139,0-1.41,0.719-1.41,3.485c0,2.766,0.271,3.48,1.41,3.48
			C-1243.392,258.686-1243.108,257.967-1243.108,255.2z"/>
		<path fill="#6F71B9" d="M-1240.193,250.791h3.988v1.059h-2.74v2.699h2.197v1.045h-2.197v4.018h-1.248V250.791L-1240.193,250.791z"
			/>
		<path fill="#6F71B9" d="M-1232.364,250.791h4.124v1.059h-2.876v2.699h2.319v1.045h-2.319v2.957h2.876v1.061h-4.124V250.791z"/>
		<path fill="#6F71B9" d="M-1226.601,250.791h1.438l2.781,7.025c-0.097-0.722-0.178-1.563-0.178-2.351v-4.68h1.192v8.817h-1.438
			l-2.811-7.057c0.106,0.719,0.203,1.573,0.203,2.375v4.682h-1.192L-1226.601,250.791L-1226.601,250.791z"/>
		<path fill="#6F71B9" d="M-1219.738,255.2c0-3.477,0.923-4.571,3.215-4.571c0.65,0,1.344,0.176,1.644,0.354v1.152
			c-0.326-0.188-0.949-0.396-1.548-0.396c-1.465,0-2.021,0.544-2.021,3.462c0,2.89,0.396,3.48,1.669,3.48
			c0.396,0,0.719-0.053,0.963-0.121v-2.939h-1.303v-1.063h2.551v4.765c-0.258,0.162-1.288,0.444-2.195,0.444
			C-1219.155,259.772-1219.738,258.522-1219.738,255.2z"/>
		<path fill="#6F71B9" d="M-1212.729,250.791h1.248v8.816h-1.248V250.791z"/>
		<path fill="#6F71B9" d="M-1209.512,250.791h1.438l2.781,7.025c-0.097-0.722-0.179-1.563-0.179-2.351v-4.68h1.193v8.817h-1.438
			l-2.811-7.057c0.106,0.719,0.203,1.573,0.203,2.375v4.682h-1.192v-8.813L-1209.512,250.791L-1209.512,250.791z"/>
		<path fill="#6F71B9" d="M-1202.313,250.791h4.123v1.059h-2.875v2.699h2.318v1.045h-2.318v2.957h2.875v1.061h-4.123V250.791z"/>
		<path fill="#6F71B9" d="M-1196.547,250.791h4.123v1.059h-2.875v2.699h2.318v1.045h-2.318v2.957h2.875v1.061h-4.123V250.791z"/>
		<path fill="#6F71B9" d="M-1190.783,250.791h2.033c1.629,0,2.795,0.609,2.795,2.604c0,1.396-0.678,2.074-1.533,2.39l1.873,3.825
			h-1.424l-1.656-3.598h-0.84v3.598h-1.248V250.791z M-1189.535,251.85v3.104h0.664c0.977,0,1.627-0.202,1.627-1.563
			c0-1.344-0.65-1.547-1.627-1.547L-1189.535,251.85L-1189.535,251.85z"/>
		<path fill="#6F71B9" d="M-1184.262,250.791h1.247v8.816h-1.247V250.791z"/>
		<path fill="#6F71B9" d="M-1181.047,250.791h1.438l2.781,7.025c-0.096-0.722-0.176-1.563-0.176-2.351v-4.68h1.189v8.817h-1.438
			l-2.81-7.057c0.107,0.719,0.203,1.573,0.203,2.375v4.682h-1.192L-1181.047,250.791L-1181.047,250.791z"/>
		<path fill="#6F71B9" d="M-1174.187,255.2c0-3.477,0.925-4.571,3.216-4.571c0.649,0,1.345,0.176,1.644,0.354v1.152
			c-0.326-0.188-0.949-0.396-1.547-0.396c-1.465,0-2.021,0.544-2.021,3.462c0,2.89,0.396,3.48,1.668,3.48
			c0.396,0,0.722-0.053,0.965-0.121v-2.939h-1.303v-1.063h2.551v4.765c-0.26,0.162-1.289,0.444-2.196,0.444
			C-1173.604,259.772-1174.187,258.522-1174.187,255.2z"/>
	</g>
	<rect x="-1309.945" y="268.364" fill="#6F71B9" width="1.247" height="3.688"/>
	<rect x="-1307.452" y="263.829" fill="#6F71B9" width="1.247" height="8.222"/>
	<rect x="-1304.958" y="259.295" fill="#6F71B9" width="1.248" height="12.756"/>
	<polygon fill="#6F71B9" points="-1301.619,250.791 -1302.461,250.791 -1302.461,272.051 -1301.213,272.051 -1301.213,252.963 
		-1294.188,259.988 -1294.188,272.051 -1292.939,272.051 -1292.939,259.471 	"/>
</g>
</svg>
