<?xml version="1.0" encoding="utf-8"?>
<!-- Generator: Adobe Illustrator 16.0.0, SVG Export Plug-In . SVG Version: 6.00 Build 0)  -->
<!DOCTYPE svg PUBLIC "-//W3C//DTD SVG 1.1//EN" "http://www.w3.org/Graphics/SVG/1.1/DTD/svg11.dtd">
<svg version="1.1" id="Layer_1" xmlns="http://www.w3.org/2000/svg" xmlns:xlink="http://www.w3.org/1999/xlink" x="0px" y="0px"
	 width="128.375px" height="21.582px" viewBox="-1309.598 209.166 128.375 21.582"
	 enable-background="new -1309.598 209.166 128.375 21.582" xml:space="preserve">
<g>
	<g>
		<path fill="#E85E71" d="M-1282.714,221.771h1.289l2.347,8.816h-1.302l-0.517-1.994h-2.401l-0.502,1.994h-1.263L-1282.714,221.771z
			 M-1283.054,227.534h1.939l-0.365-1.466c-0.188-0.731-0.435-1.856-0.584-2.836c-0.162,0.979-0.42,2.104-0.608,2.836
			L-1283.054,227.534z"/>
		<path fill="#E85E71" d="M-1278.104,221.771h1.438l2.779,7.025c-0.096-0.721-0.178-1.562-0.178-2.349v-4.68h1.194v8.816h-1.438
			l-2.808-7.056c0.108,0.72,0.204,1.572,0.204,2.373v4.683h-1.193v-8.813H-1278.104z"/>
		<path fill="#E85E71" d="M-1270.901,221.771h2.307c2.308,0,2.851,1.232,2.851,4.408c0,3.133-0.557,4.408-2.851,4.408h-2.307
			V221.771z M-1269.653,222.802v6.754h0.963c1.275,0,1.655-0.582,1.655-3.377s-0.38-3.377-1.655-3.377H-1269.653z"/>
		<path fill="#E85E71" d="M-1257.391,226.585h-2.687v4.002h-1.247v-8.816h1.248v3.758h2.688v-3.758h1.248v8.816h-1.248
			L-1257.391,226.585L-1257.391,226.585z"/>
		<path fill="#E85E71" d="M-1254.177,221.771h4.125v1.06h-2.877v2.698h2.32v1.043h-2.32v2.959h2.877v1.06h-4.125V221.771z"/>
		<path fill="#E85E71" d="M-1247.119,221.771h1.289l2.348,8.816h-1.303l-0.516-1.994h-2.4l-0.502,1.994h-1.262L-1247.119,221.771z
			 M-1247.457,227.534h1.938l-0.367-1.466c-0.188-0.731-0.435-1.856-0.581-2.836c-0.164,0.979-0.423,2.104-0.611,2.836
			L-1247.457,227.534z"/>
		<path fill="#E85E71" d="M-1242.507,221.771h1.248v7.76h2.739v1.06h-3.987V221.771L-1242.507,221.771z"/>
		<path fill="#E85E71" d="M-1238.955,221.771h5.061v1.06h-1.912v7.76h-1.248v-7.76h-1.898L-1238.955,221.771L-1238.955,221.771z"/>
		<path fill="#E85E71" d="M-1228.918,226.585h-2.687v4.002h-1.248v-8.816h1.248v3.758h2.687v-3.758h1.248v8.816h-1.248V226.585z"/>
		<path fill="#E85E71" d="M-1218.053,226.179c0-3.297,0.722-4.57,2.863-4.57c0.648,0,1.232,0.162,1.521,0.324v1.152
			c-0.326-0.176-0.896-0.354-1.438-0.354c-1.289,0-1.656,0.584-1.656,3.445c0,2.891,0.396,3.459,1.656,3.459
			c0.555,0,1.193-0.189,1.521-0.379v1.149c-0.285,0.164-0.966,0.343-1.572,0.343
			C-1217.482,230.765-1218.053,229.476-1218.053,226.179z"/>
		<path fill="#E85E71" d="M-1212.166,221.771h1.248v8.816h-1.248V221.771z"/>
		<path fill="#E85E71" d="M-1208.951,221.771h4.123v1.06h-2.875v2.698h2.317v1.043h-2.317v2.959h2.875v1.06h-4.123V221.771z"/>
		<path fill="#E85E71" d="M-1203.188,221.771h1.438l2.778,7.025c-0.094-0.721-0.176-1.562-0.176-2.349v-4.68h1.193v8.816h-1.438
			l-2.809-7.056c0.105,0.72,0.204,1.572,0.204,2.373v4.683h-1.194L-1203.188,221.771L-1203.188,221.771z"/>
		<path fill="#E85E71" d="M-1196.325,226.179c0-3.297,0.718-4.57,2.86-4.57c0.651,0,1.234,0.162,1.521,0.324v1.152
			c-0.324-0.176-0.896-0.354-1.438-0.354c-1.289,0-1.654,0.584-1.654,3.445c0,2.891,0.394,3.459,1.654,3.459
			c0.558,0,1.193-0.189,1.521-0.379v1.149c-0.285,0.164-0.963,0.343-1.575,0.343
			C-1195.758,230.765-1196.325,229.476-1196.325,226.179z"/>
		<path fill="#E85E71" d="M-1190.439,221.771h4.123v1.06h-2.875v2.698h2.318v1.043h-2.318v2.959h2.875v1.06h-4.123V221.771z"/>
	</g>
	<g>
		<path fill="#E85E71" d="M-1284.086,209.327h3.986v1.059h-2.739v2.699h2.198v1.045h-2.198v4.016h-1.247V209.327L-1284.086,209.327z
			"/>
		<path fill="#E85E71" d="M-1277.888,209.327h1.289l2.348,8.815h-1.303l-0.517-1.994h-2.401l-0.502,1.994h-1.262L-1277.888,209.327z
			 M-1278.227,215.093h1.938l-0.365-1.465c-0.19-0.732-0.435-1.857-0.584-2.836c-0.161,0.979-0.42,2.104-0.608,2.836
			L-1278.227,215.093z"/>
		<path fill="#E85E71" d="M-1273.615,213.736c0-3.297,0.72-4.569,2.86-4.569c0.651,0,1.235,0.162,1.521,0.323v1.152
			c-0.325-0.176-0.896-0.354-1.438-0.354c-1.288,0-1.653,0.584-1.653,3.444c0,2.892,0.394,3.459,1.653,3.459
			c0.558,0,1.192-0.188,1.521-0.379v1.15c-0.284,0.164-0.963,0.34-1.573,0.34C-1273.046,218.322-1273.615,217.032-1273.615,213.736z
			"/>
		<path fill="#E85E71" d="M-1267.939,215.486v-6.155h1.248v6.213c0,1.303,0.447,1.682,1.355,1.682c0.91,0,1.356-0.379,1.356-1.682
			v-6.213h1.248v6.155c0,2.009-0.843,2.822-2.604,2.822C-1267.125,218.308-1267.939,217.521-1267.939,215.486z"/>
		<path fill="#E85E71" d="M-1260.833,209.327h1.248v7.76h2.739v1.059h-3.987V209.327L-1260.833,209.327z"/>
		<path fill="#E85E71" d="M-1257.279,209.327h5.06v1.059h-1.911v7.76h-1.248v-7.76h-1.898L-1257.279,209.327L-1257.279,209.327z"/>
		<path fill="#E85E71" d="M-1249.321,214.484l-2.414-5.153h1.369l1.045,2.373c0.244,0.567,0.475,1.18,0.624,1.723
			c0.163-0.543,0.407-1.152,0.651-1.723l1.045-2.373h1.328l-2.4,5.153v3.662h-1.248V214.484L-1249.321,214.484z"/>
		<path fill="#E85E71" d="M-1242.632,213.736c0-3.647,0.868-4.569,2.698-4.569c1.888,0,2.713,0.881,2.713,4.569
			c0,3.662-0.866,4.57-2.713,4.57C-1241.804,218.308-1242.632,217.441-1242.632,213.736z M-1238.509,213.736
			c0-2.768-0.283-3.483-1.425-3.483c-1.14,0-1.41,0.719-1.41,3.483c0,2.769,0.271,3.484,1.41,3.484
			C-1238.792,217.222-1238.509,216.503-1238.509,213.736z"/>
		<path fill="#E85E71" d="M-1235.593,209.327h3.987v1.059h-2.74v2.699h2.197v1.045h-2.197v4.016h-1.247V209.327L-1235.593,209.327z"
			/>
		<path fill="#E85E71" d="M-1227.766,209.327h1.614l1.546,4.641l1.563-4.641h1.562v8.815h-1.193v-4.586
			c0-0.977,0.065-1.992,0.147-2.779l-1.602,4.748h-0.99l-1.612-4.764c0.08,0.787,0.161,1.818,0.161,2.795v4.586h-1.19
			L-1227.766,209.327L-1227.766,209.327z"/>
		<path fill="#E85E71" d="M-1219.52,209.327h4.123v1.059h-2.875v2.699h2.318v1.045h-2.318v2.957h2.875v1.059h-4.123V209.327z"/>
		<path fill="#E85E71" d="M-1213.756,209.327h2.307c2.306,0,2.849,1.233,2.849,4.407c0,3.134-0.557,4.408-2.849,4.408h-2.307
			V209.327z M-1212.508,210.359v6.756h0.963c1.274,0,1.653-0.584,1.653-3.377c0-2.795-0.379-3.379-1.653-3.379H-1212.508
			L-1212.508,210.359z"/>
		<path fill="#E85E71" d="M-1206.975,209.327h1.248v8.815h-1.248V209.327z"/>
		<path fill="#E85E71" d="M-1204.1,213.736c0-3.297,0.72-4.569,2.861-4.569c0.65,0,1.234,0.162,1.52,0.323v1.152
			c-0.323-0.176-0.896-0.354-1.438-0.354c-1.288,0-1.654,0.584-1.654,3.444c0,2.892,0.396,3.459,1.654,3.459
			c0.557,0,1.193-0.188,1.52-0.379v1.15c-0.282,0.164-0.963,0.34-1.571,0.34C-1203.53,218.322-1204.1,217.032-1204.1,213.736z"/>
		<path fill="#E85E71" d="M-1198.215,209.327h1.248v8.815h-1.248V209.327z"/>
		<path fill="#E85E71" d="M-1195,209.327h1.438l2.78,7.024c-0.095-0.719-0.177-1.561-0.177-2.348v-4.68h1.192v8.815h-1.438
			l-2.81-7.055c0.106,0.719,0.202,1.572,0.202,2.375v4.68h-1.191L-1195,209.327L-1195,209.327z"/>
		<path fill="#E85E71" d="M-1187.801,209.327h4.125v1.059h-2.878v2.699h2.32v1.045h-2.32v2.957h2.878v1.059h-4.125V209.327z"/>
	</g>
	<path fill="#E85E71" d="M-1220.689,222.677c0.551-0.002,1.07,0.182,1.31,0.367v-1.125c-0.236-0.146-0.822-0.31-1.418-0.31
		c-1.654,0-2.564,0.939-2.564,2.308c0,1.139,0.48,1.688,1.259,2.354l0.711,0.611c0.586,0.49,0.948,0.867,0.948,1.604
		c0,0.855-0.563,1.195-1.417,1.195c-0.646,0-1.181-0.18-1.488-0.393v1.146c0.271,0.154,0.839,0.314,1.602,0.313
		c1.65-0.004,2.563-0.941,2.563-2.308c0.002-1.139-0.48-1.688-1.259-2.354l-0.709-0.615c-0.588-0.502-0.952-0.865-0.95-1.598
		C-1222.104,223.017-1221.541,222.679-1220.689,222.677z"/>
	<path fill="#E85E71" d="M-1182.729,222.677c0.551-0.002,1.07,0.182,1.31,0.367v-1.125c-0.237-0.146-0.824-0.31-1.418-0.31
		c-1.653,0-2.565,0.939-2.565,2.308c0,1.139,0.481,1.688,1.26,2.354l0.709,0.611c0.586,0.49,0.949,0.867,0.949,1.604
		c0,0.855-0.564,1.195-1.416,1.195c-0.646,0-1.181-0.18-1.488-0.393v1.146c0.271,0.154,0.838,0.314,1.602,0.313
		c1.648-0.004,2.563-0.941,2.563-2.308c0.002-1.139-0.48-1.688-1.26-2.354l-0.709-0.615c-0.588-0.502-0.951-0.865-0.949-1.598
		C-1184.145,223.017-1183.582,222.679-1182.729,222.677z"/>
	<g>
		<polygon fill="#E85E71" points="-1292.162,220.595 -1291.919,221.843 -1288.339,221.843 -1288.339,220.595 		"/>
	</g>
	<g>
		<polygon fill="#E85E71" points="-1306.52,224.337 -1309.598,224.337 -1309.598,225.585 -1306.277,225.585 		"/>
	</g>
	<g>
		<polygon fill="#E85E71" points="-1299.917,209.327 -1303.402,227.308 -1304.462,221.843 -1309.598,221.843 -1309.598,223.091 
			-1305.49,223.091 -1304.038,230.587 -1302.768,230.587 -1298.646,209.327 		"/>
	</g>
	<g>
		<polygon fill="#E85E71" points="-1292.948,223.089 -1295.615,209.327 -1297.378,209.327 -1301.499,230.587 -1300.229,230.587 
			-1296.497,211.337 -1293.977,224.337 -1288.339,224.337 -1288.339,223.089 		"/>
	</g>
</g>
</svg>
