<?xml version="1.0" encoding="utf-8"?>
<!-- Generator: Adobe Illustrator 16.0.0, SVG Export Plug-In . SVG Version: 6.00 Build 0)  -->
<!DOCTYPE svg PUBLIC "-//W3C//DTD SVG 1.1//EN" "http://www.w3.org/Graphics/SVG/1.1/DTD/svg11.dtd">
<svg version="1.1" id="Layer_1" xmlns="http://www.w3.org/2000/svg" xmlns:xlink="http://www.w3.org/1999/xlink" x="0px" y="0px"
	 width="153.918px" height="21.587px" viewBox="-1307.158 292.091 153.918 21.587"
	 enable-background="new -1307.158 292.091 153.918 21.587" xml:space="preserve">
<g>
	<g>
		<path fill="#AEB050" d="M-1284.143,304.697h1.725c1.734,0,2.942,0.445,2.942,2.414c0,1.019-0.406,1.603-0.989,1.927
			c0.731,0.284,1.262,0.896,1.262,2.063c0,1.939-1.193,2.416-2.932,2.416h-2.008V304.697L-1284.143,304.697z M-1282.895,305.729
			v2.875h0.436c0.989,0,1.695-0.096,1.695-1.451c0-1.344-0.706-1.424-1.695-1.424H-1282.895z M-1282.895,309.607v2.875h0.72
			c0.989,0,1.683-0.08,1.683-1.424c0-1.354-0.705-1.451-1.683-1.451H-1282.895z"/>
		<path fill="#AEB050" d="M-1277.793,310.856v-6.157h1.248v6.213c0,1.305,0.446,1.684,1.354,1.684c0.91,0,1.357-0.379,1.357-1.684
			v-6.213h1.248v6.157c0,2.008-0.843,2.822-2.605,2.822C-1276.981,313.678-1277.793,312.891-1277.793,310.856z"/>
		<path fill="#AEB050" d="M-1265.492,304.697h1.248v8.816h-1.248V304.697z"/>
		<path fill="#AEB050" d="M-1262.281,304.697h1.439l2.778,7.025c-0.094-0.721-0.176-1.562-0.176-2.348v-4.682h1.193v8.815h-1.439
			l-2.809-7.055c0.108,0.719,0.205,1.571,0.205,2.373v4.682h-1.195v-8.815h0.002L-1262.281,304.697L-1262.281,304.697z"/>
		<path fill="#AEB050" d="M-1255.079,304.697h4.125v1.06h-2.877v2.699h2.319v1.043h-2.319v2.959h2.877v1.059h-4.125V304.697z"/>
		<path fill="#AEB050" d="M-1235.656,304.697h1.289l2.348,8.816h-1.305l-0.516-1.994h-2.4l-0.502,1.994h-1.262L-1235.656,304.697z
			 M-1235.995,310.461h1.938l-0.366-1.466c-0.189-0.731-0.435-1.856-0.582-2.836c-0.164,0.979-0.42,2.104-0.611,2.836
			L-1235.995,310.461z"/>
		<path fill="#AEB050" d="M-1231.045,304.697h2.307c2.307,0,2.85,1.232,2.85,4.408c0,3.133-0.557,4.408-2.85,4.408h-2.307V304.697z
			 M-1229.797,305.729v6.754h0.963c1.273,0,1.655-0.582,1.655-3.377s-0.382-3.377-1.655-3.377H-1229.797L-1229.797,305.729z"/>
		<path fill="#AEB050" d="M-1224.265,304.697h1.613l1.547,4.64l1.563-4.64h1.561v8.816h-1.192v-4.586
			c0-0.978,0.065-1.994,0.147-2.781l-1.602,4.748h-0.99l-1.613-4.762c0.08,0.787,0.162,1.816,0.162,2.795v4.586h-1.193
			L-1224.265,304.697L-1224.265,304.697z"/>
		<path fill="#AEB050" d="M-1216.019,304.697h1.248v8.816h-1.248V304.697z"/>
		<path fill="#AEB050" d="M-1212.805,304.697h1.438l2.779,7.025c-0.096-0.721-0.177-1.562-0.177-2.348v-4.682h1.192v8.815h-1.438
			l-2.811-7.055c0.109,0.719,0.205,1.571,0.205,2.373v4.682h-1.193v-8.815h0.002v0.003L-1212.805,304.697L-1212.805,304.697z"/>
		<path fill="#AEB050" d="M-1205.604,304.697h1.248v8.816h-1.248V304.697z"/>
		<path fill="#AEB050" d="M-1198.316,304.697h5.062v1.06h-1.912v7.76h-1.248v-7.76h-1.897v-1.06H-1198.316z"/>
		<path fill="#AEB050" d="M-1192.213,304.697h2.034c1.63,0,2.796,0.609,2.796,2.604c0,1.396-0.68,2.074-1.533,2.39l1.873,3.823
			h-1.427l-1.653-3.596h-0.842v3.596h-1.248V304.697L-1192.213,304.697z M-1190.965,305.756v3.104h0.666
			c0.977,0,1.627-0.202,1.627-1.561c0-1.345-0.65-1.547-1.627-1.547L-1190.965,305.756L-1190.965,305.756z"/>
		<path fill="#AEB050" d="M-1184.326,304.697h1.289l2.346,8.816h-1.301l-0.516-1.994h-2.402l-0.502,1.994h-1.262L-1184.326,304.697z
			 M-1184.666,310.461h1.938l-0.363-1.466c-0.189-0.731-0.438-1.856-0.585-2.836c-0.161,0.979-0.42,2.104-0.608,2.836
			L-1184.666,310.461z"/>
		<path fill="#AEB050" d="M-1180.842,304.697h5.061v1.06h-1.912v7.76h-1.248v-7.76h-1.897L-1180.842,304.697L-1180.842,304.697z"/>
		<path fill="#AEB050" d="M-1174.74,304.697h1.248v8.816h-1.248V304.697z"/>
		<path fill="#AEB050" d="M-1171.865,309.106c0-3.647,0.869-4.569,2.699-4.569c1.887,0,2.713,0.881,2.713,4.569
			c0,3.662-0.867,4.572-2.713,4.572C-1171.035,313.678-1171.865,312.809-1171.865,309.106z M-1167.74,309.106
			c0-2.768-0.285-3.483-1.426-3.483s-1.41,0.719-1.41,3.483c0,2.769,0.271,3.486,1.41,3.486
			C-1168.025,312.592-1167.74,311.87-1167.74,309.106z"/>
		<path fill="#AEB050" d="M-1164.826,304.697h1.438l2.78,7.025c-0.097-0.721-0.179-1.562-0.179-2.348v-4.682h1.193v8.815h-1.438
			l-2.809-7.055c0.105,0.719,0.202,1.571,0.202,2.373v4.682h-1.192v-8.813h0.004L-1164.826,304.697L-1164.826,304.697z"/>
	</g>
	<g>
		<path fill="#AEB050" d="M-1284.143,292.254h3.987v1.059h-2.739v2.699h2.198v1.045h-2.198v4.017h-1.248V292.254z"/>
		<path fill="#AEB050" d="M-1277.943,292.254h1.289l2.348,8.814h-1.303l-0.516-1.993h-2.402l-0.502,1.993h-1.262L-1277.943,292.254z
			 M-1278.283,298.02h1.938l-0.364-1.465c-0.189-0.73-0.436-1.855-0.584-2.836c-0.162,0.979-0.42,2.104-0.609,2.836
			L-1278.283,298.02z"/>
		<path fill="#AEB050" d="M-1273.67,296.661c0-3.298,0.719-4.569,2.86-4.569c0.65,0,1.234,0.162,1.521,0.324v1.15
			c-0.326-0.177-0.896-0.354-1.438-0.354c-1.289,0-1.653,0.584-1.653,3.445c0,2.891,0.393,3.459,1.653,3.459
			c0.558,0,1.191-0.189,1.521-0.38v1.15c-0.285,0.164-0.963,0.34-1.574,0.34C-1273.103,301.248-1273.67,299.959-1273.67,296.661z"/>
		<path fill="#AEB050" d="M-1267.995,298.411v-6.155h1.248v6.213c0,1.303,0.447,1.682,1.354,1.682c0.91,0,1.357-0.379,1.357-1.682
			v-6.213h1.248v6.155c0,2.009-0.842,2.821-2.605,2.821C-1267.181,301.234-1267.995,300.447-1267.995,298.411z"/>
		<path fill="#AEB050" d="M-1260.89,292.254h1.248v7.76h2.74v1.059h-3.988V292.254L-1260.89,292.254z"/>
		<path fill="#AEB050" d="M-1257.334,292.254h5.059v1.059h-1.91v7.761h-1.248v-7.761h-1.899L-1257.334,292.254L-1257.334,292.254z"
			/>
		<path fill="#AEB050" d="M-1249.377,297.409l-2.414-5.153h1.369l1.045,2.373c0.244,0.566,0.475,1.18,0.625,1.723
			c0.162-0.543,0.405-1.151,0.649-1.723l1.045-2.373h1.33l-2.401,5.153v3.661h-1.248V297.409z"/>
		<path fill="#AEB050" d="M-1242.688,296.661c0-3.647,0.869-4.569,2.699-4.569c1.887,0,2.713,0.881,2.713,4.569
			c0,3.661-0.867,4.569-2.713,4.569C-1241.859,301.234-1242.688,300.366-1242.688,296.661z M-1238.563,296.661
			c0-2.77-0.285-3.483-1.426-3.483c-1.139,0-1.41,0.719-1.41,3.483c0,2.769,0.271,3.482,1.41,3.482
			C-1238.849,300.148-1238.563,299.43-1238.563,296.661z"/>
		<path fill="#AEB050" d="M-1235.648,292.254h3.988v1.059h-2.74v2.699h2.197v1.045h-2.197v4.017h-1.248V292.254L-1235.648,292.254z"
			/>
		<path fill="#AEB050" d="M-1227.82,292.254h4.123v1.059h-2.875v2.699h2.32v1.045h-2.32v2.957h2.875v1.059h-4.123V292.254z"/>
		<path fill="#AEB050" d="M-1222.599,296.661c0-3.298,0.721-4.569,2.861-4.569c0.649,0,1.233,0.162,1.521,0.324v1.15
			c-0.326-0.177-0.896-0.354-1.438-0.354c-1.289,0-1.654,0.584-1.654,3.445c0,2.891,0.395,3.459,1.654,3.459
			c0.557,0,1.192-0.189,1.521-0.38v1.15c-0.285,0.164-0.965,0.34-1.572,0.34C-1222.029,301.248-1222.599,299.959-1222.599,296.661z"
			/>
		<path fill="#AEB050" d="M-1217.215,296.661c0-3.647,0.868-4.569,2.697-4.569c1.889,0,2.714,0.881,2.714,4.569
			c0,3.661-0.866,4.569-2.714,4.569C-1216.387,301.234-1217.215,300.366-1217.215,296.661z M-1213.09,296.661
			c0-2.77-0.285-3.483-1.428-3.483c-1.139,0-1.408,0.719-1.408,3.483c0,2.769,0.271,3.482,1.408,3.482
			C-1213.375,300.148-1213.09,299.43-1213.09,296.661z"/>
		<path fill="#AEB050" d="M-1210.176,292.254h1.438l2.781,7.023c-0.097-0.72-0.176-1.562-0.176-2.349v-4.68h1.191v8.815h-1.438
			l-2.81-7.055c0.107,0.719,0.203,1.572,0.203,2.375v4.68h-1.193v-8.813h0.003L-1210.176,292.254L-1210.176,292.254z"/>
		<path fill="#AEB050" d="M-1203.315,296.661c0-3.647,0.869-4.569,2.699-4.569c1.887,0,2.713,0.881,2.713,4.569
			c0,3.661-0.867,4.569-2.713,4.569C-1202.486,301.234-1203.315,300.366-1203.315,296.661z M-1199.191,296.661
			c0-2.77-0.283-3.483-1.424-3.483c-1.139,0-1.41,0.719-1.41,3.483c0,2.769,0.271,3.482,1.41,3.482
			C-1199.476,300.148-1199.191,299.43-1199.191,296.661z"/>
		<path fill="#AEB050" d="M-1196.275,292.254h1.613l1.547,4.641l1.561-4.641h1.562v8.814h-1.192v-4.585
			c0-0.977,0.065-1.991,0.147-2.778l-1.603,4.748h-0.989l-1.613-4.765c0.08,0.787,0.162,1.818,0.162,2.795v4.586h-1.192
			L-1196.275,292.254L-1196.275,292.254z"/>
		<path fill="#AEB050" d="M-1188.031,292.254h1.248v8.814h-1.248V292.254z"/>
		<path fill="#AEB050" d="M-1185.156,296.661c0-3.298,0.721-4.569,2.863-4.569c0.648,0,1.232,0.162,1.52,0.324v1.15
			c-0.326-0.177-0.896-0.354-1.438-0.354c-1.289,0-1.656,0.584-1.656,3.445c0,2.891,0.395,3.459,1.656,3.459
			c0.555,0,1.191-0.189,1.52-0.38v1.15c-0.285,0.164-0.965,0.34-1.572,0.34C-1184.586,301.248-1185.156,299.959-1185.156,296.661z"
			/>
		<path fill="#AEB050" d="M-1170.209,292.254h1.289l2.348,8.814h-1.303l-0.518-1.993h-2.398l-0.502,1.993h-1.263L-1170.209,292.254z
			 M-1170.547,298.02h1.938l-0.365-1.465c-0.188-0.73-0.434-1.855-0.582-2.836c-0.164,0.979-0.422,2.104-0.61,2.836
			L-1170.547,298.02z"/>
		<path fill="#AEB050" d="M-1165.599,292.254h1.438l2.781,7.023c-0.098-0.72-0.177-1.562-0.177-2.349v-4.68h1.192v8.815h-1.438
			l-2.809-7.055c0.107,0.719,0.203,1.572,0.203,2.375v4.68h-1.193L-1165.599,292.254L-1165.599,292.254z"/>
		<path fill="#AEB050" d="M-1158.397,292.254h2.309c2.305,0,2.848,1.232,2.848,4.407c0,3.134-0.557,4.407-2.848,4.407h-2.309
			V292.254z M-1157.148,293.284v6.757h0.963c1.275,0,1.654-0.584,1.654-3.378c0-2.795-0.379-3.379-1.654-3.379H-1157.148
			L-1157.148,293.284z"/>
	</g>
	<path fill="#AEB050" d="M-1268.469,305.604c0.552-0.002,1.068,0.183,1.31,0.367v-1.125c-0.238-0.146-0.824-0.31-1.418-0.31
		c-1.656,0-2.566,0.938-2.566,2.308c0,1.139,0.482,1.688,1.261,2.354l0.709,0.609c0.586,0.49,0.948,0.867,0.948,1.605
		c0,0.854-0.565,1.193-1.416,1.193c-0.646,0-1.182-0.181-1.487-0.394v1.146c0.27,0.154,0.836,0.314,1.6,0.313
		c1.65-0.004,2.563-0.94,2.564-2.308c0.002-1.139-0.482-1.688-1.261-2.354l-0.709-0.615c-0.588-0.502-0.951-0.865-0.948-1.598
		C-1269.885,305.943-1269.322,305.606-1268.469,305.604z"/>
	<path fill="#AEB050" d="M-1247.368,305.604c0.551-0.002,1.07,0.183,1.309,0.367v-1.125c-0.237-0.146-0.823-0.31-1.418-0.31
		c-1.653,0-2.565,0.938-2.565,2.308c0,1.139,0.481,1.688,1.26,2.354l0.709,0.609c0.586,0.49,0.949,0.867,0.949,1.605
		c0,0.854-0.566,1.193-1.416,1.193c-0.646,0-1.181-0.181-1.488-0.394v1.146c0.271,0.154,0.836,0.314,1.6,0.313
		c1.65-0.004,2.563-0.94,2.564-2.308c0.002-1.139-0.482-1.688-1.26-2.354l-0.709-0.615c-0.588-0.502-0.951-0.865-0.949-1.598
		C-1248.783,305.943-1248.221,305.606-1247.368,305.604z"/>
	<path fill="#AEB050" d="M-1242.566,305.604c0.551-0.002,1.07,0.183,1.31,0.367v-1.125c-0.238-0.146-0.824-0.31-1.418-0.31
		c-1.654,0-2.566,0.938-2.566,2.308c0,1.139,0.481,1.688,1.26,2.354l0.711,0.609c0.586,0.49,0.947,0.867,0.947,1.605
		c0,0.854-0.564,1.193-1.416,1.193c-0.645,0-1.18-0.181-1.488-0.394v1.146c0.271,0.154,0.838,0.314,1.601,0.313
		c1.651-0.004,2.563-0.94,2.563-2.308c0.002-1.139-0.481-1.688-1.26-2.354l-0.709-0.615c-0.588-0.502-0.951-0.865-0.949-1.598
		C-1243.981,305.943-1243.418,305.606-1242.566,305.604z"/>
	<path fill="#AEB050" d="M-1200.24,305.604c0.553-0.002,1.07,0.183,1.311,0.367v-1.125c-0.237-0.146-0.823-0.31-1.418-0.31
		c-1.655,0-2.565,0.938-2.565,2.308c0,1.139,0.481,1.688,1.259,2.354l0.711,0.609c0.586,0.49,0.948,0.867,0.948,1.605
		c0,0.854-0.565,1.193-1.418,1.193c-0.646,0-1.18-0.181-1.487-0.394v1.146c0.271,0.154,0.838,0.314,1.604,0.313
		c1.648-0.004,2.563-0.94,2.563-2.308c0.002-1.139-0.479-1.688-1.258-2.354l-0.709-0.615c-0.588-0.502-0.953-0.865-0.951-1.598
		C-1201.654,305.943-1201.092,305.606-1200.24,305.604z"/>
	<path fill="#AEB050" d="M-1177.119,293.161c0.551-0.002,1.07,0.181,1.311,0.366v-1.125c-0.237-0.146-0.823-0.312-1.418-0.312
		c-1.655,0-2.565,0.941-2.565,2.308c0,1.143,0.481,1.688,1.258,2.354l0.712,0.613c0.586,0.487,0.948,0.866,0.948,1.602
		c0,0.857-0.565,1.197-1.418,1.197c-0.646,0-1.181-0.181-1.487-0.396v1.146c0.271,0.154,0.838,0.314,1.604,0.313
		c1.648-0.004,2.563-0.938,2.563-2.307c0.002-1.138-0.48-1.688-1.258-2.354l-0.709-0.614c-0.588-0.502-0.953-0.864-0.951-1.602
		C-1178.533,293.5-1177.971,293.161-1177.119,293.161z"/>
	<polygon fill="#AEB050" points="-1289.642,312.266 -1305.911,312.266 -1305.911,292.254 -1307.158,292.254 -1307.158,313.514 
		-1288.395,313.514 	"/>
	<rect x="-1304.665" y="300.256" fill="#AEB050" width="1.248" height="10.764"/>
	<rect x="-1302.171" y="304.232" fill="#AEB050" width="1.248" height="6.787"/>
	<rect x="-1299.677" y="300.256" fill="#AEB050" width="1.248" height="10.764"/>
	<rect x="-1297.183" y="297.606" fill="#AEB050" width="1.248" height="13.414"/>
	<rect x="-1294.688" y="305.559" fill="#AEB050" width="1.248" height="5.461"/>
</g>
</svg>
