<?xml version="1.0" encoding="utf-8"?>
<!-- Generator: Adobe Illustrator 16.0.0, SVG Export Plug-In . SVG Version: 6.00 Build 0)  -->
<!DOCTYPE svg PUBLIC "-//W3C//DTD SVG 1.1//EN" "http://www.w3.org/Graphics/SVG/1.1/DTD/svg11.dtd">
<svg version="1.1" id="Layer_1" xmlns="http://www.w3.org/2000/svg" xmlns:xlink="http://www.w3.org/1999/xlink" x="0px" y="0px"
	 width="106.535px" height="21.586px" viewBox="-1307.856 84.778 106.535 21.586"
	 enable-background="new -1307.856 84.778 106.535 21.586" xml:space="preserve">
<g>
	<g>
		<path fill="#F1A42B" d="M-1280.969,97.384h1.287l2.35,8.815h-1.305l-0.516-1.994h-2.4l-0.502,1.994h-1.262L-1280.969,97.384z
			 M-1281.31,103.148h1.938l-0.364-1.465c-0.188-0.731-0.436-1.857-0.584-2.836c-0.162,0.979-0.421,2.104-0.609,2.836
			L-1281.31,103.148z"/>
		<path fill="#F1A42B" d="M-1276.358,97.384h1.438l2.778,7.024c-0.096-0.721-0.178-1.561-0.178-2.348V97.38h1.194v8.815h-1.438
			l-2.808-7.054c0.105,0.719,0.204,1.572,0.204,2.373v4.681h-1.193L-1276.358,97.384L-1276.358,97.384z"/>
		<path fill="#F1A42B" d="M-1269.158,97.384h2.306c2.31,0,2.853,1.232,2.853,4.407c0,3.134-0.56,4.408-2.853,4.408h-2.306V97.384z
			 M-1267.911,98.415v6.755h0.964c1.274,0,1.654-0.583,1.654-3.377c0-2.795-0.38-3.378-1.654-3.378H-1267.911z"/>
		<path fill="#F1A42B" d="M-1259.581,97.384h2.116c1.668,0,2.655,0.703,2.655,2.808c0,2.05-1.027,2.81-2.655,2.81h-0.868v3.201
			h-1.248V97.384z M-1258.333,98.442v3.514h0.73c0.979,0,1.508-0.354,1.508-1.765s-0.528-1.749-1.508-1.749H-1258.333z"/>
		<path fill="#F1A42B" d="M-1249.42,102.198h-2.688v4.003h-1.248v-8.816h1.248v3.758h2.688v-3.758h1.248v8.816h-1.248V102.198z"/>
		<path fill="#F1A42B" d="M-1246.208,97.384h1.248v8.815h-1.248V97.384z"/>
		<path fill="#F1A42B" d="M-1242.995,97.384h1.248v7.76h2.74v1.059h-3.988V97.384L-1242.995,97.384z"/>
		<path fill="#F1A42B" d="M-1238.56,101.793c0-3.648,0.869-4.57,2.699-4.57c1.887,0,2.713,0.881,2.713,4.57
			c0,3.662-0.867,4.57-2.713,4.57C-1237.731,106.363-1238.56,105.495-1238.56,101.793z M-1234.437,101.793
			c0-2.769-0.283-3.484-1.424-3.484c-1.14,0-1.41,0.719-1.41,3.484c0,2.768,0.271,3.484,1.41,3.484
			C-1234.719,105.278-1234.437,104.558-1234.437,101.793z"/>
		<path fill="#F1A42B" d="M-1226.666,101.793c0-3.648,0.867-4.57,2.699-4.57c1.885,0,2.713,0.881,2.713,4.57
			c0,3.662-0.869,4.57-2.713,4.57C-1225.838,106.363-1226.666,105.495-1226.666,101.793z M-1222.543,101.793
			c0-2.769-0.285-3.484-1.424-3.484c-1.144,0-1.41,0.719-1.41,3.484c0,2.768,0.271,3.484,1.41,3.484
			C-1222.828,105.278-1222.543,104.558-1222.543,101.793z"/>
		<path fill="#F1A42B" d="M-1219.629,97.384h2.114c1.67,0,2.658,0.703,2.658,2.808c0,2.05-1.029,2.81-2.658,2.81h-0.866v3.201
			h-1.248V97.384L-1219.629,97.384z M-1218.379,98.442v3.514h0.729c0.979,0,1.506-0.354,1.506-1.765s-0.525-1.749-1.506-1.749
			H-1218.379z"/>
		<path fill="#F1A42B" d="M-1209.469,102.198h-2.688v4.003h-1.248v-8.816h1.248v3.758h2.688v-3.758h1.248v8.816h-1.248V102.198z"/>
		<path fill="#F1A42B" d="M-1204.967,102.538l-2.414-5.154h1.368l1.046,2.375c0.24,0.567,0.476,1.18,0.625,1.723
			c0.158-0.543,0.402-1.152,0.646-1.723l1.045-2.375h1.33l-2.401,5.154v3.662h-1.245V102.538L-1204.967,102.538z"/>
	</g>
	<g>
		<path fill="#F1A42B" d="M-1282.342,84.941h3.985V86h-2.74v2.699h2.199v1.044h-2.199v4.017h-1.245V84.941z"/>
		<path fill="#F1A42B" d="M-1276.144,84.941h1.287l2.35,8.816h-1.305l-0.516-1.994h-2.4l-0.502,1.994h-1.263L-1276.144,84.941z
			 M-1276.483,90.707h1.939l-0.365-1.466c-0.189-0.731-0.436-1.856-0.584-2.836c-0.162,0.979-0.42,2.104-0.609,2.836
			L-1276.483,90.707z"/>
		<path fill="#F1A42B" d="M-1271.873,89.349c0-3.297,0.719-4.571,2.858-4.571c0.652,0,1.236,0.163,1.521,0.325v1.151
			c-0.324-0.176-0.896-0.354-1.438-0.354c-1.287,0-1.652,0.584-1.652,3.445c0,2.89,0.394,3.459,1.652,3.459
			c0.559,0,1.193-0.188,1.521-0.379v1.15c-0.284,0.162-0.963,0.34-1.573,0.34C-1271.303,93.935-1271.873,92.647-1271.873,89.349z"/>
		<path fill="#F1A42B" d="M-1266.194,91.099v-6.157h1.248v6.213c0,1.304,0.446,1.683,1.354,1.683c0.908,0,1.355-0.379,1.355-1.683
			v-6.213h1.248v6.157c0,2.008-0.843,2.821-2.604,2.821C-1265.381,93.921-1266.194,93.134-1266.194,91.099z"/>
		<path fill="#F1A42B" d="M-1259.089,84.941h1.248v7.761h2.738v1.059h-3.986V84.941z"/>
		<path fill="#F1A42B" d="M-1255.537,84.941h5.061V86h-1.912v7.76h-1.247V86h-1.898L-1255.537,84.941L-1255.537,84.941z"/>
		<path fill="#F1A42B" d="M-1247.579,90.097l-2.414-5.155h1.369l1.045,2.374c0.244,0.568,0.476,1.181,0.624,1.724
			c0.163-0.543,0.407-1.152,0.649-1.724l1.046-2.374h1.327l-2.398,5.155v3.662h-1.248V90.097L-1247.579,90.097z"/>
		<path fill="#F1A42B" d="M-1240.89,89.349c0-3.647,0.869-4.571,2.699-4.571c1.887,0,2.713,0.883,2.713,4.571
			c0,3.662-0.864,4.57-2.713,4.57C-1240.062,93.921-1240.89,93.054-1240.89,89.349z M-1236.765,89.349
			c0-2.769-0.282-3.485-1.426-3.485c-1.139,0-1.41,0.72-1.41,3.485c0,2.769,0.271,3.484,1.41,3.484
			C-1237.048,92.835-1236.765,92.116-1236.765,89.349z"/>
		<path fill="#F1A42B" d="M-1233.851,84.941h3.988V86h-2.74v2.699h2.197v1.044h-2.197v4.017h-1.248V84.941L-1233.851,84.941z"/>
		<path fill="#F1A42B" d="M-1224.885,84.941h1.289l2.349,8.816h-1.304l-0.517-1.994h-2.398l-0.503,1.994h-1.263L-1224.885,84.941z
			 M-1225.224,90.707h1.938l-0.366-1.466c-0.188-0.731-0.435-1.856-0.582-2.836c-0.164,0.979-0.42,2.104-0.61,2.836
			L-1225.224,90.707z"/>
		<path fill="#F1A42B" d="M-1220.272,84.941h2.035c1.627,0,2.793,0.609,2.793,2.604c0,1.396-0.679,2.075-1.531,2.389l1.871,3.826
			h-1.424l-1.656-3.597h-0.84v3.597h-1.248V84.941L-1220.272,84.941z M-1219.024,86v3.104h0.664c0.979,0,1.629-0.203,1.629-1.562
			c0-1.343-0.648-1.546-1.629-1.546L-1219.024,86L-1219.024,86z"/>
		<path fill="#F1A42B" d="M-1214.942,84.941h5.061V86h-1.912v7.76h-1.248V86h-1.896L-1214.942,84.941L-1214.942,84.941z"/>
	</g>
	<path fill="#F1A42B" d="M-1206.744,85.849c0.552-0.002,1.07,0.18,1.31,0.367v-1.125c-0.236-0.146-0.822-0.312-1.418-0.312
		c-1.652,0-2.564,0.941-2.564,2.308c0,1.141,0.48,1.688,1.26,2.354l0.71,0.613c0.587,0.488,0.948,0.866,0.948,1.604
		c0,0.856-0.564,1.196-1.416,1.196c-0.646,0-1.184-0.18-1.488-0.395v1.146c0.271,0.156,0.838,0.315,1.6,0.313
		c1.652-0.004,2.563-0.939,2.564-2.308c0.002-1.137-0.482-1.686-1.26-2.354l-0.709-0.615c-0.588-0.502-0.951-0.865-0.949-1.6
		C-1208.16,86.187-1207.596,85.849-1206.744,85.849z"/>
	<path fill="#F1A42B" d="M-1229.303,98.291c0.554-0.002,1.069,0.182,1.312,0.367v-1.125c-0.238-0.146-0.824-0.31-1.418-0.31
		c-1.654,0-2.566,0.939-2.566,2.307c0,1.14,0.482,1.688,1.263,2.355l0.709,0.611c0.586,0.489,0.946,0.866,0.946,1.604
		c0,0.855-0.563,1.195-1.416,1.195c-0.646,0-1.181-0.18-1.485-0.394v1.146c0.271,0.154,0.836,0.313,1.601,0.313
		c1.649-0.004,2.563-0.94,2.563-2.307c0.002-1.139-0.482-1.688-1.263-2.354l-0.709-0.615c-0.588-0.502-0.95-0.864-0.946-1.599
		C-1230.717,98.63-1230.155,98.293-1229.303,98.291z"/>
	<path fill="#F1A42B" d="M-1299.094,99.906l-8.761-0.001V84.941h8.759c0.75,0,1.414,0.337,1.871,0.859
		c0.459-0.522,1.123-0.859,1.871-0.859h8.76v14.965l-8.76,0.002c-0.746,0-1.414,0.324-1.871,0.844
		C-1297.683,100.232-1298.349,99.906-1299.094,99.906z M-1297.849,87.435c0-0.688-0.559-1.248-1.248-1.248h-7.513V98.66l7.515-0.001
		c0.453,0.001,0.88,0.123,1.246,0.334V87.435L-1297.849,87.435z M-1296.601,98.992c0.365-0.212,0.791-0.333,1.246-0.333h7.516
		V86.187h-7.516c-0.688,0-1.248,0.561-1.248,1.248L-1296.601,98.992z"/>
	<path fill="#F1A42B" d="M-1299.094,101.152c0.745,0,1.411,0.326,1.87,0.845c0.455-0.519,1.123-0.844,1.869-0.844h8.764
		l-1.248,1.245l-7.516,0.002c-0.746,0-1.414,0.326-1.869,0.845c-0.459-0.519-1.125-0.845-1.87-0.845l-7.514-0.002l-1.248-1.245
		L-1299.094,101.152z"/>
	<rect x="-1305.361" y="88.681" fill="#F1A42B" width="6.268" height="1.248"/>
	<rect x="-1305.361" y="91.175" fill="#F1A42B" width="6.268" height="1.248"/>
	<rect x="-1305.361" y="93.669" fill="#F1A42B" width="6.268" height="1.248"/>
</g>
</svg>
